DES3440__S26__COMMUNALvariable_Regular.ufo
<glyph name="A" format="2">
  <advance width="617"/>
  <unicode hex="0041"/>
  <outline>
    <contour>
      <point x="193" y="750" type="line"/>
      <point x="130" y="457" type="line"/>
      <point x="129" y="457" type="line"/>
      <point x="112" y="377" type="line"/>
      <point x="30" y="0" type="line"/>
      <point x="147" y="0" type="line"/>
      <point x="227" y="377" type="line"/>
      <point x="389" y="376" type="line"/>
      <point x="374" y="457" type="line"/>
      <point x="244" y="457" type="line"/>
      <point x="289" y="667" type="line"/>
      <point x="176" y="667" type="line"/>
    </contour>
    <contour>
      <point x="429" y="750" type="line"/>
      <point x="450" y="667" type="line"/>
      <point x="448" y="667" type="line"/>
      <point x="506" y="420" type="line"/>
      <point x="498" y="457" type="line"/>
      <point x="374" y="457" type="line"/>
      <point x="326" y="667" type="line"/>
      <point x="176" y="667" type="line"/>
      <point x="193" y="750" type="line"/>
    </contour>
    <contour>
      <point x="374" y="457" type="line"/>
      <point x="499" y="457" type="line"/>
      <point x="587" y="-1" type="line"/>
      <point x="461" y="-1" type="line"/>
    </contour>
  </outline>
</glyph>
<glyph name="B" format="2">
  <advance width="513"/>
  <unicode hex="0042"/>
  <outline>
    <contour>
      <point x="50" y="751" type="line"/>
      <point x="50" y="0" type="line"/>
      <point x="157" y="0" type="line"/>
      <point x="157" y="751" type="line"/>
    </contour>
    <contour>
      <point x="58" y="431" type="line"/>
      <point x="58" y="-1" type="line"/>
      <point x="269" y="-1" type="line" smooth="yes"/>
      <point x="386" y="-1"/>
      <point x="483" y="97"/>
      <point x="483" y="215" type="curve" smooth="yes"/>
      <point x="483" y="334"/>
      <point x="386" y="431"/>
      <point x="269" y="431" type="curve" smooth="yes"/>
    </contour>
    <contour>
      <point x="80" y="751" type="line"/>
      <point x="80" y="412" type="line"/>
      <point x="245" y="412" type="line" smooth="yes"/>
      <point x="337" y="412"/>
      <point x="413" y="488"/>
      <point x="413" y="581" type="curve" smooth="yes"/>
      <point x="413" y="675"/>
      <point x="337" y="751"/>
      <point x="245" y="751" type="curve" smooth="yes"/>
    </contour>
    <contour>
      <point x="157" y="672" type="line"/>
      <point x="246" y="672" type="line" smooth="yes"/>
      <point x="295" y="672"/>
      <point x="336" y="632"/>
      <point x="336" y="581" type="curve" smooth="yes"/>
      <point x="336" y="531"/>
      <point x="295" y="490"/>
      <point x="246" y="490" type="curve" smooth="yes"/>
      <point x="157" y="490" type="line"/>
    </contour>
    <contour>
      <point x="157" y="345" type="line"/>
      <point x="281" y="345" type="line" smooth="yes"/>
      <point x="350" y="345"/>
      <point x="408" y="289"/>
      <point x="408" y="218" type="curve" smooth="yes"/>
      <point x="408" y="147"/>
      <point x="350" y="90"/>
      <point x="281" y="90" type="curve" smooth="yes"/>
      <point x="157" y="90" type="line"/>
    </contour>
  </outline>
</glyph>
<glyph name="C" format="2">
  <advance width="609"/>
  <unicode hex="0043"/>
  <outline>
    <contour>
      <point x="50" y="581" type="line"/>
      <point x="50" y="192" type="line"/>
      <point x="144" y="192" type="line"/>
      <point x="144" y="581" type="line"/>
    </contour>
    <contour>
      <point x="97" y="104" type="line"/>
      <point x="97" y="1" type="line"/>
      <point x="477" y="1" type="line"/>
      <point x="477" y="104" type="line"/>
    </contour>
    <contour>
      <point x="476" y="192" type="line"/>
      <point x="476" y="1" type="line"/>
      <point x="569" y="2" type="line"/>
      <point x="569" y="193" type="line"/>
    </contour>
    <contour>
      <point x="144" y="192" type="line"/>
      <point x="50" y="192" type="line"/>
      <point x="50" y="1" type="line"/>
      <point x="144" y="1" type="line"/>
    </contour>
    <contour>
      <point x="97" y="646" type="line"/>
      <point x="498" y="646" type="line"/>
      <point x="498" y="750" type="line"/>
      <point x="97" y="750" type="line"/>
    </contour>
    <contour>
      <point x="463" y="545" type="line"/>
      <point x="555" y="547" type="line"/>
      <point x="552" y="751" type="line"/>
      <point x="458" y="750" type="line"/>
    </contour>
    <contour>
      <point x="145" y="558" type="line"/>
      <point x="145" y="750" type="line"/>
      <point x="51" y="750" type="line"/>
      <point x="51" y="558" type="line"/>
    </contour>
  </outline>
</glyph>
<glyph name="D" format="2">
  <advance width="559"/>
  <unicode hex="0044"/>
  <outline>
    <contour>
      <point x="50" y="578" type="line"/>
      <point x="50" y="192" type="line"/>
      <point x="143" y="192" type="line"/>
      <point x="143" y="578" type="line"/>
    </contour>
    <contour>
      <point x="98" y="104" type="line"/>
      <point x="98" y="1" type="line"/>
      <point x="422" y="1" type="line"/>
      <point x="422" y="104" type="line"/>
    </contour>
    <contour>
      <point x="448" y="234" type="line"/>
      <point x="341" y="46" type="line"/>
      <point x="422" y="1" type="line"/>
      <point x="529" y="199" type="line"/>
    </contour>
    <contour>
      <point x="143" y="192" type="line"/>
      <point x="50" y="192" type="line"/>
      <point x="50" y="1" type="line"/>
      <point x="143" y="1" type="line"/>
    </contour>
    <contour>
      <point x="98" y="646" type="line"/>
      <point x="422" y="646" type="line"/>
      <point x="422" y="749" type="line"/>
      <point x="98" y="749" type="line"/>
    </contour>
    <contour>
      <point x="450" y="524" type="line"/>
      <point x="529" y="585" type="line"/>
      <point x="423" y="749" type="line"/>
      <point x="343" y="701" type="line"/>
    </contour>
    <contour>
      <point x="143" y="556" type="line"/>
      <point x="143" y="749" type="line"/>
      <point x="50" y="749" type="line"/>
      <point x="50" y="556" type="line"/>
    </contour>
    <contour>
      <point x="436" y="573" type="line"/>
      <point x="436" y="187" type="line"/>
      <point x="529" y="199" type="line"/>
      <point x="529" y="585" type="line"/>
    </contour>
  </outline>
</glyph>
<glyph name="E" format="2">
  <advance width="280"/>
  <unicode hex="0045"/>
  <outline>
    <contour>
      <point x="50" y="400" type="line"/>
      <point x="50" y="300" type="line"/>
      <point x="150" y="300" type="line"/>
      <point x="150" y="400" type="line"/>
    </contour>
    <contour>
      <point x="50" y="300" type="line"/>
      <point x="50" y="200" type="line"/>
      <point x="150" y="200" type="line"/>
      <point x="150" y="300" type="line"/>
    </contour>
    <contour>
      <point x="50" y="200" type="line"/>
      <point x="50" y="100" type="line"/>
      <point x="150" y="100" type="line"/>
      <point x="150" y="200" type="line"/>
    </contour>
    <contour>
      <point x="150" y="100" type="line"/>
      <point x="150" y="0" type="line"/>
      <point x="250" y="0" type="line"/>
      <point x="250" y="100" type="line"/>
    </contour>
    <contour>
      <point x="50" y="100" type="line"/>
      <point x="50" y="0" type="line"/>
      <point x="150" y="0" type="line"/>
      <point x="150" y="100" type="line"/>
    </contour>
    <contour>
      <point x="150" y="300" type="line"/>
      <point x="150" y="200" type="line"/>
      <point x="250" y="200" type="line"/>
      <point x="250" y="300" type="line"/>
    </contour>
    <contour>
      <point x="50" y="500" type="line"/>
      <point x="50" y="400" type="line"/>
      <point x="150" y="400" type="line"/>
      <point x="150" y="500" type="line"/>
    </contour>
    <contour>
      <point x="150" y="500" type="line"/>
      <point x="150" y="400" type="line"/>
      <point x="250" y="400" type="line"/>
      <point x="250" y="500" type="line"/>
    </contour>
  </outline>
</glyph>
<glyph name="F" format="2">
  <advance width="558"/>
  <unicode hex="0046"/>
  <outline>
    <contour>
      <point x="50" y="749" type="line"/>
      <point x="50" y="0" type="line"/>
      <point x="152" y="0" type="line"/>
      <point x="152" y="749" type="line"/>
    </contour>
    <contour>
      <point x="50" y="749" type="line"/>
      <point x="50" y="653" type="line"/>
      <point x="528" y="653" type="line"/>
      <point x="528" y="749" type="line"/>
    </contour>
    <contour>
      <point x="64" y="455" type="line"/>
      <point x="64" y="364" type="line"/>
      <point x="428" y="364" type="line"/>
      <point x="428" y="455" type="line"/>
    </contour>
  </outline>
</glyph>
<glyph name="G" format="2">
  <advance width="720"/>
  <unicode hex="0047"/>
  <outline>
    <contour>
      <point x="329" y="-20" type="curve" smooth="yes"/>
      <point x="163" y="-20"/>
      <point x="30" y="2"/>
      <point x="30" y="143" type="curve" smooth="yes"/>
      <point x="30" y="267"/>
      <point x="163" y="306"/>
      <point x="329" y="306" type="curve" smooth="yes"/>
      <point x="495" y="306"/>
      <point x="628" y="269"/>
      <point x="628" y="143" type="curve" smooth="yes"/>
      <point x="628" y="15"/>
      <point x="495" y="-20"/>
    </contour>
    <contour>
      <point x="329" y="5" type="curve" smooth="yes"/>
      <point x="480" y="5"/>
      <point x="601" y="35"/>
      <point x="601" y="143" type="curve" smooth="yes"/>
      <point x="601" y="249"/>
      <point x="480" y="281"/>
      <point x="329" y="281" type="curve" smooth="yes"/>
      <point x="177" y="281"/>
      <point x="56" y="248"/>
      <point x="56" y="143" type="curve" smooth="yes"/>
      <point x="56" y="24"/>
      <point x="177" y="5"/>
    </contour>
    <contour>
      <point x="369" y="355" type="curve" smooth="yes"/>
      <point x="255" y="355"/>
      <point x="163" y="446"/>
      <point x="163" y="560" type="curve" smooth="yes"/>
      <point x="163" y="673"/>
      <point x="255" y="765"/>
      <point x="369" y="765" type="curve" smooth="yes"/>
      <point x="482" y="765"/>
      <point x="574" y="673"/>
      <point x="574" y="560" type="curve" smooth="yes"/>
      <point x="574" y="446"/>
      <point x="482" y="355"/>
    </contour>
    <contour>
      <point x="369" y="381" type="curve" smooth="yes"/>
      <point x="468" y="381"/>
      <point x="549" y="462"/>
      <point x="549" y="561" type="curve" smooth="yes"/>
      <point x="549" y="660"/>
      <point x="468" y="741"/>
      <point x="369" y="741" type="curve" smooth="yes"/>
      <point x="269" y="741"/>
      <point x="188" y="660"/>
      <point x="188" y="561" type="curve" smooth="yes"/>
      <point x="188" y="462"/>
      <point x="269" y="381"/>
    </contour>
    <contour>
      <point x="633" y="655" type="curve" smooth="yes"/>
      <point x="613" y="655"/>
      <point x="598" y="670"/>
      <point x="598" y="690" type="curve" smooth="yes"/>
      <point x="598" y="707"/>
      <point x="613" y="723"/>
      <point x="633" y="723" type="curve" smooth="yes"/>
      <point x="650" y="723"/>
      <point x="666" y="707"/>
      <point x="666" y="690" type="curve" smooth="yes"/>
      <point x="666" y="670"/>
      <point x="650" y="655"/>
    </contour>
    <contour>
      <point x="497" y="692" type="line"/>
      <point x="503" y="733"/>
      <point x="539" y="766"/>
      <point x="581" y="766" type="curve" smooth="yes"/>
      <point x="625" y="766"/>
      <point x="660" y="733"/>
      <point x="666" y="692" type="curve"/>
      <point x="640" y="692" type="line"/>
      <point x="636" y="720"/>
      <point x="611" y="744"/>
      <point x="580" y="744" type="curve" smooth="yes"/>
      <point x="549" y="744"/>
      <point x="524" y="720"/>
      <point x="520" y="692" type="curve"/>
    </contour>
    <contour>
      <point x="559" y="232" type="curve"/>
      <point x="559" y="258" type="line"/>
      <point x="619" y="264"/>
      <point x="667" y="315"/>
      <point x="667" y="377" type="curve" smooth="yes"/>
      <point x="667" y="439"/>
      <point x="619" y="490"/>
      <point x="559" y="495" type="curve"/>
      <point x="559" y="519" type="line"/>
      <point x="632" y="513"/>
      <point x="690" y="451"/>
      <point x="690" y="376" type="curve" smooth="yes"/>
      <point x="690" y="301"/>
      <point x="632" y="239"/>
    </contour>
  </outline>
</glyph>
<glyph name="H" format="2">
  <advance width="643"/>
  <unicode hex="0048"/>
  <outline>
    <contour>
      <point x="498" y="0" type="line"/>
      <point x="593" y="0" type="line"/>
      <point x="593" y="750" type="line"/>
      <point x="498" y="750" type="line"/>
      <point x="498" y="482" type="line"/>
      <point x="146" y="482" type="line"/>
      <point x="146" y="749" type="line"/>
      <point x="50" y="749" type="line"/>
      <point x="50" y="1" type="line"/>
      <point x="146" y="1" type="line"/>
      <point x="146" y="379" type="line"/>
      <point x="498" y="379" type="line"/>
    </contour>
  </outline>
</glyph>
<glyph name="I" format="2">
  <advance width="649.4989875220837"/>
  <unicode hex="0049"/>
  <outline>
    <contour>
      <point x="163.70037368438187" y="780" type="curve"/>
      <point x="83.70037368438187" y="815"/>
      <point x="194.70037368438187" y="698"/>
      <point x="186.70037368438187" y="676" type="curve" smooth="yes"/>
      <point x="179.70037368438187" y="657"/>
      <point x="143.70037368438187" y="687"/>
      <point x="121.70037368438187" y="690" type="curve" smooth="yes"/>
      <point x="95.70037368438187" y="693"/>
      <point x="81.70037368438187" y="710"/>
      <point x="117.70037368438187" y="663" type="curve" smooth="yes"/>
      <point x="151.70037368438187" y="614"/>
      <point x="186.70037368438187" y="636"/>
      <point x="143.70037368438187" y="597" type="curve" smooth="yes"/>
      <point x="105.70037368438187" y="561"/>
      <point x="44.70037368438187" y="523"/>
      <point x="132.70037368438187" y="545" type="curve" smooth="yes"/>
      <point x="219.70037368438187" y="563"/>
      <point x="196.70037368438187" y="555"/>
      <point x="198.70037368438187" y="523" type="curve" smooth="yes"/>
      <point x="204.70037368438187" y="437"/>
      <point x="244.70037368438187" y="482"/>
      <point x="268.7003736843819" y="514" type="curve" smooth="yes"/>
      <point x="321.7003736843819" y="589"/>
      <point x="318.7003736843819" y="629"/>
      <point x="313.7003736843819" y="525" type="curve" smooth="yes"/>
      <point x="309.7003736843819" y="407"/>
      <point x="310.7003736843819" y="448"/>
      <point x="312.7003736843819" y="409" type="curve" smooth="yes"/>
      <point x="317.7003736843819" y="369"/>
      <point x="296.7003736843819" y="208"/>
      <point x="296.7003736843819" y="170" type="curve" smooth="yes"/>
      <point x="296.7003736843819" y="136"/>
      <point x="295.7003736843819" y="148"/>
      <point x="219.70037368438187" y="160" type="curve" smooth="yes"/>
      <point x="79.70037368438187" y="181"/>
      <point x="-15.29962631561813" y="146"/>
      <point x="65.70037368438187" y="144" type="curve" smooth="yes"/>
      <point x="349.7003736843819" y="133"/>
      <point x="-38.29962631561813" y="62"/>
      <point x="27.70037368438187" y="60" type="curve" smooth="yes"/>
      <point x="137.70037368438187" y="57"/>
      <point x="289.7003736843819" y="132"/>
      <point x="196.70037368438187" y="78" type="curve" smooth="yes"/>
      <point x="103.70037368438187" y="24"/>
      <point x="171.70037368438187" y="37"/>
      <point x="200.70037368438187" y="47" type="curve" smooth="yes"/>
      <point x="281.7003736843819" y="76"/>
      <point x="319.7003736843819" y="70"/>
      <point x="219.70037368438187" y="-60" type="curve" smooth="yes"/>
      <point x="190.70037368438187" y="-97"/>
      <point x="252.70037368438187" y="-27"/>
      <point x="355.7003736843819" y="7" type="curve"/>
      <point x="374.7003736843819" y="22"/>
      <point x="355.7003736843819" y="41"/>
      <point x="375.7003736843819" y="-36" type="curve" smooth="yes"/>
      <point x="396.7003736843819" y="-115"/>
      <point x="399.7003736843819" y="-137"/>
      <point x="408.7003736843819" y="-130" type="curve" smooth="yes"/>
      <point x="414.7003736843819" y="-121"/>
      <point x="389.7003736843819" y="-113"/>
      <point x="412.7003736843819" y="-47" type="curve" smooth="yes"/>
      <point x="433.7003736843819" y="19"/>
      <point x="383.7003736843819" y="87"/>
      <point x="448.7003736843819" y="35" type="curve" smooth="yes"/>
      <point x="513.7003736843818" y="-19"/>
      <point x="610.7003736843818" y="-131"/>
      <point x="587.7003736843818" y="-69" type="curve" smooth="yes"/>
      <point x="565.7003736843818" y="-9"/>
      <point x="536.7003736843818" y="31"/>
      <point x="496.7003736843819" y="54" type="curve" smooth="yes"/>
      <point x="333.7003736843819" y="146"/>
      <point x="618.7003736843818" y="102"/>
      <point x="627.7003736843818" y="109" type="curve" smooth="yes"/>
      <point x="642.7003736843818" y="119"/>
      <point x="563.7003736843818" y="109"/>
      <point x="533.7003736843818" y="125" type="curve" smooth="yes"/>
      <point x="426.7003736843819" y="181" type="line"/>
      <point x="416.7003736843819" y="261"/>
      <point x="434.7003736843819" y="329"/>
      <point x="414.7003736843819" y="436" type="curve"/>
      <point x="397.7003736843819" y="611"/>
      <point x="332.7003736843819" y="572"/>
      <point x="444.7003736843819" y="605" type="curve"/>
      <point x="480.7003736843819" y="616"/>
      <point x="498.7003736843819" y="614"/>
      <point x="536.7003736843818" y="618" type="curve" smooth="yes"/>
      <point x="566.7003736843818" y="618"/>
      <point x="549.7003736843818" y="618"/>
      <point x="527.7003736843818" y="637" type="curve" smooth="yes"/>
      <point x="503.7003736843819" y="657"/>
      <point x="479.7003736843819" y="653"/>
      <point x="519.7003736843818" y="665" type="curve" smooth="yes"/>
      <point x="559.7003736843818" y="676"/>
      <point x="671.7003736843818" y="665"/>
      <point x="570.7003736843818" y="690" type="curve" smooth="yes"/>
      <point x="466.7003736843819" y="716"/>
      <point x="442.7003736843819" y="653"/>
      <point x="452.7003736843819" y="726" type="curve" smooth="yes"/>
      <point x="460.7003736843819" y="800"/>
      <point x="525.7003736843818" y="900"/>
      <point x="456.7003736843819" y="830" type="curve" smooth="yes"/>
      <point x="267.7003736843819" y="634"/>
      <point x="318.7003736843819" y="931"/>
      <point x="281.7003736843819" y="762" type="curve" smooth="yes"/>
      <point x="259.7003736843819" y="665"/>
      <point x="268.7003736843819" y="714"/>
    </contour>
  </outline>
</glyph>
<glyph name="J" format="2">
  <advance width="820.4326942469211"/>
  <unicode hex="004A"/>
  <outline>
    <contour>
      <point x="66.45756943271356" y="699" type="curve" smooth="yes"/>
      <point x="23.45756943271355" y="785"/>
      <point x="892.4575694327135" y="776"/>
      <point x="780.4575694327135" y="652" type="curve"/>
      <point x="472.45756943271357" y="771"/>
      <point x="493.45756943271357" y="482"/>
      <point x="486.45756943271357" y="283" type="curve" smooth="yes"/>
      <point x="475.45756943271357" y="-37"/>
      <point x="-27.54243056728645" y="-137"/>
      <point x="35.457569432713555" y="216" type="curve" smooth="yes"/>
      <point x="67.45756943271356" y="398"/>
      <point x="73.45756943271356" y="212"/>
      <point x="87.45756943271356" y="112" type="curve" smooth="yes"/>
      <point x="108.45756943271356" y="-30"/>
      <point x="371.45756943271357" y="61"/>
      <point x="401.45756943271357" y="182" type="curve" smooth="yes"/>
      <point x="573.4575694327135" y="974"/>
      <point x="113.45756943271356" y="604"/>
    </contour>
  </outline>
</glyph>
<glyph name="K" format="2">
  <advance width="510.7108604798999"/>
  <unicode hex="004B"/>
  <outline>
    <contour>
      <point x="138.23553704893362" y="755" type="curve"/>
      <point x="111.23553704893362" y="730"/>
      <point x="90.23553704893362" y="726"/>
      <point x="75.23553704893362" y="723" type="curve" smooth="yes"/>
      <point x="52.23553704893363" y="718"/>
      <point x="44.23553704893363" y="717"/>
      <point x="55.23553704893363" y="641" type="curve" smooth="yes"/>
      <point x="74.23553704893362" y="516"/>
      <point x="47.23553704893363" y="23"/>
      <point x="50.23553704893363" y="6" type="curve" smooth="yes"/>
      <point x="53.23553704893363" y="-12"/>
      <point x="152.23553704893362" y="-13"/>
      <point x="202.23553704893362" y="9" type="curve" smooth="yes"/>
      <point x="213.23553704893362" y="14"/>
      <point x="226.23553704893362" y="17"/>
      <point x="238.23553704893362" y="20" type="curve" smooth="yes"/>
      <point x="278.2355370489336" y="32"/>
      <point x="313.2355370489336" y="41"/>
      <point x="269.2355370489336" y="104" type="curve" smooth="yes"/>
      <point x="231.23553704893362" y="157"/>
      <point x="157.23553704893362" y="218"/>
      <point x="173.23553704893362" y="296" type="curve" smooth="yes"/>
      <point x="180.23553704893362" y="334" type="line"/>
      <point x="177.23553704893362" y="341"/>
      <point x="187.23553704893362" y="540"/>
      <point x="182.23553704893362" y="598" type="curve" smooth="yes"/>
      <point x="177.23553704893362" y="668"/>
      <point x="162.23553704893362" y="720"/>
    </contour>
    <contour>
      <point x="365.2355370489336" y="765" type="curve"/>
      <point x="289.2355370489336" y="659"/>
      <point x="125.23553704893362" y="482"/>
      <point x="180.23553704893362" y="334" type="curve"/>
      <point x="212.23553704893362" y="276"/>
      <point x="243.23553704893362" y="208"/>
      <point x="278.2355370489336" y="154" type="curve" smooth="yes"/>
      <point x="316.2355370489336" y="95"/>
      <point x="328.2355370489336" y="69"/>
      <point x="334.2355370489336" y="64" type="curve" smooth="yes"/>
      <point x="385.2355370489336" y="12" type="line" smooth="yes"/>
      <point x="425.2355370489336" y="-29"/>
      <point x="497.2355370489336" y="68"/>
      <point x="490.2355370489336" y="119" type="curve"/>
      <point x="485.2355370489336" y="155"/>
      <point x="418.2355370489336" y="171"/>
      <point x="391.2355370489336" y="214" type="curve" smooth="yes"/>
      <point x="340.2355370489336" y="294"/>
      <point x="244.23553704893362" y="405"/>
      <point x="248.23553704893362" y="409" type="curve" smooth="yes"/>
      <point x="263.2355370489336" y="427"/>
      <point x="265.2355370489336" y="445"/>
      <point x="287.2355370489336" y="472" type="curve" smooth="yes"/>
      <point x="319.2355370489336" y="512"/>
      <point x="382.2355370489336" y="581"/>
      <point x="419.2355370489336" y="637" type="curve" smooth="yes"/>
      <point x="457.2355370489336" y="694"/>
      <point x="438.2355370489336" y="716"/>
    </contour>
  </outline>
</glyph>
<glyph name="L" format="2">
  <advance width="807"/>
  <unicode hex="004C"/>
  <outline>
    <contour>
      <point x="236" y="92" type="curve"/>
      <point x="253" y="123"/>
      <point x="269" y="155"/>
      <point x="286" y="186" type="curve"/>
      <point x="269" y="217"/>
      <point x="253" y="249"/>
      <point x="236" y="280" type="curve"/>
      <point x="253" y="311"/>
      <point x="269" y="343"/>
      <point x="286" y="374" type="curve"/>
      <point x="269" y="405"/>
      <point x="253" y="437"/>
      <point x="236" y="468" type="curve"/>
      <point x="253" y="499"/>
      <point x="269" y="531"/>
      <point x="286" y="562" type="curve"/>
      <point x="269" y="593"/>
      <point x="253" y="625"/>
      <point x="236" y="656" type="curve"/>
      <point x="253" y="687"/>
      <point x="269" y="719"/>
      <point x="286" y="750" type="curve"/>
      <point x="50" y="750" type="line"/>
      <point x="67" y="719"/>
      <point x="84" y="687"/>
      <point x="101" y="656" type="curve"/>
      <point x="84" y="625"/>
      <point x="67" y="593"/>
      <point x="50" y="562" type="curve"/>
      <point x="67" y="531"/>
      <point x="84" y="499"/>
      <point x="101" y="468" type="curve"/>
      <point x="84" y="437"/>
      <point x="67" y="405"/>
      <point x="50" y="374" type="curve"/>
      <point x="67" y="343"/>
      <point x="84" y="311"/>
      <point x="101" y="280" type="curve"/>
      <point x="84" y="249"/>
      <point x="67" y="217"/>
      <point x="50" y="186" type="curve"/>
      <point x="67" y="146"/>
      <point x="84" y="105"/>
      <point x="101" y="65" type="curve"/>
      <point x="84" y="44"/>
      <point x="67" y="22"/>
      <point x="50" y="1" type="curve"/>
      <point x="757" y="1" type="line"/>
      <point x="718" y="70"/>
      <point x="679" y="138"/>
      <point x="640" y="207" type="curve"/>
      <point x="482" y="153"/>
      <point x="385" y="123"/>
    </contour>
  </outline>
</glyph>
<glyph name="M" format="2">
  <advance width="655.6"/>
  <unicode hex="004D"/>
  <outline>
    <contour>
      <point x="227.6" y="30" type="qcurve"/>
      <point x="227.6" y="30" type="line"/>
      <point x="227.6" y="37"/>
      <point x="227.6" y="42"/>
      <point x="223.6" y="30" type="qcurve"/>
      <point x="223.6" y="39"/>
      <point x="233.6" y="48"/>
      <point x="235.6" y="48"/>
      <point x="214.6" y="39"/>
      <point x="183.6" y="30" type="qcurve"/>
      <point x="210.6" y="43"/>
      <point x="232.6" y="58"/>
      <point x="227.6" y="68"/>
      <point x="214.6" y="76"/>
      <point x="209.6" y="82" type="qcurve"/>
      <point x="215.6" y="76"/>
      <point x="217.6" y="79"/>
      <point x="214.6" y="85" type="qcurve"/>
      <point x="214.6" y="80"/>
      <point x="212.6" y="83"/>
      <point x="209.6" y="85" type="qcurve"/>
      <point x="207.6" y="88"/>
      <point x="207.6" y="88"/>
      <point x="207.6" y="88" type="qcurve"/>
      <point x="204.6" y="88"/>
      <point x="204.6" y="88"/>
      <point x="207.6" y="85" type="qcurve"/>
      <point x="201.6" y="88"/>
      <point x="200.6" y="86"/>
      <point x="204.6" y="74" type="qcurve"/>
      <point x="196.6" y="86"/>
      <point x="187.6" y="82"/>
      <point x="187.6" y="55" type="qcurve"/>
      <point x="180.6" y="72"/>
      <point x="172.6" y="83"/>
      <point x="149.6" y="77"/>
      <point x="115.6" y="66" type="qcurve"/>
      <point x="140.6" y="83"/>
      <point x="134.6" y="83"/>
      <point x="94.6" y="77" type="qcurve"/>
      <point x="111.6" y="80"/>
      <point x="103.6" y="79"/>
      <point x="94.6" y="79" type="qcurve"/>
      <point x="91.6" y="77"/>
      <point x="71.6" y="77"/>
      <point x="71.6" y="74" type="qcurve"/>
      <point x="66.6" y="74"/>
      <point x="62.6" y="71"/>
      <point x="51.6" y="71" type="qcurve"/>
      <point x="48.6" y="69"/>
      <point x="41.6" y="68"/>
      <point x="33.6" y="68"/>
      <point x="27.6" y="69"/>
      <point x="27.6" y="71" type="qcurve"/>
      <point x="23.6" y="66"/>
      <point x="19.6" y="62"/>
      <point x="20.6" y="60"/>
      <point x="27.6" y="62"/>
      <point x="41.6" y="66"/>
      <point x="51.6" y="71" type="qcurve"/>
      <point x="36.6" y="62"/>
      <point x="51.6" y="50"/>
      <point x="97.6" y="43"/>
      <point x="149.6" y="43"/>
      <point x="168.6" y="45" type="qcurve"/>
      <point x="149.6" y="40"/>
      <point x="97.6" y="34"/>
      <point x="57.6" y="26"/>
      <point x="47.6" y="19"/>
      <point x="71.6" y="10" type="qcurve"/>
      <point x="54.6" y="14"/>
      <point x="33.6" y="17"/>
      <point x="22.6" y="17"/>
      <point x="19.6" y="16"/>
      <point x="23.6" y="10"/>
      <point x="27.6" y="7" type="qcurve"/>
      <point x="27.6" y="8"/>
      <point x="33.6" y="8"/>
      <point x="41.6" y="7"/>
      <point x="48.6" y="5"/>
      <point x="51.6" y="4" type="qcurve"/>
      <point x="62.6" y="1"/>
      <point x="77.6" y="-1"/>
      <point x="94.6" y="-4" type="qcurve" smooth="yes"/>
      <point x="103.6" y="-6"/>
      <point x="128.6" y="-10"/>
      <point x="128.6" y="-10" type="qcurve"/>
      <point x="143.6" y="-10"/>
      <point x="161.6" y="-12"/>
      <point x="155.6" y="-9"/>
      <point x="128.6" y="-4" type="qcurve"/>
      <point x="161.6" y="-9"/>
      <point x="190.6" y="-12"/>
      <point x="192.6" y="-7"/>
      <point x="184.6" y="7"/>
      <point x="183.6" y="22" type="qcurve"/>
      <point x="192.6" y="2"/>
      <point x="200.6" y="-10"/>
      <point x="204.6" y="-7"/>
      <point x="209.6" y="-1" type="qcurve"/>
      <point x="206.6" y="-12"/>
      <point x="209.6" y="-12"/>
      <point x="214.6" y="-10" type="qcurve"/>
      <point x="214.6" y="-10"/>
      <point x="214.6" y="-6"/>
      <point x="215.6" y="-4" type="qcurve"/>
      <point x="217.6" y="-1"/>
      <point x="220.6" y="5"/>
      <point x="223.6" y="12"/>
      <point x="224.6" y="22"/>
      <point x="224.6" y="26" type="qcurve"/>
      <point x="227.6" y="30"/>
      <point x="227.6" y="33"/>
    </contour>
    <contour>
      <point x="233.6" y="126" type="qcurve"/>
      <point x="233.6" y="126" type="line"/>
      <point x="233.6" y="134"/>
      <point x="232.6" y="135"/>
      <point x="230.6" y="123" type="qcurve"/>
      <point x="232.6" y="143"/>
      <point x="223.6" y="146"/>
      <point x="198.6" y="123" type="qcurve"/>
      <point x="214.6" y="143"/>
      <point x="212.6" y="160"/>
      <point x="198.6" y="171"/>
      <point x="193.6" y="177" type="qcurve"/>
      <point x="198.6" y="171"/>
      <point x="198.6" y="174"/>
      <point x="195.6" y="180" type="qcurve"/>
      <point x="198.6" y="178"/>
      <point x="195.6" y="180"/>
      <point x="193.6" y="180" type="qcurve"/>
      <point x="192.6" y="181"/>
      <point x="190.6" y="181"/>
      <point x="190.6" y="181" type="qcurve"/>
      <point x="189.6" y="181"/>
      <point x="189.6" y="183"/>
      <point x="190.6" y="180" type="qcurve"/>
      <point x="187.6" y="183"/>
      <point x="206.6" y="180"/>
      <point x="214.6" y="167" type="qcurve"/>
      <point x="206.6" y="180"/>
      <point x="198.6" y="175"/>
      <point x="198.6" y="149" type="qcurve"/>
      <point x="198.6" y="166"/>
      <point x="190.6" y="177"/>
      <point x="177.6" y="172"/>
      <point x="168.6" y="163" type="qcurve"/>
      <point x="178.6" y="177"/>
      <point x="172.6" y="178"/>
      <point x="141.6" y="174" type="qcurve"/>
      <point x="158.6" y="177"/>
      <point x="158.6" y="177"/>
      <point x="141.6" y="174" type="qcurve"/>
      <point x="141.6" y="174"/>
      <point x="136.6" y="171"/>
      <point x="128.6" y="171" type="qcurve"/>
      <point x="128.6" y="169"/>
      <point x="115.6" y="166"/>
      <point x="115.6" y="166" type="qcurve"/>
      <point x="100.6" y="164"/>
      <point x="91.6" y="161"/>
      <point x="94.6" y="166" type="qcurve"/>
      <point x="77.6" y="155"/>
      <point x="77.6" y="154"/>
      <point x="115.6" y="166" type="qcurve"/>
      <point x="97.6" y="158"/>
      <point x="90.6" y="149"/>
      <point x="105.6" y="143"/>
      <point x="132.6" y="139"/>
      <point x="168.6" y="139"/>
      <point x="183.6" y="140" type="qcurve"/>
      <point x="168.6" y="137"/>
      <point x="134.6" y="131"/>
      <point x="106.6" y="125"/>
      <point x="93.6" y="118"/>
      <point x="106.6" y="111"/>
      <point x="128.6" y="104" type="qcurve"/>
      <point x="80.6" y="112"/>
      <point x="77.6" y="111"/>
      <point x="94.6" y="104" type="qcurve"/>
      <point x="91.6" y="104"/>
      <point x="100.6" y="101"/>
      <point x="115.6" y="100" type="qcurve"/>
      <point x="125.6" y="97"/>
      <point x="144.6" y="93"/>
      <point x="147.6" y="89" type="qcurve"/>
      <point x="168.6" y="88"/>
      <point x="172.6" y="88"/>
      <point x="174.6" y="88" type="qcurve"/>
      <point x="180.6" y="83"/>
      <point x="184.6" y="83"/>
      <point x="174.6" y="89" type="qcurve"/>
      <point x="192.6" y="82"/>
      <point x="200.6" y="88"/>
      <point x="198.6" y="115" type="qcurve"/>
      <point x="203.6" y="88"/>
      <point x="210.6" y="83"/>
      <point x="217.6" y="96" type="qcurve"/>
      <point x="215.6" y="85"/>
      <point x="215.6" y="83"/>
      <point x="217.6" y="88" type="qcurve"/>
      <point x="217.6" y="88"/>
      <point x="221.6" y="88"/>
      <point x="223.6" y="89" type="qcurve"/>
      <point x="227.6" y="97"/>
      <point x="232.6" y="111"/>
      <point x="232.6" y="121" type="qcurve" smooth="yes"/>
      <point x="232.6" y="123"/>
      <point x="233.6" y="129"/>
    </contour>
    <contour>
      <point x="206.6" y="224" type="qcurve"/>
      <point x="206.6" y="224" type="line"/>
      <point x="206.6" y="235"/>
      <point x="206.6" y="238"/>
      <point x="203.6" y="224" type="qcurve"/>
      <point x="204.6" y="242"/>
      <point x="200.6" y="245"/>
      <point x="177.6" y="224" type="qcurve"/>
      <point x="200.6" y="252"/>
      <point x="223.6" y="266"/>
      <point x="215.6" y="277" type="qcurve"/>
      <point x="221.6" y="271"/>
      <point x="221.6" y="274"/>
      <point x="217.6" y="281" type="qcurve"/>
      <point x="217.6" y="276"/>
      <point x="217.6" y="279"/>
      <point x="215.6" y="281" type="qcurve"/>
      <point x="214.6" y="281"/>
      <point x="214.6" y="282"/>
      <point x="214.6" y="282" type="qcurve"/>
      <point x="210.6" y="285"/>
      <point x="209.6" y="284"/>
      <point x="214.6" y="281" type="qcurve"/>
      <point x="207.6" y="284"/>
      <point x="204.6" y="282"/>
      <point x="209.6" y="269" type="qcurve"/>
      <point x="201.6" y="282"/>
      <point x="198.6" y="276"/>
      <point x="198.6" y="249" type="qcurve"/>
      <point x="196.6" y="267"/>
      <point x="189.6" y="281"/>
      <point x="177.6" y="273"/>
      <point x="168.6" y="259" type="qcurve"/>
      <point x="172.6" y="271"/>
      <point x="180.6" y="277"/>
      <point x="171.6" y="276"/>
      <point x="147.6" y="271" type="qcurve"/>
      <point x="161.6" y="274"/>
      <point x="158.6" y="276"/>
      <point x="146.6" y="274"/>
      <point x="143.6" y="274" type="qcurve"/>
      <point x="131.6" y="273"/>
      <point x="125.6" y="271"/>
      <point x="115.6" y="269" type="qcurve"/>
      <point x="115.6" y="269"/>
      <point x="103.6" y="269"/>
      <point x="94.6" y="269" type="qcurve"/>
      <point x="91.6" y="264"/>
      <point x="71.6" y="263"/>
      <point x="71.6" y="269" type="qcurve"/>
      <point x="68.6" y="261"/>
      <point x="63.6" y="253"/>
      <point x="74.6" y="258"/>
      <point x="94.6" y="266" type="qcurve"/>
      <point x="82.6" y="258"/>
      <point x="83.6" y="249"/>
      <point x="103.6" y="242"/>
      <point x="132.6" y="239"/>
      <point x="168.6" y="238"/>
      <point x="183.6" y="238" type="qcurve"/>
      <point x="168.6" y="235"/>
      <point x="132.6" y="230"/>
      <point x="105.6" y="224"/>
      <point x="90.6" y="218"/>
      <point x="97.6" y="210"/>
      <point x="115.6" y="204" type="qcurve"/>
      <point x="83.6" y="210"/>
      <point x="65.6" y="212"/>
      <point x="68.6" y="209"/>
      <point x="71.6" y="203" type="qcurve"/>
      <point x="71.6" y="204"/>
      <point x="91.6" y="203"/>
      <point x="94.6" y="199" type="qcurve"/>
      <point x="111.6" y="198"/>
      <point x="131.6" y="192"/>
      <point x="140.6" y="192" type="qcurve"/>
      <point x="141.6" y="190"/>
      <point x="158.6" y="189"/>
      <point x="160.6" y="186" type="qcurve"/>
      <point x="163.6" y="183"/>
      <point x="168.6" y="183"/>
      <point x="160.6" y="189" type="qcurve"/>
      <point x="169.6" y="186"/>
      <point x="178.6" y="183"/>
      <point x="183.6" y="198"/>
      <point x="183.6" y="213" type="qcurve"/>
      <point x="186.6" y="189"/>
      <point x="187.6" y="186"/>
      <point x="193.6" y="196" type="qcurve"/>
      <point x="190.6" y="186"/>
      <point x="192.6" y="183"/>
      <point x="195.6" y="186" type="qcurve"/>
      <point x="195.6" y="189"/>
      <point x="198.6" y="192" type="qcurve"/>
      <point x="201.6" y="198"/>
      <point x="203.6" y="210"/>
      <point x="204.6" y="221" type="qcurve"/>
      <point x="206.6" y="224"/>
      <point x="206.6" y="226"/>
    </contour>
    <contour>
      <point x="238.6" y="322" type="qcurve"/>
      <point x="238.6" y="322" type="line"/>
      <point x="238.6" y="330"/>
      <point x="238.6" y="331"/>
      <point x="235.6" y="319" type="qcurve"/>
      <point x="236.6" y="337"/>
      <point x="227.6" y="341"/>
      <point x="203.6" y="322" type="qcurve"/>
      <point x="218.6" y="341"/>
      <point x="250.6" y="356"/>
      <point x="263.6" y="366"/>
      <point x="250.6" y="373" type="qcurve"/>
      <point x="263.6" y="366"/>
      <point x="264.6" y="368"/>
      <point x="256.6" y="374" type="qcurve"/>
      <point x="258.6" y="373"/>
      <point x="256.6" y="374"/>
      <point x="253.6" y="374" type="qcurve" smooth="yes"/>
      <point x="252.6" y="374"/>
      <point x="242.6" y="377"/>
      <point x="242.6" y="377" type="qcurve"/>
      <point x="239.6" y="377"/>
      <point x="236.6" y="382"/>
      <point x="242.6" y="374" type="qcurve"/>
      <point x="236.6" y="382"/>
      <point x="230.6" y="379"/>
      <point x="242.6" y="363" type="qcurve"/>
      <point x="227.6" y="379"/>
      <point x="215.6" y="374"/>
      <point x="215.6" y="347" type="qcurve"/>
      <point x="210.6" y="369"/>
      <point x="187.6" y="373"/>
      <point x="155.6" y="359" type="qcurve"/>
      <point x="169.6" y="366"/>
      <point x="172.6" y="373"/>
      <point x="158.6" y="373"/>
      <point x="141.6" y="369" type="qcurve"/>
      <point x="152.6" y="373"/>
      <point x="152.6" y="373"/>
      <point x="140.6" y="369" type="qcurve"/>
      <point x="140.6" y="369"/>
      <point x="131.6" y="366"/>
      <point x="123.6" y="363" type="qcurve"/>
      <point x="123.6" y="363"/>
      <point x="126.6" y="363"/>
      <point x="119.6" y="363"/>
      <point x="98.6" y="363" type="qcurve"/>
      <point x="88.6" y="362"/>
      <point x="63.6" y="360"/>
      <point x="55.6" y="362"/>
      <point x="71.6" y="363" type="qcurve"/>
      <point x="27.6" y="351"/>
      <point x="33.6" y="348"/>
      <point x="98.6" y="362" type="qcurve"/>
      <point x="59.6" y="353"/>
      <point x="47.6" y="344"/>
      <point x="80.6" y="337"/>
      <point x="136.6" y="334"/>
      <point x="189.6" y="334"/>
      <point x="203.6" y="336" type="qcurve"/>
      <point x="186.6" y="331"/>
      <point x="164.6" y="325"/>
      <point x="155.6" y="319"/>
      <point x="160.6" y="307"/>
      <point x="168.6" y="299" type="qcurve"/>
      <point x="160.6" y="307"/>
      <point x="137.6" y="310"/>
      <point x="129.6" y="305"/>
      <point x="143.6" y="299" type="qcurve"/>
      <point x="131.6" y="299"/>
      <point x="149.6" y="296"/>
      <point x="155.6" y="296" type="qcurve"/>
      <point x="169.6" y="293"/>
      <point x="172.6" y="288"/>
      <point x="174.6" y="285" type="qcurve"/>
      <point x="187.6" y="285"/>
      <point x="187.6" y="281" type="qcurve"/>
      <point x="193.6" y="279"/>
      <point x="198.6" y="279"/>
      <point x="187.6" y="285" type="qcurve"/>
      <point x="207.6" y="277"/>
      <point x="204.6" y="284"/>
      <point x="203.6" y="310" type="qcurve"/>
      <point x="207.6" y="284"/>
      <point x="217.6" y="279"/>
      <point x="223.6" y="291" type="qcurve"/>
      <point x="218.6" y="281"/>
      <point x="220.6" y="279"/>
      <point x="223.6" y="281" type="qcurve"/>
      <point x="223.6" y="282"/>
      <point x="224.6" y="285"/>
      <point x="227.6" y="285" type="qcurve"/>
      <point x="235.6" y="298"/>
      <point x="236.6" y="316" type="qcurve"/>
      <point x="238.6" y="320"/>
      <point x="238.6" y="325"/>
    </contour>
    <contour>
      <point x="249.6" y="419" type="qcurve"/>
      <point x="249.6" y="419" type="line"/>
      <point x="249.6" y="426"/>
      <point x="247.6" y="428"/>
      <point x="242.6" y="414" type="qcurve"/>
      <point x="246.6" y="432"/>
      <point x="238.6" y="436"/>
      <point x="212.6" y="414" type="qcurve"/>
      <point x="235.6" y="440"/>
      <point x="238.6" y="457"/>
      <point x="229.6" y="469" type="qcurve"/>
      <point x="236.6" y="463"/>
      <point x="235.6" y="464"/>
      <point x="232.6" y="472" type="qcurve"/>
      <point x="235.6" y="471"/>
      <point x="232.6" y="471"/>
      <point x="230.6" y="472" type="qcurve"/>
      <point x="229.6" y="472"/>
      <point x="227.6" y="472"/>
      <point x="227.6" y="472" type="qcurve"/>
      <point x="224.6" y="474"/>
      <point x="223.6" y="474"/>
      <point x="227.6" y="472" type="qcurve"/>
      <point x="220.6" y="474"/>
      <point x="218.6" y="471"/>
      <point x="224.6" y="461" type="qcurve"/>
      <point x="217.6" y="471"/>
      <point x="212.6" y="466"/>
      <point x="214.6" y="439" type="qcurve"/>
      <point x="209.6" y="466"/>
      <point x="206.6" y="469"/>
      <point x="174.6" y="452" type="qcurve"/>
      <point x="192.6" y="468"/>
      <point x="189.6" y="471"/>
      <point x="166.6" y="463" type="qcurve"/>
      <point x="172.6" y="468"/>
      <point x="166.6" y="468"/>
      <point x="164.6" y="463" type="qcurve"/>
      <point x="158.6" y="463"/>
      <point x="152.6" y="461"/>
      <point x="141.6" y="461" type="qcurve" smooth="yes"/>
      <point x="140.6" y="461"/>
      <point x="140.6" y="458"/>
      <point x="140.6" y="458" type="qcurve"/>
      <point x="128.6" y="454"/>
      <point x="117.6" y="452"/>
      <point x="123.6" y="458" type="qcurve"/>
      <point x="112.6" y="447"/>
      <point x="115.6" y="444"/>
      <point x="140.6" y="458" type="qcurve"/>
      <point x="123.6" y="449"/>
      <point x="134.6" y="437"/>
      <point x="164.6" y="431"/>
      <point x="198.6" y="431"/>
      <point x="206.6" y="432" type="qcurve"/>
      <point x="198.6" y="428"/>
      <point x="164.6" y="420"/>
      <point x="134.6" y="412"/>
      <point x="125.6" y="403"/>
      <point x="141.6" y="396" type="qcurve"/>
      <point x="115.6" y="405"/>
      <point x="112.6" y="403"/>
      <point x="123.6" y="394" type="qcurve"/>
      <point x="117.6" y="396"/>
      <point x="128.6" y="393"/>
      <point x="140.6" y="388" type="qcurve"/>
      <point x="140.6" y="386"/>
      <point x="149.6" y="385"/>
      <point x="160.6" y="385"/>
      <point x="164.6" y="383" type="qcurve"/>
      <point x="166.6" y="379"/>
      <point x="183.6" y="377"/>
      <point x="183.6" y="377" type="qcurve"/>
      <point x="195.6" y="376"/>
      <point x="209.6" y="376"/>
      <point x="183.6" y="383" type="qcurve"/>
      <point x="207.6" y="379"/>
      <point x="223.6" y="376"/>
      <point x="221.6" y="380"/>
      <point x="212.6" y="394"/>
      <point x="212.6" y="408" type="qcurve"/>
      <point x="215.6" y="394"/>
      <point x="223.6" y="380"/>
      <point x="238.6" y="377"/>
      <point x="255.6" y="380"/>
      <point x="264.6" y="385" type="qcurve"/>
      <point x="253.6" y="376"/>
      <point x="258.6" y="376"/>
      <point x="264.6" y="377" type="qcurve"/>
      <point x="264.6" y="377"/>
      <point x="270.6" y="379"/>
      <point x="271.6" y="383" type="qcurve"/>
      <point x="274.6" y="385"/>
      <point x="267.6" y="391"/>
      <point x="255.6" y="397"/>
      <point x="246.6" y="406"/>
      <point x="246.6" y="411" type="qcurve"/>
      <point x="249.6" y="414"/>
      <point x="249.6" y="419"/>
    </contour>
    <contour>
      <point x="253.6" y="510" type="qcurve"/>
      <point x="253.6" y="510" type="line"/>
      <point x="253.6" y="518"/>
      <point x="252.6" y="524"/>
      <point x="249.6" y="510" type="qcurve"/>
      <point x="252.6" y="529"/>
      <point x="242.6" y="533"/>
      <point x="217.6" y="510" type="qcurve"/>
      <point x="241.6" y="538"/>
      <point x="246.6" y="552"/>
      <point x="236.6" y="566" type="qcurve"/>
      <point x="244.6" y="558"/>
      <point x="244.6" y="560"/>
      <point x="239.6" y="566" type="qcurve"/>
      <point x="239.6" y="563"/>
      <point x="238.6" y="566"/>
      <point x="236.6" y="566" type="qcurve"/>
      <point x="235.6" y="569"/>
      <point x="235.6" y="569"/>
      <point x="235.6" y="569" type="qcurve"/>
      <point x="232.6" y="569"/>
      <point x="230.6" y="570"/>
      <point x="235.6" y="566" type="qcurve"/>
      <point x="229.6" y="570"/>
      <point x="224.6" y="567"/>
      <point x="232.6" y="555" type="qcurve"/>
      <point x="224.6" y="567"/>
      <point x="218.6" y="563"/>
      <point x="218.6" y="536" type="qcurve"/>
      <point x="217.6" y="561"/>
      <point x="212.6" y="564"/>
      <point x="207.6" y="547" type="qcurve"/>
      <point x="210.6" y="564"/>
      <point x="209.6" y="564"/>
      <point x="198.6" y="558" type="qcurve"/>
      <point x="206.6" y="564"/>
      <point x="204.6" y="561"/>
      <point x="198.6" y="561" type="qcurve"/>
      <point x="198.6" y="560"/>
      <point x="189.6" y="558"/>
      <point x="183.6" y="558" type="qcurve"/>
      <point x="183.6" y="556"/>
      <point x="174.6" y="555"/>
      <point x="174.6" y="555" type="qcurve"/>
      <point x="171.6" y="552"/>
      <point x="161.6" y="549"/>
      <point x="160.6" y="552"/>
      <point x="164.6" y="555" type="qcurve"/>
      <point x="154.6" y="547"/>
      <point x="146.6" y="541"/>
      <point x="157.6" y="546"/>
      <point x="174.6" y="555" type="qcurve"/>
      <point x="163.6" y="547"/>
      <point x="161.6" y="536"/>
      <point x="171.6" y="528"/>
      <point x="189.6" y="524"/>
      <point x="206.6" y="523"/>
      <point x="212.6" y="524" type="qcurve"/>
      <point x="203.6" y="521"/>
      <point x="171.6" y="514"/>
      <point x="161.6" y="503"/>
      <point x="183.6" y="495" type="qcurve"/>
      <point x="151.6" y="503"/>
      <point x="147.6" y="498"/>
      <point x="164.6" y="492" type="qcurve"/>
      <point x="158.6" y="495"/>
      <point x="168.6" y="489"/>
      <point x="174.6" y="485" type="qcurve"/>
      <point x="180.6" y="483"/>
      <point x="198.6" y="480"/>
      <point x="198.6" y="480" type="qcurve"/>
      <point x="204.6" y="475"/>
      <point x="207.6" y="472"/>
      <point x="207.6" y="472" type="qcurve"/>
      <point x="210.6" y="471"/>
      <point x="212.6" y="471"/>
      <point x="207.6" y="474" type="qcurve"/>
      <point x="215.6" y="471"/>
      <point x="218.6" y="472"/>
      <point x="218.6" y="500" type="qcurve"/>
      <point x="223.6" y="472"/>
      <point x="232.6" y="472"/>
      <point x="238.6" y="483" type="qcurve"/>
      <point x="229.6" y="463"/>
      <point x="238.6" y="472" type="qcurve"/>
      <point x="238.6" y="472"/>
      <point x="239.6" y="475"/>
      <point x="241.6" y="480" type="qcurve"/>
      <point x="247.6" y="483"/>
      <point x="252.6" y="498"/>
      <point x="253.6" y="507" type="qcurve"/>
      <point x="253.6" y="510"/>
      <point x="253.6" y="515"/>
    </contour>
    <contour>
      <point x="253.6" y="610" type="qcurve"/>
      <point x="253.6" y="610" type="line"/>
      <point x="253.6" y="619"/>
      <point x="250.6" y="624"/>
      <point x="249.6" y="609" type="qcurve"/>
      <point x="250.6" y="627"/>
      <point x="241.6" y="633"/>
      <point x="217.6" y="610" type="qcurve"/>
      <point x="241.6" y="636"/>
      <point x="246.6" y="651"/>
      <point x="235.6" y="665" type="qcurve"/>
      <point x="242.6" y="658"/>
      <point x="241.6" y="660"/>
      <point x="238.6" y="666" type="qcurve"/>
      <point x="239.6" y="663"/>
      <point x="236.6" y="666"/>
      <point x="235.6" y="666" type="qcurve"/>
      <point x="235.6" y="666"/>
      <point x="232.6" y="670"/>
      <point x="232.6" y="670" type="qcurve"/>
      <point x="230.6" y="670"/>
      <point x="230.6" y="670"/>
      <point x="232.6" y="666" type="qcurve"/>
      <point x="227.6" y="670"/>
      <point x="224.6" y="666"/>
      <point x="232.6" y="655" type="qcurve"/>
      <point x="221.6" y="666"/>
      <point x="217.6" y="662"/>
      <point x="218.6" y="636" type="qcurve"/>
      <point x="215.6" y="662"/>
      <point x="210.6" y="665"/>
      <point x="206.6" y="647" type="qcurve"/>
      <point x="207.6" y="662"/>
      <point x="206.6" y="665"/>
      <point x="198.6" y="658" type="qcurve"/>
      <point x="203.6" y="662"/>
      <point x="201.6" y="663"/>
      <point x="198.6" y="660"/>
      <point x="198.6" y="658" type="qcurve"/>
      <point x="195.6" y="658"/>
      <point x="180.6" y="658"/>
      <point x="174.6" y="655" type="qcurve"/>
      <point x="174.6" y="655"/>
      <point x="166.6" y="655"/>
      <point x="166.6" y="655" type="qcurve"/>
      <point x="158.6" y="648"/>
      <point x="155.6" y="647"/>
      <point x="155.6" y="655" type="qcurve"/>
      <point x="144.6" y="644"/>
      <point x="146.6" y="638"/>
      <point x="166.6" y="653" type="qcurve"/>
      <point x="157.6" y="645"/>
      <point x="155.6" y="634"/>
      <point x="168.6" y="628"/>
      <point x="186.6" y="625"/>
      <point x="204.6" y="624"/>
      <point x="210.6" y="625" type="qcurve"/>
      <point x="204.6" y="624"/>
      <point x="186.6" y="619"/>
      <point x="168.6" y="612"/>
      <point x="158.6" y="606"/>
      <point x="161.6" y="598"/>
      <point x="174.6" y="592" type="qcurve"/>
      <point x="149.6" y="602"/>
      <point x="144.6" y="596"/>
      <point x="155.6" y="592" type="qcurve"/>
      <point x="155.6" y="592"/>
      <point x="158.6" y="587"/>
      <point x="166.6" y="587" type="qcurve"/>
      <point x="171.6" y="585"/>
      <point x="184.6" y="582"/>
      <point x="196.6" y="579"/>
      <point x="198.6" y="578" type="qcurve"/>
      <point x="198.6" y="576"/>
      <point x="203.6" y="572"/>
      <point x="207.6" y="572"/>
      <point x="207.6" y="572" type="qcurve"/>
      <point x="207.6" y="570"/>
      <point x="210.6" y="570"/>
      <point x="207.6" y="576" type="qcurve"/>
      <point x="215.6" y="569"/>
      <point x="218.6" y="575"/>
      <point x="217.6" y="599" type="qcurve"/>
      <point x="221.6" y="575"/>
      <point x="229.6" y="570"/>
      <point x="236.6" y="584" type="qcurve"/>
      <point x="233.6" y="572"/>
      <point x="235.6" y="570"/>
      <point x="236.6" y="572" type="qcurve"/>
      <point x="236.6" y="572"/>
      <point x="239.6" y="575"/>
      <point x="239.6" y="578" type="qcurve"/>
      <point x="247.6" y="582"/>
      <point x="249.6" y="598"/>
      <point x="250.6" y="609" type="qcurve"/>
      <point x="250.6" y="610"/>
      <point x="253.6" y="615"/>
    </contour>
    <contour>
      <point x="258.6" y="709" type="qcurve"/>
      <point x="258.6" y="709" type="line"/>
      <point x="258.6" y="717"/>
      <point x="258.6" y="719"/>
      <point x="256.6" y="706" type="qcurve"/>
      <point x="258.6" y="725"/>
      <point x="249.6" y="728"/>
      <point x="223.6" y="706" type="qcurve"/>
      <point x="247.6" y="733"/>
      <point x="250.6" y="749"/>
      <point x="241.6" y="758" type="qcurve"/>
      <point x="250.6" y="749"/>
      <point x="246.6" y="762" type="qcurve"/>
      <point x="246.6" y="760"/>
      <point x="244.6" y="762"/>
      <point x="241.6" y="762" type="qcurve" smooth="yes"/>
      <point x="239.6" y="762"/>
      <point x="239.6" y="765"/>
      <point x="239.6" y="765" type="qcurve"/>
      <point x="238.6" y="768"/>
      <point x="236.6" y="766"/>
      <point x="239.6" y="762" type="qcurve"/>
      <point x="233.6" y="766"/>
      <point x="232.6" y="763"/>
      <point x="238.6" y="751" type="qcurve"/>
      <point x="230.6" y="763"/>
      <point x="224.6" y="758"/>
      <point x="224.6" y="731" type="qcurve"/>
      <point x="224.6" y="739"/>
      <point x="227.6" y="751"/>
      <point x="229.6" y="757"/>
      <point x="230.6" y="760"/>
      <point x="230.6" y="760"/>
      <point x="223.6" y="755"/>
      <point x="210.6" y="748"/>
      <point x="201.6" y="742" type="qcurve"/>
      <point x="215.6" y="752"/>
      <point x="214.6" y="760"/>
      <point x="195.6" y="760"/>
      <point x="178.6" y="757" type="qcurve"/>
      <point x="190.6" y="758"/>
      <point x="193.6" y="758"/>
      <point x="186.6" y="758"/>
      <point x="178.6" y="757" type="qcurve"/>
      <point x="171.6" y="757"/>
      <point x="164.6" y="754"/>
      <point x="164.6" y="754" type="qcurve"/>
      <point x="158.6" y="752"/>
      <point x="154.6" y="751"/>
      <point x="143.6" y="751" type="qcurve"/>
      <point x="141.6" y="749"/>
      <point x="131.6" y="745"/>
      <point x="128.6" y="748"/>
      <point x="132.6" y="751" type="qcurve"/>
      <point x="115.6" y="739"/>
      <point x="117.6" y="736"/>
      <point x="143.6" y="748" type="qcurve"/>
      <point x="131.6" y="740"/>
      <point x="131.6" y="731"/>
      <point x="146.6" y="726"/>
      <point x="168.6" y="722"/>
      <point x="192.6" y="720"/>
      <point x="212.6" y="720"/>
      <point x="217.6" y="720" type="qcurve"/>
      <point x="203.6" y="712"/>
      <point x="201.6" y="701"/>
      <point x="207.6" y="687" type="qcurve"/>
      <point x="204.6" y="691"/>
      <point x="198.6" y="694"/>
      <point x="195.6" y="693"/>
      <point x="195.6" y="688"/>
      <point x="198.6" y="684" type="qcurve"/>
      <point x="195.6" y="687"/>
      <point x="200.6" y="684"/>
      <point x="201.6" y="680" type="qcurve"/>
      <point x="204.6" y="679"/>
      <point x="207.6" y="676"/>
      <point x="207.6" y="673" type="qcurve"/>
      <point x="210.6" y="671"/>
      <point x="212.6" y="670"/>
      <point x="214.6" y="666" type="qcurve"/>
      <point x="217.6" y="666"/>
      <point x="217.6" y="666"/>
      <point x="214.6" y="670" type="qcurve"/>
      <point x="221.6" y="663"/>
      <point x="224.6" y="670"/>
      <point x="223.6" y="694" type="qcurve"/>
      <point x="230.6" y="670"/>
      <point x="236.6" y="666"/>
      <point x="242.6" y="677" type="qcurve"/>
      <point x="239.6" y="668"/>
      <point x="241.6" y="666"/>
      <point x="246.6" y="666" type="qcurve"/>
      <point x="246.6" y="670"/>
      <point x="247.6" y="671"/>
      <point x="249.6" y="673" type="qcurve"/>
      <point x="252.6" y="679"/>
      <point x="256.6" y="694"/>
      <point x="258.6" y="703" type="qcurve"/>
      <point x="258.6" y="706"/>
      <point x="258.6" y="709"/>
    </contour>
    <contour>
      <point x="406.6" y="666" type="qcurve"/>
      <point x="406.6" y="666" type="line"/>
      <point x="408.6" y="658"/>
      <point x="408.6" y="658"/>
      <point x="408.6" y="670" type="qcurve"/>
      <point x="411.6" y="650"/>
      <point x="417.6" y="656"/>
      <point x="437.6" y="694" type="qcurve"/>
      <point x="429.6" y="677"/>
      <point x="451.6" y="655"/>
      <point x="489.6" y="642"/>
      <point x="525.6" y="636"/>
      <point x="546.6" y="633"/>
      <point x="538.6" y="631" type="qcurve"/>
      <point x="550.6" y="633"/>
      <point x="552.6" y="631"/>
      <point x="541.6" y="628" type="qcurve"/>
      <point x="544.6" y="631"/>
      <point x="541.6" y="631"/>
      <point x="541.6" y="631" type="qcurve"/>
      <point x="540.6" y="631"/>
      <point x="533.6" y="631"/>
      <point x="533.6" y="631" type="qcurve"/>
      <point x="530.6" y="631"/>
      <point x="529.6" y="631"/>
      <point x="535.6" y="631" type="qcurve"/>
      <point x="523.6" y="633"/>
      <point x="523.6" y="636"/>
      <point x="538.6" y="642" type="qcurve"/>
      <point x="525.6" y="639"/>
      <point x="480.6" y="642"/>
      <point x="444.6" y="656"/>
      <point x="440.6" y="670" type="qcurve"/>
      <point x="449.6" y="650"/>
      <point x="455.6" y="650"/>
      <point x="457.6" y="670" type="qcurve"/>
      <point x="457.6" y="653"/>
      <point x="458.6" y="655"/>
      <point x="463.6" y="662" type="qcurve"/>
      <point x="463.6" y="656"/>
      <point x="490.6" y="658"/>
      <point x="490.6" y="658" type="qcurve"/>
      <point x="490.6" y="663"/>
      <point x="472.6" y="668"/>
      <point x="472.6" y="670" type="qcurve"/>
      <point x="472.6" y="670"/>
      <point x="477.6" y="671"/>
      <point x="474.6" y="673" type="qcurve"/>
      <point x="474.6" y="676"/>
      <point x="480.6" y="682"/>
      <point x="482.6" y="676" type="qcurve"/>
      <point x="482.6" y="688"/>
      <point x="479.6" y="687"/>
      <point x="474.6" y="673" type="qcurve"/>
      <point x="474.6" y="694"/>
      <point x="465.6" y="701"/>
      <point x="448.6" y="684" type="qcurve"/>
      <point x="454.6" y="691"/>
      <point x="480.6" y="703"/>
      <point x="506.6" y="712"/>
      <point x="521.6" y="717"/>
      <point x="512.6" y="723"/>
      <point x="490.6" y="725" type="qcurve"/>
      <point x="521.6" y="723"/>
      <point x="541.6" y="723"/>
      <point x="532.6" y="728"/>
      <point x="517.6" y="731" type="qcurve"/>
      <point x="520.6" y="731"/>
      <point x="506.6" y="734"/>
      <point x="497.6" y="734" type="qcurve" smooth="yes"/>
      <point x="486.6" y="734"/>
      <point x="475.6" y="737"/>
      <point x="468.6" y="739" type="qcurve"/>
      <point x="458.6" y="739"/>
      <point x="452.6" y="739"/>
      <point x="452.6" y="739" type="qcurve"/>
      <point x="436.6" y="739"/>
      <point x="433.6" y="737"/>
      <point x="452.6" y="734" type="qcurve"/>
      <point x="422.6" y="734"/>
      <point x="428.6" y="728"/>
      <point x="434.6" y="706" type="qcurve"/>
      <point x="428.6" y="719"/>
      <point x="422.6" y="726"/>
      <point x="419.6" y="717"/>
      <point x="414.6" y="706" type="qcurve"/>
      <point x="417.6" y="720"/>
      <point x="414.6" y="719"/>
      <point x="411.6" y="714" type="qcurve"/>
      <point x="411.6" y="714"/>
      <point x="411.6" y="711"/>
      <point x="408.6" y="709" type="qcurve"/>
      <point x="406.6" y="697"/>
      <point x="405.6" y="680"/>
      <point x="406.6" y="670" type="qcurve"/>
      <point x="406.6" y="668"/>
      <point x="406.6" y="666"/>
    </contour>
    <contour>
      <point x="563.6" y="572" type="qcurve"/>
      <point x="563.6" y="572" type="line"/>
      <point x="561.6" y="564"/>
      <point x="557.6" y="563"/>
      <point x="560.6" y="578" type="qcurve"/>
      <point x="557.6" y="560"/>
      <point x="541.6" y="564"/>
      <point x="506.6" y="606" type="qcurve"/>
      <point x="520.6" y="582"/>
      <point x="503.6" y="556"/>
      <point x="465.6" y="546"/>
      <point x="437.6" y="541"/>
      <point x="443.6" y="539" type="qcurve"/>
      <point x="434.6" y="539"/>
      <point x="436.6" y="536"/>
      <point x="440.6" y="536" type="qcurve"/>
      <point x="439.6" y="536"/>
      <point x="440.6" y="536"/>
      <point x="443.6" y="536" type="qcurve" smooth="yes"/>
      <point x="444.6" y="536"/>
      <point x="448.6" y="536"/>
      <point x="448.6" y="536" type="qcurve"/>
      <point x="449.6" y="539"/>
      <point x="451.6" y="536"/>
      <point x="448.6" y="536" type="qcurve"/>
      <point x="454.6" y="539"/>
      <point x="454.6" y="544"/>
      <point x="444.6" y="550" type="qcurve"/>
      <point x="455.6" y="546"/>
      <point x="494.6" y="553"/>
      <point x="501.6" y="581" type="qcurve"/>
      <point x="489.6" y="558"/>
      <point x="474.6" y="560"/>
      <point x="477.6" y="578" type="qcurve"/>
      <point x="480.6" y="561"/>
      <point x="490.6" y="564"/>
      <point x="492.6" y="572" type="qcurve"/>
      <point x="495.6" y="566"/>
      <point x="495.6" y="569"/>
      <point x="504.6" y="569" type="qcurve"/>
      <point x="506.6" y="572"/>
      <point x="506.6" y="576"/>
      <point x="506.6" y="576" type="qcurve"/>
      <point x="506.6" y="578"/>
      <point x="514.6" y="584"/>
      <point x="514.6" y="584" type="qcurve"/>
      <point x="517.6" y="587"/>
      <point x="518.6" y="587"/>
      <point x="518.6" y="584" type="qcurve"/>
      <point x="518.6" y="595"/>
      <point x="517.6" y="598"/>
      <point x="514.6" y="584" type="qcurve"/>
      <point x="515.6" y="593"/>
      <point x="501.6" y="602"/>
      <point x="486.6" y="606"/>
      <point x="480.6" y="599"/>
      <point x="490.6" y="592" type="qcurve"/>
      <point x="471.6" y="613"/>
      <point x="469.6" y="625"/>
      <point x="483.6" y="631" type="qcurve"/>
      <point x="472.6" y="631"/>
      <point x="474.6" y="633"/>
      <point x="480.6" y="639" type="qcurve"/>
      <point x="480.6" y="639"/>
      <point x="483.6" y="642"/>
      <point x="483.6" y="642" type="qcurve"/>
      <point x="489.6" y="644"/>
      <point x="490.6" y="644"/>
      <point x="492.6" y="644" type="qcurve" smooth="yes"/>
      <point x="497.6" y="644"/>
      <point x="504.6" y="644"/>
      <point x="506.6" y="644" type="qcurve" smooth="yes"/>
      <point x="511.6" y="644"/>
      <point x="511.6" y="644"/>
      <point x="504.6" y="642" type="qcurve"/>
      <point x="517.6" y="644"/>
      <point x="523.6" y="634"/>
      <point x="512.6" y="610" type="qcurve"/>
      <point x="530.6" y="633"/>
      <point x="541.6" y="628"/>
      <point x="547.6" y="613" type="qcurve"/>
      <point x="543.6" y="627"/>
      <point x="547.6" y="627"/>
      <point x="552.6" y="620" type="qcurve"/>
      <point x="552.6" y="620"/>
      <point x="555.6" y="619"/>
      <point x="555.6" y="613" type="qcurve"/>
      <point x="561.6" y="606"/>
      <point x="566.6" y="588"/>
      <point x="563.6" y="578" type="qcurve"/>
      <point x="563.6" y="576"/>
      <point x="563.6" y="570"/>
    </contour>
    <contour>
      <point x="437.6" y="483" type="qcurve"/>
      <point x="437.6" y="483" type="line"/>
      <point x="439.6" y="475"/>
      <point x="440.6" y="474"/>
      <point x="440.6" y="485" type="qcurve"/>
      <point x="440.6" y="478"/>
      <point x="429.6" y="469"/>
      <point x="420.6" y="468"/>
      <point x="425.6" y="475"/>
      <point x="458.6" y="497"/>
      <point x="495.6" y="514" type="qcurve"/>
      <point x="463.6" y="495"/>
      <point x="434.6" y="471"/>
      <point x="431.6" y="457"/>
      <point x="443.6" y="451"/>
      <point x="458.6" y="449"/>
      <point x="463.6" y="447" type="qcurve"/>
      <point x="457.6" y="451"/>
      <point x="458.6" y="447"/>
      <point x="460.6" y="444" type="qcurve"/>
      <point x="460.6" y="447"/>
      <point x="462.6" y="444"/>
      <point x="463.6" y="444" type="qcurve"/>
      <point x="465.6" y="447"/>
      <point x="465.6" y="447"/>
      <point x="465.6" y="447" type="qcurve"/>
      <point x="469.6" y="447"/>
      <point x="471.6" y="447"/>
      <point x="468.6" y="447" type="qcurve"/>
      <point x="471.6" y="451"/>
      <point x="472.6" y="454"/>
      <point x="465.6" y="461" type="qcurve"/>
      <point x="477.6" y="455"/>
      <point x="479.6" y="463"/>
      <point x="472.6" y="485" type="qcurve"/>
      <point x="477.6" y="472"/>
      <point x="483.6" y="463"/>
      <point x="487.6" y="472"/>
      <point x="487.6" y="485" type="qcurve"/>
      <point x="487.6" y="469"/>
      <point x="490.6" y="468"/>
      <point x="492.6" y="480" type="qcurve"/>
      <point x="492.6" y="474"/>
      <point x="492.6" y="475"/>
      <point x="494.6" y="480" type="qcurve"/>
      <point x="325.6" y="303"/>
      <point x="495.6" y="483" type="qcurve"/>
      <point x="495.6" y="485"/>
      <point x="497.6" y="485"/>
      <point x="497.6" y="485" type="qcurve"/>
      <point x="497.6" y="493"/>
      <point x="509.6" y="495"/>
      <point x="512.6" y="489" type="qcurve"/>
      <point x="509.6" y="501"/>
      <point x="498.6" y="503"/>
      <point x="497.6" y="485" type="qcurve"/>
      <point x="497.6" y="495"/>
      <point x="520.6" y="507"/>
      <point x="549.6" y="515"/>
      <point x="567.6" y="515"/>
      <point x="561.6" y="509"/>
      <point x="538.6" y="503" type="qcurve"/>
      <point x="596.6" y="523"/>
      <point x="596.6" y="539"/>
      <point x="555.6" y="547" type="qcurve"/>
      <point x="576.6" y="544"/>
      <point x="587.6" y="546"/>
      <point x="579.6" y="550"/>
      <point x="569.6" y="553" type="qcurve"/>
      <point x="573.6" y="552"/>
      <point x="566.6" y="553"/>
      <point x="555.6" y="550" type="qcurve"/>
      <point x="546.6" y="553"/>
      <point x="532.6" y="556"/>
      <point x="521.6" y="558" type="qcurve"/>
      <point x="520.6" y="558"/>
      <point x="503.6" y="558"/>
      <point x="495.6" y="558" type="qcurve" smooth="yes"/>
      <point x="490.6" y="558"/>
      <point x="479.6" y="555"/>
      <point x="495.6" y="555" type="qcurve"/>
      <point x="469.6" y="555"/>
      <point x="455.6" y="549"/>
      <point x="468.6" y="535"/>
      <point x="480.6" y="518" type="qcurve"/>
      <point x="451.6" y="538"/>
      <point x="452.6" y="541"/>
      <point x="448.6" y="521" type="qcurve"/>
      <point x="448.6" y="535"/>
      <point x="446.6" y="535"/>
      <point x="443.6" y="529" type="qcurve"/>
      <point x="443.6" y="529"/>
      <point x="440.6" y="528"/>
      <point x="440.6" y="521" type="qcurve"/>
      <point x="439.6" y="514"/>
      <point x="437.6" y="493"/>
      <point x="437.6" y="485" type="qcurve" smooth="yes"/>
      <point x="437.6" y="483"/>
      <point x="437.6" y="482"/>
    </contour>
    <contour>
      <point x="449.6" y="388" type="qcurve"/>
      <point x="449.6" y="388" type="line"/>
      <point x="452.6" y="380"/>
      <point x="452.6" y="379"/>
      <point x="452.6" y="394" type="qcurve"/>
      <point x="454.6" y="382"/>
      <point x="448.6" y="374"/>
      <point x="457.6" y="393"/>
      <point x="482.6" y="419" type="qcurve"/>
      <point x="460.6" y="390"/>
      <point x="454.6" y="366"/>
      <point x="468.6" y="356"/>
      <point x="474.6" y="351" type="qcurve"/>
      <point x="468.6" y="356"/>
      <point x="466.6" y="351"/>
      <point x="472.6" y="348" type="qcurve"/>
      <point x="472.6" y="351"/>
      <point x="472.6" y="348"/>
      <point x="474.6" y="348" type="qcurve"/>
      <point x="475.6" y="351"/>
      <point x="480.6" y="351"/>
      <point x="480.6" y="351" type="qcurve"/>
      <point x="482.6" y="351"/>
      <point x="482.6" y="351"/>
      <point x="479.6" y="351" type="qcurve"/>
      <point x="483.6" y="351"/>
      <point x="487.6" y="360"/>
      <point x="475.6" y="366" type="qcurve"/>
      <point x="489.6" y="363"/>
      <point x="498.6" y="369"/>
      <point x="490.6" y="394" type="qcurve"/>
      <point x="503.6" y="371"/>
      <point x="511.6" y="374"/>
      <point x="517.6" y="394" type="qcurve"/>
      <point x="515.6" y="379"/>
      <point x="521.6" y="376"/>
      <point x="521.6" y="383" type="qcurve"/>
      <point x="521.6" y="379"/>
      <point x="523.6" y="379"/>
      <point x="529.6" y="385" type="qcurve"/>
      <point x="529.6" y="385"/>
      <point x="530.6" y="388"/>
      <point x="532.6" y="388" type="qcurve"/>
      <point x="532.6" y="394"/>
      <point x="535.6" y="391" type="qcurve"/>
      <point x="535.6" y="397"/>
      <point x="540.6" y="401"/>
      <point x="540.6" y="396" type="qcurve"/>
      <point x="540.6" y="408"/>
      <point x="535.6" y="409"/>
      <point x="535.6" y="396" type="qcurve"/>
      <point x="535.6" y="419"/>
      <point x="525.6" y="420"/>
      <point x="497.6" y="408" type="qcurve"/>
      <point x="507.6" y="415"/>
      <point x="538.6" y="428"/>
      <point x="564.6" y="436"/>
      <point x="578.6" y="442"/>
      <point x="561.6" y="447"/>
      <point x="535.6" y="451" type="qcurve"/>
      <point x="560.6" y="449"/>
      <point x="563.6" y="447"/>
      <point x="541.6" y="449"/>
      <point x="514.6" y="452"/>
      <point x="511.6" y="455" type="qcurve"/>
      <point x="511.6" y="454"/>
      <point x="498.6" y="458"/>
      <point x="495.6" y="455" type="qcurve"/>
      <point x="494.6" y="458"/>
      <point x="492.6" y="461"/>
      <point x="490.6" y="461" type="qcurve" smooth="yes"/>
      <point x="489.6" y="461"/>
      <point x="486.6" y="461"/>
      <point x="486.6" y="461" type="qcurve"/>
      <point x="482.6" y="461"/>
      <point x="479.6" y="461"/>
      <point x="486.6" y="458" type="qcurve"/>
      <point x="479.6" y="458"/>
      <point x="474.6" y="455"/>
      <point x="477.6" y="444"/>
      <point x="480.6" y="428" type="qcurve"/>
      <point x="472.6" y="440"/>
      <point x="466.6" y="447"/>
      <point x="462.6" y="440"/>
      <point x="458.6" y="429" type="qcurve"/>
      <point x="460.6" y="442"/>
      <point x="458.6" y="442"/>
      <point x="455.6" y="436" type="qcurve"/>
      <point x="455.6" y="436"/>
      <point x="455.6" y="432"/>
      <point x="454.6" y="429" type="qcurve"/>
      <point x="448.6" y="414"/>
      <point x="449.6" y="394" type="qcurve"/>
      <point x="449.6" y="390"/>
      <point x="449.6" y="386"/>
    </contour>
    <contour>
      <point x="465.6" y="299" type="qcurve"/>
      <point x="465.6" y="299" type="line"/>
      <point x="465.6" y="288"/>
      <point x="460.6" y="290"/>
      <point x="465.6" y="302" type="qcurve"/>
      <point x="469.6" y="288"/>
      <point x="477.6" y="281"/>
      <point x="504.6" y="301"/>
      <point x="536.6" y="327" type="qcurve"/>
      <point x="520.6" y="308"/>
      <point x="486.6" y="287"/>
      <point x="457.6" y="276"/>
      <point x="437.6" y="267"/>
      <point x="433.6" y="264"/>
      <point x="443.6" y="263" type="qcurve"/>
      <point x="428.6" y="263"/>
      <point x="426.6" y="263"/>
      <point x="436.6" y="259" type="qcurve"/>
      <point x="429.6" y="259"/>
      <point x="437.6" y="259"/>
      <point x="443.6" y="259" type="qcurve"/>
      <point x="443.6" y="259"/>
      <point x="446.6" y="263"/>
      <point x="446.6" y="263" type="qcurve"/>
      <point x="449.6" y="263"/>
      <point x="454.6" y="263"/>
      <point x="446.6" y="263" type="qcurve"/>
      <point x="452.6" y="263"/>
      <point x="486.6" y="264"/>
      <point x="520.6" y="266"/>
      <point x="540.6" y="271"/>
      <point x="532.6" y="274" type="qcurve"/>
      <point x="549.6" y="271"/>
      <point x="560.6" y="277"/>
      <point x="544.6" y="302" type="qcurve"/>
      <point x="566.6" y="282"/>
      <point x="619.6" y="284"/>
      <point x="631.6" y="302" type="qcurve"/>
      <point x="630.6" y="295"/>
      <point x="599.6" y="287"/>
      <point x="563.6" y="285"/>
      <point x="540.6" y="288"/>
      <point x="541.6" y="293" type="qcurve"/>
      <point x="540.6" y="290"/>
      <point x="541.6" y="290"/>
      <point x="547.6" y="293" type="qcurve"/>
      <point x="547.6" y="295"/>
      <point x="547.6" y="298"/>
      <point x="547.6" y="299"/>
      <point x="547.6" y="299" type="qcurve"/>
      <point x="547.6" y="299"/>
      <point x="549.6" y="301"/>
      <point x="552.6" y="302" type="qcurve"/>
      <point x="552.6" y="308"/>
      <point x="553.6" y="310"/>
      <point x="553.6" y="302" type="qcurve"/>
      <point x="553.6" y="317"/>
      <point x="550.6" y="317"/>
      <point x="547.6" y="302" type="qcurve"/>
      <point x="549.6" y="313"/>
      <point x="564.6" y="327"/>
      <point x="578.6" y="330"/>
      <point x="573.6" y="323"/>
      <point x="555.6" y="316" type="qcurve"/>
      <point x="579.6" y="330"/>
      <point x="584.6" y="345"/>
      <point x="560.6" y="353"/>
      <point x="540.6" y="359" type="qcurve"/>
      <point x="550.6" y="356"/>
      <point x="579.6" y="354"/>
      <point x="603.6" y="359"/>
      <point x="612.6" y="362"/>
      <point x="604.6" y="363" type="qcurve"/>
      <point x="609.6" y="363"/>
      <point x="593.6" y="363"/>
      <point x="569.6" y="363"/>
      <point x="549.6" y="363"/>
      <point x="547.6" y="363" type="qcurve"/>
      <point x="541.6" y="368"/>
      <point x="530.6" y="371"/>
      <point x="521.6" y="373" type="qcurve"/>
      <point x="521.6" y="373"/>
      <point x="517.6" y="373"/>
      <point x="515.6" y="373" type="qcurve" smooth="yes"/>
      <point x="509.6" y="373"/>
      <point x="504.6" y="371"/>
      <point x="515.6" y="366" type="qcurve"/>
      <point x="500.6" y="366"/>
      <point x="489.6" y="359"/>
      <point x="495.6" y="336" type="qcurve"/>
      <point x="489.6" y="350"/>
      <point x="482.6" y="359"/>
      <point x="477.6" y="350"/>
      <point x="472.6" y="337" type="qcurve"/>
      <point x="474.6" y="348"/>
      <point x="472.6" y="350"/>
      <point x="472.6" y="347" type="qcurve"/>
      <point x="472.6" y="347"/>
      <point x="469.6" y="342"/>
      <point x="469.6" y="337" type="qcurve"/>
      <point x="466.6" y="330"/>
      <point x="463.6" y="312"/>
      <point x="463.6" y="302" type="qcurve" smooth="yes"/>
      <point x="463.6" y="301"/>
      <point x="465.6" y="298"/>
    </contour>
    <contour>
      <point x="469.6" y="203" type="qcurve"/>
      <point x="469.6" y="203" type="line"/>
      <point x="477.6" y="196"/>
      <point x="486.6" y="193"/>
      <point x="486.6" y="207" type="qcurve"/>
      <point x="489.6" y="198"/>
      <point x="454.6" y="190"/>
      <point x="423.6" y="195"/>
      <point x="434.6" y="215"/>
      <point x="480.6" y="236" type="qcurve"/>
      <point x="437.6" y="212"/>
      <point x="434.6" y="187"/>
      <point x="475.6" y="175"/>
      <point x="529.6" y="171"/>
      <point x="541.6" y="167" type="qcurve"/>
      <point x="526.6" y="167"/>
      <point x="525.6" y="167"/>
      <point x="536.6" y="166" type="qcurve"/>
      <point x="536.6" y="166"/>
      <point x="543.6" y="166"/>
      <point x="547.6" y="166" type="qcurve"/>
      <point x="547.6" y="166"/>
      <point x="553.6" y="166"/>
      <point x="553.6" y="166" type="qcurve"/>
      <point x="560.6" y="169"/>
      <point x="566.6" y="167"/>
      <point x="553.6" y="167" type="qcurve"/>
      <point x="566.6" y="172"/>
      <point x="567.6" y="175"/>
      <point x="547.6" y="181" type="qcurve"/>
      <point x="561.6" y="178"/>
      <point x="592.6" y="177"/>
      <point x="612.6" y="183"/>
      <point x="621.6" y="198"/>
      <point x="614.6" y="210" type="qcurve"/>
      <point x="625.6" y="199"/>
      <point x="607.6" y="189"/>
      <point x="575.6" y="189"/>
      <point x="546.6" y="198"/>
      <point x="546.6" y="207" type="qcurve"/>
      <point x="546.6" y="193"/>
      <point x="549.6" y="193"/>
      <point x="553.6" y="199" type="qcurve"/>
      <point x="552.6" y="196"/>
      <point x="550.6" y="196"/>
      <point x="552.6" y="198"/>
      <point x="553.6" y="199" type="qcurve"/>
      <point x="553.6" y="203"/>
      <point x="553.6" y="203"/>
      <point x="555.6" y="203" type="qcurve"/>
      <point x="555.6" y="206"/>
      <point x="555.6" y="207"/>
      <point x="555.6" y="207" type="qcurve"/>
      <point x="555.6" y="212"/>
      <point x="560.6" y="217"/>
      <point x="560.6" y="210" type="qcurve"/>
      <point x="560.6" y="223"/>
      <point x="558.6" y="224"/>
      <point x="555.6" y="207" type="qcurve"/>
      <point x="557.6" y="218"/>
      <point x="569.6" y="231"/>
      <point x="575.6" y="236"/>
      <point x="561.6" y="231"/>
      <point x="538.6" y="224" type="qcurve"/>
      <point x="567.6" y="238"/>
      <point x="576.6" y="250"/>
      <point x="558.6" y="259"/>
      <point x="547.6" y="263" type="qcurve"/>
      <point x="561.6" y="261"/>
      <point x="561.6" y="264"/>
      <point x="553.6" y="269" type="qcurve"/>
      <point x="555.6" y="269"/>
      <point x="550.6" y="269"/>
      <point x="547.6" y="271" type="qcurve"/>
      <point x="547.6" y="273"/>
      <point x="578.6" y="274"/>
      <point x="614.6" y="274"/>
      <point x="638.6" y="274"/>
      <point x="631.6" y="274" type="qcurve"/>
      <point x="630.6" y="276"/>
      <point x="601.6" y="277"/>
      <point x="575.6" y="277"/>
      <point x="575.6" y="277" type="qcurve"/>
      <point x="564.6" y="277"/>
      <point x="560.6" y="274"/>
      <point x="575.6" y="274" type="qcurve"/>
      <point x="566.6" y="274"/>
      <point x="525.6" y="273"/>
      <point x="483.6" y="267"/>
      <point x="466.6" y="253"/>
      <point x="480.6" y="241" type="qcurve"/>
      <point x="446.6" y="255"/>
      <point x="431.6" y="263"/>
      <point x="436.6" y="255"/>
      <point x="428.6" y="244" type="qcurve"/>
      <point x="434.6" y="256"/>
      <point x="426.6" y="258"/>
      <point x="423.6" y="252" type="qcurve"/>
      <point x="423.6" y="252"/>
      <point x="419.6" y="247"/>
      <point x="419.6" y="244" type="qcurve"/>
      <point x="416.6" y="241"/>
      <point x="440.6" y="230"/>
      <point x="469.6" y="217"/>
      <point x="469.6" y="207" type="qcurve"/>
      <point x="472.6" y="207"/>
      <point x="472.6" y="201"/>
    </contour>
    <contour>
      <point x="532.6" y="112" type="qcurve"/>
      <point x="532.6" y="112" type="line"/>
      <point x="535.6" y="104"/>
      <point x="536.6" y="104"/>
      <point x="536.6" y="115" type="qcurve"/>
      <point x="538.6" y="108"/>
      <point x="543.6" y="100"/>
      <point x="550.6" y="97"/>
      <point x="567.6" y="108"/>
      <point x="593.6" y="125"/>
      <point x="614.6" y="140" type="qcurve"/>
      <point x="584.6" y="114"/>
      <point x="566.6" y="88"/>
      <point x="582.6" y="80"/>
      <point x="601.6" y="79" type="qcurve"/>
      <point x="578.6" y="79"/>
      <point x="576.6" y="77"/>
      <point x="593.6" y="74" type="qcurve"/>
      <point x="589.6" y="77"/>
      <point x="595.6" y="77"/>
      <point x="601.6" y="77" type="qcurve"/>
      <point x="601.6" y="77"/>
      <point x="606.6" y="77"/>
      <point x="606.6" y="77" type="qcurve"/>
      <point x="612.6" y="77"/>
      <point x="612.6" y="79"/>
      <point x="606.6" y="79" type="qcurve"/>
      <point x="619.6" y="79"/>
      <point x="624.6" y="83"/>
      <point x="601.6" y="89" type="qcurve"/>
      <point x="612.6" y="89"/>
      <point x="627.6" y="89"/>
      <point x="635.6" y="91"/>
      <point x="635.6" y="96"/>
      <point x="630.6" y="108"/>
      <point x="624.6" y="115" type="qcurve"/>
      <point x="633.6" y="108"/>
      <point x="622.6" y="97"/>
      <point x="596.6" y="96"/>
      <point x="566.6" y="100"/>
      <point x="546.6" y="111"/>
      <point x="546.6" y="118" type="qcurve"/>
      <point x="547.6" y="103"/>
      <point x="549.6" y="100"/>
      <point x="552.6" y="111" type="qcurve"/>
      <point x="550.6" y="104"/>
      <point x="552.6" y="106"/>
      <point x="553.6" y="111" type="qcurve"/>
      <point x="553.6" y="112"/>
      <point x="553.6" y="114"/>
      <point x="553.6" y="115" type="qcurve"/>
      <point x="553.6" y="115"/>
      <point x="553.6" y="117"/>
      <point x="555.6" y="118" type="qcurve"/>
      <point x="555.6" y="121"/>
      <point x="569.6" y="125"/>
      <point x="584.6" y="125"/>
      <point x="585.6" y="121" type="qcurve"/>
      <point x="585.6" y="129"/>
      <point x="572.6" y="135"/>
      <point x="555.6" y="129"/>
      <point x="553.6" y="118" type="qcurve"/>
      <point x="555.6" y="134"/>
      <point x="553.6" y="146"/>
      <point x="547.6" y="143"/>
      <point x="538.6" y="132" type="qcurve"/>
      <point x="544.6" y="143"/>
      <point x="558.6" y="154"/>
      <point x="567.6" y="163"/>
      <point x="572.6" y="169"/>
      <point x="564.6" y="174" type="qcurve"/>
      <point x="573.6" y="169"/>
      <point x="573.6" y="175"/>
      <point x="569.6" y="180" type="qcurve"/>
      <point x="569.6" y="178"/>
      <point x="567.6" y="180"/>
      <point x="567.6" y="181" type="qcurve"/>
      <point x="566.6" y="181"/>
      <point x="560.6" y="186"/>
      <point x="560.6" y="186" type="qcurve"/>
      <point x="558.6" y="187"/>
      <point x="555.6" y="187"/>
      <point x="552.6" y="187"/>
      <point x="549.6" y="189" type="qcurve"/>
      <point x="549.6" y="187"/>
      <point x="547.6" y="186"/>
      <point x="547.6" y="186"/>
      <point x="550.6" y="183"/>
      <point x="553.6" y="181" type="qcurve"/>
      <point x="549.6" y="181"/>
      <point x="557.6" y="180"/>
      <point x="578.6" y="175"/>
      <point x="599.6" y="163"/>
      <point x="606.6" y="152" type="qcurve"/>
      <point x="592.6" y="161"/>
      <point x="578.6" y="171"/>
      <point x="567.6" y="171"/>
      <point x="560.6" y="161"/>
      <point x="553.6" y="152" type="qcurve"/>
      <point x="560.6" y="166"/>
      <point x="552.6" y="166"/>
      <point x="547.6" y="163" type="qcurve"/>
      <point x="547.6" y="163"/>
      <point x="541.6" y="157"/>
      <point x="541.6" y="155" type="qcurve"/>
      <point x="535.6" y="147"/>
      <point x="532.6" y="129"/>
      <point x="532.6" y="118" type="qcurve" smooth="yes"/>
      <point x="532.6" y="114"/>
      <point x="532.6" y="112"/>
    </contour>
    <contour>
      <point x="561.6" y="22" type="qcurve"/>
      <point x="561.6" y="22" type="line"/>
      <point x="567.6" y="14"/>
      <point x="569.6" y="10"/>
      <point x="569.6" y="26" type="qcurve"/>
      <point x="569.6" y="17"/>
      <point x="547.6" y="7"/>
      <point x="525.6" y="10"/>
      <point x="520.6" y="30"/>
      <point x="538.6" y="48" type="qcurve"/>
      <point x="521.6" y="26"/>
      <point x="535.6" y="2"/>
      <point x="573.6" y="-9"/>
      <point x="618.6" y="-13"/>
      <point x="631.6" y="-15" type="qcurve"/>
      <point x="618.6" y="-13"/>
      <point x="607.6" y="-13"/>
      <point x="619.6" y="-16"/>
      <point x="631.6" y="-18" type="qcurve"/>
      <point x="625.6" y="-15"/>
      <point x="625.6" y="-15"/>
      <point x="631.6" y="-18" type="qcurve"/>
      <point x="633.6" y="-16"/>
      <point x="606.6" y="-15"/>
      <point x="567.6" y="-15"/>
      <point x="538.6" y="-15"/>
      <point x="538.6" y="-15" type="qcurve"/>
      <point x="540.6" y="-15"/>
      <point x="543.6" y="-15"/>
      <point x="538.6" y="-15" type="qcurve"/>
      <point x="546.6" y="-15"/>
      <point x="546.6" y="-9"/>
      <point x="538.6" y="-1" type="qcurve"/>
      <point x="547.6" y="-7"/>
      <point x="550.6" y="-1"/>
      <point x="544.6" y="26" type="qcurve"/>
      <point x="552.6" y="4"/>
      <point x="585.6" y="4"/>
      <point x="587.6" y="26" type="qcurve"/>
      <point x="587.6" y="10"/>
      <point x="589.6" y="7"/>
      <point x="590.6" y="16" type="qcurve"/>
      <point x="590.6" y="12"/>
      <point x="592.6" y="12"/>
      <point x="593.6" y="16" type="qcurve"/>
      <point x="595.6" y="16"/>
      <point x="595.6" y="22" type="qcurve" smooth="yes"/>
      <point x="595.6" y="23"/>
      <point x="596.6" y="25"/>
      <point x="598.6" y="26" type="qcurve"/>
      <point x="598.6" y="34"/>
      <point x="601.6" y="26" type="qcurve"/>
      <point x="599.6" y="39"/>
      <point x="598.6" y="40"/>
      <point x="598.6" y="26" type="qcurve"/>
      <point x="598.6" y="48"/>
      <point x="563.6" y="53"/>
      <point x="547.6" y="40" type="qcurve"/>
      <point x="560.6" y="60"/>
      <point x="561.6" y="72"/>
      <point x="553.6" y="79" type="qcurve"/>
      <point x="561.6" y="77"/>
      <point x="560.6" y="82"/>
      <point x="557.6" y="88" type="qcurve"/>
      <point x="557.6" y="86"/>
      <point x="557.6" y="88"/>
      <point x="553.6" y="88" type="qcurve"/>
      <point x="553.6" y="88"/>
      <point x="553.6" y="89"/>
      <point x="552.6" y="89"/>
      <point x="549.6" y="91"/>
      <point x="547.6" y="93" type="qcurve"/>
      <point x="546.6" y="93"/>
      <point x="544.6" y="91"/>
      <point x="544.6" y="93" type="qcurve"/>
      <point x="541.6" y="93"/>
      <point x="540.6" y="93"/>
      <point x="544.6" y="89" type="qcurve"/>
      <point x="540.6" y="89"/>
      <point x="535.6" y="86"/>
      <point x="536.6" y="72"/>
      <point x="540.6" y="57" type="qcurve"/>
      <point x="533.6" y="68"/>
      <point x="550.6" y="79"/>
      <point x="576.6" y="79"/>
      <point x="592.6" y="69"/>
      <point x="587.6" y="60" type="qcurve"/>
      <point x="592.6" y="72"/>
      <point x="582.6" y="76"/>
      <point x="569.6" y="68" type="qcurve"/>
      <point x="573.6" y="68"/>
      <point x="569.6" y="65"/>
      <point x="569.6" y="60" type="qcurve"/>
      <point x="563.6" y="53"/>
      <point x="561.6" y="34"/>
      <point x="561.6" y="26" type="qcurve" smooth="yes"/>
      <point x="561.6" y="23"/>
      <point x="561.6" y="17"/>
    </contour>
    <contour>
      <point x="368.6" y="177" type="line"/>
      <point x="366.6" y="150"/>
      <point x="371.6" y="143"/>
      <point x="371.6" y="167" type="qcurve"/>
      <point x="370.6" y="164"/>
      <point x="371.6" y="169"/>
      <point x="370.6" y="171" type="qcurve"/>
      <point x="373.6" y="178"/>
      <point x="373.6" y="186"/>
      <point x="373.6" y="186" type="qcurve"/>
      <point x="373.6" y="190"/>
      <point x="373.6" y="193"/>
      <point x="370.6" y="181" type="qcurve" smooth="yes"/>
    </contour>
    <contour>
      <point x="446.6" y="307" type="qcurve"/>
      <point x="446.6" y="307" type="line"/>
      <point x="472.6" y="312"/>
      <point x="477.6" y="319"/>
      <point x="454.6" y="320"/>
      <point x="423.6" y="317"/>
      <point x="419.6" y="310" type="qcurve"/>
      <point x="423.6" y="319"/>
      <point x="422.6" y="327"/>
      <point x="409.6" y="325"/>
      <point x="388.6" y="316"/>
      <point x="376.6" y="307" type="qcurve"/>
      <point x="393.6" y="328"/>
      <point x="408.6" y="345"/>
      <point x="406.6" y="356"/>
      <point x="402.6" y="366" type="qcurve"/>
      <point x="406.6" y="354"/>
      <point x="406.6" y="360"/>
      <point x="403.6" y="366" type="qcurve"/>
      <point x="406.6" y="365"/>
      <point x="402.6" y="369"/>
      <point x="402.6" y="369" type="qcurve"/>
      <point x="402.6" y="373"/>
      <point x="402.6" y="374"/>
      <point x="402.6" y="374" type="qcurve"/>
      <point x="396.6" y="374"/>
      <point x="396.6" y="376"/>
      <point x="398.6" y="373" type="qcurve"/>
      <point x="393.6" y="376"/>
      <point x="391.6" y="374"/>
      <point x="394.6" y="362" type="qcurve"/>
      <point x="391.6" y="373"/>
      <point x="387.6" y="379"/>
      <point x="384.6" y="366"/>
      <point x="380.6" y="347" type="qcurve"/>
      <point x="380.6" y="374"/>
      <point x="377.6" y="379"/>
      <point x="370.6" y="363" type="qcurve"/>
      <point x="373.6" y="374"/>
      <point x="374.6" y="382"/>
      <point x="373.6" y="380"/>
      <point x="370.6" y="377" type="qcurve"/>
      <point x="373.6" y="382"/>
      <point x="370.6" y="377"/>
      <point x="370.6" y="377" type="qcurve"/>
      <point x="368.6" y="377"/>
      <point x="365.6" y="374"/>
      <point x="365.6" y="374" type="qcurve"/>
      <point x="365.6" y="374"/>
      <point x="363.6" y="374"/>
      <point x="363.6" y="374" type="qcurve"/>
      <point x="362.6" y="373"/>
      <point x="360.6" y="371"/>
      <point x="362.6" y="374" type="qcurve"/>
      <point x="360.6" y="369"/>
      <point x="359.6" y="365"/>
      <point x="360.6" y="368"/>
      <point x="363.6" y="374" type="qcurve"/>
      <point x="359.6" y="363"/>
      <point x="356.6" y="353"/>
      <point x="363.6" y="347"/>
      <point x="373.6" y="341" type="qcurve"/>
      <point x="365.6" y="339"/>
      <point x="356.6" y="333"/>
      <point x="351.6" y="322"/>
      <point x="356.6" y="302"/>
      <point x="359.6" y="285" type="qcurve"/>
      <point x="351.6" y="307"/>
      <point x="351.6" y="302"/>
      <point x="351.6" y="285" type="qcurve"/>
      <point x="351.6" y="290"/>
      <point x="356.6" y="279"/>
      <point x="357.6" y="274" type="qcurve"/>
      <point x="357.6" y="263"/>
      <point x="370.6" y="244"/>
      <point x="371.6" y="244" type="qcurve"/>
      <point x="371.6" y="242"/>
      <point x="370.6" y="238"/>
      <point x="368.6" y="235"/>
      <point x="366.6" y="230"/>
      <point x="366.6" y="228"/>
      <point x="366.6" y="226" type="qcurve"/>
      <point x="365.6" y="217"/>
      <point x="366.6" y="218"/>
      <point x="371.6" y="233" type="qcurve"/>
      <point x="368.6" y="215"/>
      <point x="371.6" y="212"/>
      <point x="376.6" y="249"/>
      <point x="376.6" y="285" type="qcurve"/>
      <point x="377.6" y="245"/>
      <point x="373.6" y="198"/>
      <point x="376.6" y="167"/>
      <point x="387.6" y="149" type="qcurve"/>
      <point x="376.6" y="163"/>
      <point x="374.6" y="152"/>
      <point x="379.6" y="144" type="qcurve"/>
      <point x="379.6" y="144"/>
      <point x="380.6" y="158"/>
      <point x="382.6" y="177"/>
      <point x="385.6" y="198"/>
      <point x="388.6" y="213"/>
      <point x="390.6" y="215" type="qcurve" smooth="yes"/>
      <point x="394.6" y="220"/>
      <point x="373.6" y="244"/>
      <point x="353.6" y="274"/>
      <point x="368.6" y="298"/>
      <point x="409.6" y="302" type="qcurve"/>
      <point x="409.6" y="304"/>
      <point x="428.6" y="307"/>
      <point x="446.6" y="308"/>
    </contour>
    <contour>
      <point x="422.6" y="406" type="qcurve"/>
      <point x="422.6" y="406" type="line"/>
      <point x="423.6" y="415"/>
      <point x="422.6" y="419"/>
      <point x="417.6" y="406" type="qcurve"/>
      <point x="420.6" y="414"/>
      <point x="457.6" y="425"/>
      <point x="492.6" y="428"/>
      <point x="490.6" y="426"/>
      <point x="454.6" y="422" type="qcurve"/>
      <point x="480.6" y="426"/>
      <point x="490.6" y="434"/>
      <point x="471.6" y="442"/>
      <point x="440.6" y="449"/>
      <point x="414.6" y="457"/>
      <point x="411.6" y="463" type="qcurve"/>
      <point x="420.6" y="449"/>
      <point x="414.6" y="463" type="qcurve"/>
      <point x="414.6" y="461"/>
      <point x="414.6" y="464"/>
      <point x="411.6" y="469" type="qcurve"/>
      <point x="411.6" y="469"/>
      <point x="411.6" y="469"/>
      <point x="409.6" y="471"/>
      <point x="408.6" y="472"/>
      <point x="408.6" y="472"/>
      <point x="408.6" y="472" type="qcurve"/>
      <point x="406.6" y="472"/>
      <point x="406.6" y="472"/>
      <point x="408.6" y="469" type="qcurve"/>
      <point x="403.6" y="472"/>
      <point x="403.6" y="471"/>
      <point x="406.6" y="458" type="qcurve"/>
      <point x="400.6" y="475"/>
      <point x="394.6" y="472"/>
      <point x="391.6" y="447" type="qcurve"/>
      <point x="391.6" y="464"/>
      <point x="425.6" y="477"/>
      <point x="451.6" y="472"/>
      <point x="437.6" y="461" type="qcurve"/>
      <point x="451.6" y="475"/>
      <point x="446.6" y="478"/>
      <point x="433.6" y="472" type="qcurve"/>
      <point x="436.6" y="478"/>
      <point x="436.6" y="474"/>
      <point x="429.6" y="474" type="qcurve"/>
      <point x="429.6" y="474"/>
      <point x="429.6" y="474"/>
      <point x="426.6" y="474"/>
      <point x="423.6" y="472" type="qcurve"/>
      <point x="423.6" y="472"/>
      <point x="423.6" y="472"/>
      <point x="422.6" y="472" type="qcurve"/>
      <point x="414.6" y="471"/>
      <point x="409.6" y="466"/>
      <point x="411.6" y="474" type="qcurve"/>
      <point x="405.6" y="463"/>
      <point x="403.6" y="461"/>
      <point x="414.6" y="472" type="qcurve"/>
      <point x="406.6" y="464"/>
      <point x="398.6" y="454"/>
      <point x="403.6" y="447"/>
      <point x="422.6" y="442"/>
      <point x="439.6" y="439" type="qcurve"/>
      <point x="416.6" y="437"/>
      <point x="393.6" y="432"/>
      <point x="393.6" y="422"/>
      <point x="402.6" y="411" type="qcurve"/>
      <point x="390.6" y="422"/>
      <point x="387.6" y="419"/>
      <point x="391.6" y="411" type="qcurve"/>
      <point x="391.6" y="414"/>
      <point x="393.6" y="408"/>
      <point x="398.6" y="408" type="qcurve"/>
      <point x="398.6" y="405"/>
      <point x="408.6" y="396"/>
      <point x="408.6" y="396" type="qcurve"/>
      <point x="408.6" y="393"/>
      <point x="416.6" y="388"/>
      <point x="422.6" y="388" type="qcurve"/>
      <point x="423.6" y="386"/>
      <point x="428.6" y="385"/>
      <point x="422.6" y="391" type="qcurve"/>
      <point x="428.6" y="386"/>
      <point x="439.6" y="380"/>
      <point x="446.6" y="383"/>
      <point x="452.6" y="396"/>
      <point x="454.6" y="411" type="qcurve"/>
      <point x="455.6" y="396"/>
      <point x="436.6" y="382"/>
      <point x="414.6" y="377"/>
      <point x="398.6" y="380"/>
      <point x="402.6" y="385" type="qcurve"/>
      <point x="396.6" y="376"/>
      <point x="400.6" y="374"/>
      <point x="402.6" y="374" type="qcurve"/>
      <point x="402.6" y="374"/>
      <point x="406.6" y="376"/>
      <point x="406.6" y="377" type="qcurve"/>
      <point x="412.6" y="382"/>
      <point x="419.6" y="391"/>
      <point x="422.6" y="399" type="qcurve"/>
      <point x="422.6" y="405"/>
      <point x="423.6" y="408"/>
    </contour>
    <contour>
      <point x="440.6" y="497" type="qcurve"/>
      <point x="440.6" y="497" type="line"/>
      <point x="440.6" y="504"/>
      <point x="439.6" y="507"/>
      <point x="434.6" y="495" type="qcurve"/>
      <point x="436.6" y="501"/>
      <point x="437.6" y="509"/>
      <point x="437.6" y="515"/>
      <point x="434.6" y="517"/>
      <point x="426.6" y="517"/>
      <point x="416.6" y="514"/>
      <point x="406.6" y="510" type="qcurve"/>
      <point x="414.6" y="517"/>
      <point x="425.6" y="523"/>
      <point x="433.6" y="529"/>
      <point x="434.6" y="536"/>
      <point x="434.6" y="542"/>
      <point x="431.6" y="550"/>
      <point x="428.6" y="555" type="qcurve"/>
      <point x="433.6" y="544"/>
      <point x="434.6" y="547"/>
      <point x="431.6" y="555" type="qcurve"/>
      <point x="285.6" y="351"/>
      <point x="429.6" y="555" type="qcurve"/>
      <point x="428.6" y="556"/>
      <point x="463.6" y="558"/>
      <point x="511.6" y="558"/>
      <point x="547.6" y="558"/>
      <point x="547.6" y="558" type="qcurve"/>
      <point x="550.6" y="561"/>
      <point x="553.6" y="564"/>
      <point x="547.6" y="558" type="qcurve"/>
      <point x="550.6" y="561"/>
      <point x="526.6" y="564"/>
      <point x="489.6" y="564"/>
      <point x="448.6" y="561"/>
      <point x="422.6" y="553"/>
      <point x="423.6" y="547" type="qcurve"/>
      <point x="417.6" y="564"/>
      <point x="411.6" y="560"/>
      <point x="411.6" y="533" type="qcurve"/>
      <point x="411.6" y="541"/>
      <point x="409.6" y="552"/>
      <point x="409.6" y="560"/>
      <point x="408.6" y="563"/>
      <point x="406.6" y="564"/>
      <point x="403.6" y="561"/>
      <point x="400.6" y="556"/>
      <point x="398.6" y="553" type="qcurve"/>
      <point x="400.6" y="556"/>
      <point x="420.6" y="561"/>
      <point x="455.6" y="564"/>
      <point x="497.6" y="567"/>
      <point x="538.6" y="567"/>
      <point x="573.6" y="567"/>
      <point x="595.6" y="566"/>
      <point x="596.6" y="566" type="qcurve"/>
      <point x="590.6" y="569"/>
      <point x="598.6" y="569"/>
      <point x="601.6" y="566" type="qcurve"/>
      <point x="601.6" y="566"/>
      <point x="603.6" y="564"/>
      <point x="606.6" y="561" type="qcurve"/>
      <point x="403.6" y="365"/>
      <point x="606.6" y="561" type="qcurve"/>
      <point x="612.6" y="560"/>
      <point x="616.6" y="560"/>
      <point x="614.6" y="561" type="qcurve"/>
      <point x="618.6" y="550"/>
      <point x="619.6" y="549"/>
      <point x="606.6" y="561" type="qcurve"/>
      <point x="610.6" y="556"/>
      <point x="582.6" y="547"/>
      <point x="532.6" y="542"/>
      <point x="474.6" y="538"/>
      <point x="423.6" y="535"/>
      <point x="396.6" y="532"/>
      <point x="402.6" y="529" type="qcurve"/>
      <point x="393.6" y="528"/>
      <point x="402.6" y="524"/>
      <point x="422.6" y="518"/>
      <point x="443.6" y="507"/>
      <point x="449.6" y="500" type="qcurve"/>
      <point x="440.6" y="512"/>
      <point x="437.6" y="507"/>
      <point x="437.6" y="500" type="qcurve"/>
      <point x="437.6" y="500"/>
      <point x="437.6" y="497"/>
      <point x="439.6" y="497" type="qcurve"/>
      <point x="439.6" y="493"/>
      <point x="451.6" y="485"/>
      <point x="454.6" y="485" type="qcurve" smooth="yes"/>
      <point x="455.6" y="485"/>
      <point x="423.6" y="482"/>
      <point x="391.6" y="480"/>
      <point x="391.6" y="480" type="qcurve"/>
      <point x="391.6" y="475"/>
      <point x="394.6" y="474"/>
      <point x="391.6" y="480" type="qcurve"/>
      <point x="396.6" y="475"/>
      <point x="402.6" y="471"/>
      <point x="403.6" y="482"/>
      <point x="403.6" y="500" type="qcurve"/>
      <point x="405.6" y="485"/>
      <point x="406.6" y="471"/>
      <point x="411.6" y="466"/>
      <point x="417.6" y="469"/>
      <point x="422.6" y="474" type="qcurve"/>
      <point x="416.6" y="464"/>
      <point x="419.6" y="463"/>
      <point x="422.6" y="461" type="qcurve"/>
      <point x="422.6" y="463"/>
      <point x="423.6" y="463" type="qcurve"/>
      <point x="428.6" y="471"/>
      <point x="436.6" y="483"/>
      <point x="439.6" y="492" type="qcurve"/>
      <point x="439.6" y="495"/>
      <point x="440.6" y="497"/>
    </contour>
    <contour>
      <point x="357.6" y="383" type="line"/>
      <point x="363.6" y="386"/>
      <point x="390.6" y="388"/>
      <point x="377.6" y="388" type="qcurve"/>
      <point x="384.6" y="386"/>
      <point x="359.6" y="385"/>
      <point x="357.6" y="385" type="qcurve" smooth="yes"/>
      <point x="356.6" y="385"/>
      <point x="351.6" y="383"/>
      <point x="351.6" y="383" type="qcurve"/>
      <point x="348.6" y="377"/>
      <point x="353.6" y="377" type="qcurve"/>
    </contour>
    <contour>
      <point x="385.6" y="451" type="qcurve"/>
      <point x="385.6" y="451" type="line"/>
      <point x="376.6" y="457"/>
      <point x="368.6" y="457"/>
      <point x="377.6" y="444" type="qcurve"/>
      <point x="371.6" y="451"/>
      <point x="362.6" y="455"/>
      <point x="351.6" y="454"/>
      <point x="342.6" y="440"/>
      <point x="328.6" y="417"/>
      <point x="319.6" y="396" type="qcurve"/>
      <point x="327.6" y="419"/>
      <point x="336.6" y="446"/>
      <point x="339.6" y="460"/>
      <point x="339.6" y="466"/>
      <point x="334.6" y="464"/>
      <point x="330.6" y="461" type="qcurve"/>
      <point x="334.6" y="466"/>
      <point x="370.6" y="469"/>
      <point x="391.6" y="469"/>
      <point x="376.6" y="469" type="qcurve"/>
      <point x="384.6" y="464"/>
      <point x="370.6" y="463"/>
      <point x="362.6" y="463" type="qcurve"/>
      <point x="362.6" y="461"/>
      <point x="351.6" y="463"/>
      <point x="351.6" y="463" type="qcurve"/>
      <point x="347.6" y="460"/>
      <point x="324.6" y="460"/>
      <point x="328.6" y="461" type="qcurve"/>
      <point x="322.6" y="455"/>
      <point x="320.6" y="451"/>
      <point x="330.6" y="451" type="qcurve"/>
      <point x="325.6" y="449"/>
      <point x="319.6" y="446"/>
      <point x="319.6" y="439"/>
      <point x="324.6" y="428"/>
      <point x="328.6" y="419" type="qcurve"/>
      <point x="324.6" y="425"/>
      <point x="306.6" y="429"/>
      <point x="288.6" y="428"/>
      <point x="279.6" y="417"/>
      <point x="281.6" y="408" type="qcurve"/>
      <point x="276.6" y="415"/>
      <point x="273.6" y="423"/>
      <point x="271.6" y="422"/>
      <point x="270.6" y="415"/>
      <point x="267.6" y="411" type="qcurve"/>
      <point x="267.6" y="419"/>
      <point x="267.6" y="417"/>
      <point x="266.6" y="414" type="qcurve"/>
      <point x="266.6" y="412"/>
      <point x="267.6" y="408"/>
      <point x="266.6" y="408" type="qcurve"/>
      <point x="266.6" y="408"/>
      <point x="266.6" y="403"/>
      <point x="266.6" y="403" type="qcurve"/>
      <point x="266.6" y="391"/>
      <point x="258.6" y="399" type="qcurve"/>
      <point x="264.6" y="388"/>
      <point x="267.6" y="383"/>
      <point x="266.6" y="403" type="qcurve"/>
      <point x="267.6" y="382"/>
      <point x="282.6" y="379"/>
      <point x="299.6" y="399" type="qcurve"/>
      <point x="285.6" y="373"/>
      <point x="288.6" y="362"/>
      <point x="309.6" y="362" type="qcurve"/>
      <point x="295.6" y="360"/>
      <point x="295.6" y="356"/>
      <point x="301.6" y="351" type="qcurve"/>
      <point x="299.6" y="351"/>
      <point x="309.6" y="351"/>
      <point x="313.6" y="351" type="qcurve"/>
      <point x="314.6" y="350"/>
      <point x="320.6" y="351"/>
      <point x="322.6" y="351" type="qcurve" smooth="yes"/>
      <point x="324.6" y="351"/>
      <point x="330.6" y="353"/>
      <point x="331.6" y="359" type="qcurve"/>
      <point x="338.6" y="359"/>
      <point x="341.6" y="362"/>
      <point x="330.6" y="359" type="qcurve"/>
      <point x="345.6" y="362"/>
      <point x="348.6" y="376"/>
      <point x="328.6" y="391" type="qcurve"/>
      <point x="356.6" y="379"/>
      <point x="374.6" y="385"/>
      <point x="377.6" y="406" type="qcurve"/>
      <point x="377.6" y="390"/>
      <point x="385.6" y="390"/>
      <point x="385.6" y="396" type="qcurve"/>
      <point x="385.6" y="396"/>
      <point x="390.6" y="405"/>
      <point x="385.6" y="408" type="qcurve"/>
      <point x="391.6" y="415"/>
      <point x="390.6" y="436"/>
      <point x="385.6" y="444" type="qcurve"/>
      <point x="385.6" y="447"/>
      <point x="379.6" y="451"/>
    </contour>
    <contour>
      <point x="112.6" y="518" type="qcurve"/>
      <point x="112.6" y="518" type="line"/>
      <point x="120.6" y="526"/>
      <point x="129.6" y="524"/>
      <point x="117.6" y="510" type="qcurve"/>
      <point x="125.6" y="517"/>
      <point x="171.6" y="524"/>
      <point x="232.6" y="524"/>
      <point x="285.6" y="514"/>
      <point x="316.6" y="490"/>
      <point x="309.6" y="469" type="qcurve"/>
      <point x="316.6" y="490"/>
      <point x="292.6" y="515"/>
      <point x="253.6" y="529"/>
      <point x="218.6" y="535"/>
      <point x="206.6" y="535"/>
      <point x="221.6" y="533" type="qcurve"/>
      <point x="195.6" y="538"/>
      <point x="195.6" y="539"/>
      <point x="217.6" y="539" type="qcurve"/>
      <point x="210.6" y="538"/>
      <point x="210.6" y="536"/>
      <point x="221.6" y="536" type="qcurve"/>
      <point x="227.6" y="535"/>
      <point x="233.6" y="533"/>
      <point x="233.6" y="533" type="qcurve"/>
      <point x="241.6" y="532"/>
      <point x="241.6" y="529"/>
      <point x="229.6" y="529" type="qcurve"/>
      <point x="244.6" y="523"/>
      <point x="247.6" y="521"/>
      <point x="217.6" y="521" type="qcurve"/>
      <point x="253.6" y="518"/>
      <point x="287.6" y="506"/>
      <point x="298.6" y="492" type="qcurve"/>
      <point x="282.6" y="504"/>
      <point x="276.6" y="500"/>
      <point x="279.6" y="480" type="qcurve"/>
      <point x="276.6" y="495"/>
      <point x="274.6" y="493"/>
      <point x="273.6" y="483" type="qcurve"/>
      <point x="271.6" y="490"/>
      <point x="271.6" y="485"/>
      <point x="271.6" y="483" type="qcurve" smooth="yes"/>
      <point x="271.6" y="482"/>
      <point x="271.6" y="478"/>
      <point x="271.6" y="474" type="qcurve"/>
      <point x="271.6" y="474"/>
      <point x="270.6" y="474"/>
      <point x="270.6" y="474" type="qcurve"/>
      <point x="271.6" y="466"/>
      <point x="270.6" y="464"/>
      <point x="267.6" y="472" type="qcurve"/>
      <point x="271.6" y="460"/>
      <point x="271.6" y="457"/>
      <point x="270.6" y="472" type="qcurve"/>
      <point x="274.6" y="452"/>
      <point x="279.6" y="451"/>
      <point x="293.6" y="469" type="qcurve"/>
      <point x="285.6" y="444"/>
      <point x="285.6" y="431"/>
      <point x="292.6" y="428" type="qcurve"/>
      <point x="285.6" y="428"/>
      <point x="288.6" y="425"/>
      <point x="290.6" y="422" type="qcurve"/>
      <point x="288.6" y="425"/>
      <point x="292.6" y="423"/>
      <point x="293.6" y="425" type="qcurve"/>
      <point x="296.6" y="423"/>
      <point x="298.6" y="422"/>
      <point x="298.6" y="422" type="qcurve"/>
      <point x="301.6" y="422"/>
      <point x="304.6" y="426"/>
      <point x="306.6" y="428" type="qcurve"/>
      <point x="307.6" y="428"/>
      <point x="309.6" y="432"/>
      <point x="302.6" y="429" type="qcurve"/>
      <point x="313.6" y="434"/>
      <point x="313.6" y="446"/>
      <point x="302.6" y="461" type="qcurve"/>
      <point x="310.6" y="455"/>
      <point x="325.6" y="451"/>
      <point x="339.6" y="461"/>
      <point x="345.6" y="474" type="qcurve"/>
      <point x="348.6" y="463"/>
      <point x="356.6" y="463"/>
      <point x="362.6" y="469" type="qcurve"/>
      <point x="362.6" y="469"/>
      <point x="362.6" y="471"/>
      <point x="362.6" y="474"/>
      <point x="362.6" y="474" type="qcurve"/>
      <point x="365.6" y="478"/>
      <point x="330.6" y="487"/>
      <point x="270.6" y="495"/>
      <point x="201.6" y="501"/>
      <point x="141.6" y="507"/>
      <point x="108.6" y="512"/>
      <point x="112.6" y="514" type="qcurve"/>
      <point x="112.6" y="517"/>
      <point x="112.6" y="521"/>
    </contour>
    <contour>
      <point x="207.6" y="598" type="qcurve"/>
      <point x="207.6" y="598" type="line"/>
      <point x="218.6" y="606"/>
      <point x="224.6" y="604"/>
      <point x="217.6" y="592" type="qcurve"/>
      <point x="232.6" y="602"/>
      <point x="263.6" y="606"/>
      <point x="281.6" y="581"/>
      <point x="271.6" y="547" type="qcurve"/>
      <point x="279.6" y="602"/>
      <point x="279.6" y="615"/>
      <point x="266.6" y="610" type="qcurve"/>
      <point x="274.6" y="615"/>
      <point x="274.6" y="620"/>
      <point x="267.6" y="617" type="qcurve"/>
      <point x="179.6" y="391"/>
      <point x="266.6" y="613" type="qcurve"/>
      <point x="264.6" y="612"/>
      <point x="264.6" y="609"/>
      <point x="264.6" y="609" type="qcurve"/>
      <point x="263.6" y="609"/>
      <point x="260.6" y="609"/>
      <point x="264.6" y="609" type="qcurve"/>
      <point x="258.6" y="607"/>
      <point x="260.6" y="599"/>
      <point x="267.6" y="599" type="qcurve"/>
      <point x="256.6" y="598"/>
      <point x="253.6" y="588"/>
      <point x="264.6" y="569" type="qcurve"/>
      <point x="253.6" y="582"/>
      <point x="249.6" y="578"/>
      <point x="249.6" y="555" type="qcurve"/>
      <point x="249.6" y="572"/>
      <point x="249.6" y="575"/>
      <point x="246.6" y="561" type="qcurve"/>
      <point x="246.6" y="567"/>
      <point x="246.6" y="567"/>
      <point x="246.6" y="561" type="qcurve"/>
      <point x="246.6" y="561"/>
      <point x="246.6" y="558"/>
      <point x="246.6" y="555" type="qcurve"/>
      <point x="165.6" y="351"/>
      <point x="242.6" y="555" type="qcurve"/>
      <point x="246.6" y="549"/>
      <point x="242.6" y="546"/>
      <point x="241.6" y="547" type="qcurve"/>
      <point x="244.6" y="536"/>
      <point x="246.6" y="535"/>
      <point x="242.6" y="550" type="qcurve"/>
      <point x="247.6" y="529"/>
      <point x="252.6" y="529"/>
      <point x="261.6" y="550" type="qcurve"/>
      <point x="253.6" y="523"/>
      <point x="256.6" y="510"/>
      <point x="264.6" y="507" type="qcurve"/>
      <point x="258.6" y="507"/>
      <point x="258.6" y="506"/>
      <point x="264.6" y="500" type="qcurve"/>
      <point x="263.6" y="500"/>
      <point x="264.6" y="501"/>
      <point x="266.6" y="506" type="qcurve"/>
      <point x="270.6" y="497"/>
      <point x="271.6" y="506" type="qcurve"/>
      <point x="274.6" y="506"/>
      <point x="285.6" y="506"/>
      <point x="279.6" y="506" type="qcurve"/>
      <point x="270.6" y="507"/>
      <point x="285.6" y="510"/>
      <point x="278.6" y="507" type="qcurve"/>
      <point x="290.6" y="515"/>
      <point x="285.6" y="523"/>
      <point x="276.6" y="539" type="qcurve"/>
      <point x="284.6" y="533"/>
      <point x="256.6" y="528"/>
      <point x="223.6" y="541"/>
      <point x="217.6" y="555" type="qcurve"/>
      <point x="210.6" y="541"/>
      <point x="206.6" y="542"/>
      <point x="198.6" y="547" type="qcurve"/>
      <point x="198.6" y="547"/>
      <point x="196.6" y="553"/>
      <point x="192.6" y="555" type="qcurve"/>
      <point x="189.6" y="566"/>
      <point x="200.6" y="584"/>
      <point x="206.6" y="595" type="qcurve"/>
      <point x="207.6" y="598"/>
      <point x="207.6" y="599"/>
    </contour>
  </outline>
</glyph>
<glyph name="N" format="2">
  <advance width="543"/>
  <unicode hex="004E"/>
  <outline>
    <contour>
      <point x="50" y="750" type="line"/>
      <point x="50" y="1" type="line"/>
      <point x="138" y="1" type="line"/>
      <point x="138" y="750" type="line"/>
    </contour>
    <contour>
      <point x="138" y="656" type="line"/>
      <point x="138" y="238" type="line"/>
      <point x="227" y="238" type="line"/>
      <point x="227" y="656" type="line"/>
    </contour>
    <contour>
      <point x="227" y="544" type="line"/>
      <point x="227" y="164" type="line"/>
      <point x="316" y="164" type="line"/>
      <point x="316" y="544" type="line"/>
    </contour>
    <contour>
      <point x="316" y="450" type="line"/>
      <point x="316" y="95" type="line"/>
      <point x="404" y="95" type="line"/>
      <point x="404" y="450" type="line"/>
    </contour>
    <contour>
      <point x="404" y="750" type="line"/>
      <point x="404" y="1" type="line"/>
      <point x="493" y="1" type="line"/>
      <point x="493" y="750" type="line"/>
    </contour>
  </outline>
</glyph>
<glyph name="O" format="2">
  <advance width="635.6530612244899"/>
  <unicode hex="004F"/>
  <outline>
    <contour>
      <point x="418" y="-12" type="curve" smooth="yes"/>
      <point x="452" y="-12"/>
      <point x="464" y="5"/>
      <point x="481" y="11" type="curve" smooth="yes"/>
      <point x="504" y="19"/>
      <point x="509" y="26"/>
      <point x="521" y="39" type="curve" smooth="yes"/>
      <point x="534" y="53"/>
      <point x="542" y="65"/>
      <point x="545" y="69" type="curve" smooth="yes"/>
      <point x="557" y="93"/>
      <point x="549" y="80"/>
      <point x="562" y="111" type="curve" smooth="yes"/>
      <point x="577" y="144"/>
      <point x="584" y="161"/>
      <point x="598" y="205" type="curve" smooth="yes"/>
      <point x="609" y="241"/>
      <point x="613" y="295"/>
      <point x="615" y="393" type="curve" smooth="yes"/>
      <point x="615" y="425"/>
      <point x="617" y="424"/>
      <point x="614" y="456" type="curve" smooth="yes"/>
      <point x="614" y="461"/>
      <point x="609" y="483"/>
      <point x="609" y="488" type="curve" smooth="yes"/>
      <point x="609" y="516"/>
      <point x="603" y="516"/>
      <point x="603" y="544" type="curve" smooth="yes"/>
      <point x="603" y="562"/>
      <point x="595" y="588"/>
      <point x="584" y="608" type="curve"/>
      <point x="581" y="612"/>
      <point x="579" y="616"/>
      <point x="576" y="620" type="curve" smooth="yes"/>
      <point x="549" y="653"/>
      <point x="508" y="702"/>
      <point x="470" y="726" type="curve" smooth="yes"/>
      <point x="444" y="742"/>
      <point x="381" y="753"/>
      <point x="344" y="753" type="curve" smooth="yes"/>
      <point x="302" y="753"/>
      <point x="257" y="738"/>
      <point x="221" y="726" type="curve" smooth="yes"/>
      <point x="185" y="713"/>
      <point x="174" y="702"/>
      <point x="143" y="681" type="curve" smooth="yes"/>
      <point x="122" y="667"/>
      <point x="128" y="673"/>
      <point x="98" y="643" type="curve" smooth="yes"/>
      <point x="91" y="636"/>
      <point x="84" y="626"/>
      <point x="72" y="601" type="curve" smooth="yes"/>
      <point x="64" y="584"/>
      <point x="61" y="573"/>
      <point x="41" y="521" type="curve" smooth="yes"/>
      <point x="28" y="488"/>
      <point x="20" y="468"/>
      <point x="20" y="434" type="curve" smooth="yes"/>
      <point x="20" y="295"/>
      <point x="53" y="138"/>
      <point x="76" y="109" type="curve" smooth="yes"/>
      <point x="101" y="78"/>
      <point x="101" y="78"/>
      <point x="122" y="58" type="curve" smooth="yes"/>
      <point x="143" y="39"/>
      <point x="147" y="32"/>
      <point x="185" y="16" type="curve" smooth="yes"/>
      <point x="196" y="11"/>
      <point x="203" y="9"/>
      <point x="221" y="4" type="curve" smooth="yes"/>
      <point x="271" y="-10"/>
      <point x="255" y="-12"/>
      <point x="293" y="-12" type="curve" smooth="yes"/>
      <point x="333" y="-12"/>
      <point x="340" y="-13"/>
      <point x="359" y="-12" type="curve" smooth="yes"/>
      <point x="374" y="-11"/>
      <point x="396" y="-12"/>
    </contour>
    <contour>
      <point x="332" y="110" type="curve" smooth="yes"/>
      <point x="262" y="110"/>
      <point x="305" y="110"/>
      <point x="240" y="110" type="curve" smooth="yes"/>
      <point x="210" y="110"/>
      <point x="199" y="122"/>
      <point x="182" y="144" type="curve" smooth="yes"/>
      <point x="172" y="158"/>
      <point x="126" y="268"/>
      <point x="126" y="326" type="curve" smooth="yes"/>
      <point x="126" y="326"/>
      <point x="111" y="450"/>
      <point x="133" y="501" type="curve" smooth="yes"/>
      <point x="155" y="553"/>
      <point x="172" y="622"/>
      <point x="232" y="622" type="curve"/>
      <point x="249" y="628"/>
      <point x="357" y="634"/>
      <point x="375" y="633" type="curve" smooth="yes"/>
      <point x="435" y="622"/>
      <point x="488" y="599"/>
      <point x="510" y="501" type="curve" smooth="yes"/>
      <point x="511" y="487"/>
      <point x="523" y="305"/>
      <point x="518" y="266" type="curve" smooth="yes"/>
      <point x="510" y="219"/>
      <point x="503" y="159"/>
      <point x="487" y="144" type="curve" smooth="yes"/>
      <point x="466" y="122"/>
      <point x="433" y="110"/>
      <point x="414" y="110" type="curve" smooth="yes"/>
      <point x="362" y="110"/>
      <point x="384" y="110"/>
    </contour>
  </outline>
</glyph>
<glyph name="P" format="2">
  <advance width="541.9791109809198"/>
  <unicode hex="0050"/>
  <outline>
    <contour>
      <point x="385.37635609093365" y="4" type="line" smooth="yes"/>
      <point x="410.37635609093365" y="6"/>
      <point x="404.37635609093365" y="7"/>
      <point x="387.37635609093365" y="10" type="curve" smooth="yes"/>
      <point x="354.37635609093365" y="16"/>
      <point x="258.37635609093365" y="27"/>
      <point x="237.37635609093363" y="64" type="curve" smooth="yes"/>
      <point x="206.60611948182355" y="111.74691887620529"/>
      <point x="226.37635609093363" y="395"/>
      <point x="287.37635609093365" y="428" type="curve" smooth="yes"/>
      <point x="331.37635609093365" y="452"/>
      <point x="499.37635609093365" y="512"/>
      <point x="511.37635609093365" y="630" type="curve" smooth="yes"/>
      <point x="524.3763560909337" y="747"/>
      <point x="323.37635609093365" y="803"/>
      <point x="267.37635609093365" y="673" type="curve" smooth="yes"/>
      <point x="210.37635609093363" y="542"/>
      <point x="171.37635609093363" y="342"/>
      <point x="149.37635609093363" y="253" type="curve" smooth="yes"/>
      <point x="126.37635609093363" y="163"/>
      <point x="127.37635609093363" y="149"/>
      <point x="116.37635609093363" y="120" type="curve" smooth="yes"/>
      <point x="100.37635609093363" y="76"/>
      <point x="114.37635609093363" y="81"/>
      <point x="68.37635609093363" y="27" type="curve" smooth="yes"/>
      <point x="55.376356090933626" y="13"/>
      <point x="58.376356090933626" y="16"/>
      <point x="49.376356090933626" y="9" type="curve" smooth="yes"/>
      <point x="28.37635609093363" y="-6"/>
      <point x="14.37635609093363" y="-1"/>
      <point x="62.376356090933626" y="1" type="curve" smooth="yes"/>
      <point x="84.37635609093363" y="3"/>
      <point x="148.37635609093363" y="1"/>
      <point x="180.37635609093363" y="3" type="curve" smooth="yes"/>
      <point x="221.37635609093363" y="4"/>
      <point x="290.37635609093365" y="4"/>
      <point x="324.37635609093365" y="4" type="curve" smooth="yes"/>
      <point x="331.37635609093365" y="4"/>
      <point x="345.37635609093365" y="3"/>
      <point x="349.37635609093365" y="3" type="curve" smooth="yes"/>
    </contour>
    <contour>
      <point x="344.37635609093365" y="667" type="curve" smooth="yes"/>
      <point x="344.37635609093365" y="669"/>
      <point x="344.37635609093365" y="666"/>
      <point x="345.37635609093365" y="669" type="curve" smooth="yes"/>
      <point x="346.37635609093365" y="675"/>
      <point x="361.37635609093365" y="681"/>
      <point x="376.37635609093365" y="682" type="curve" smooth="yes"/>
      <point x="392.37635609093365" y="683"/>
      <point x="446.37635609093365" y="686"/>
      <point x="440.37635609093365" y="626" type="curve" smooth="yes"/>
      <point x="435.37635609093365" y="565"/>
      <point x="292.37635609093365" y="523"/>
      <point x="294.37635609093365" y="534" type="curve" smooth="yes"/>
      <point x="295.37635609093365" y="546"/>
      <point x="324.37635609093365" y="577"/>
    </contour>
  </outline>
</glyph>
<glyph name="Q" format="2">
  <advance width="788.1239511741036"/>
  <unicode hex="0051"/>
  <outline>
    <contour>
      <point x="411" y="150" type="curve" smooth="yes"/>
      <point x="309" y="150"/>
      <point x="183" y="169"/>
      <point x="183" y="374" type="curve" smooth="yes"/>
      <point x="183" y="551"/>
      <point x="308" y="598"/>
      <point x="411" y="598" type="curve" smooth="yes"/>
      <point x="528" y="598"/>
      <point x="616" y="551"/>
      <point x="616" y="374" type="curve" smooth="yes"/>
      <point x="616" y="169"/>
      <point x="528" y="150"/>
    </contour>
    <contour>
      <point x="411" y="290" type="line"/>
      <point x="469" y="104" type="line"/>
      <point x="637" y="-17" type="line"/>
      <point x="557" y="164" type="line"/>
    </contour>
    <contour>
      <point x="601" y="37" type="curve" smooth="yes"/>
      <point x="616" y="51"/>
      <point x="748" y="127"/>
      <point x="768" y="395" type="curve" smooth="yes"/>
      <point x="771" y="452"/>
      <point x="719" y="598"/>
      <point x="671" y="657" type="curve" smooth="yes"/>
      <point x="618" y="721"/>
      <point x="496" y="773"/>
      <point x="411" y="773" type="curve" smooth="yes"/>
      <point x="309" y="773"/>
      <point x="220" y="719"/>
      <point x="177" y="694" type="curve" smooth="yes"/>
      <point x="103" y="649"/>
      <point x="20" y="508"/>
      <point x="20" y="395" type="curve" smooth="yes"/>
      <point x="20" y="244"/>
      <point x="85" y="128"/>
      <point x="100" y="105" type="curve" smooth="yes"/>
      <point x="133" y="61"/>
      <point x="183" y="23"/>
      <point x="225" y="1" type="curve" smooth="yes"/>
      <point x="320" y="-46"/>
      <point x="538" y="-20"/>
    </contour>
  </outline>
</glyph>
<glyph name="R" format="2">
  <advance width="741"/>
  <unicode hex="0052"/>
  <outline>
    <contour>
      <point x="50" y="-1" type="curve"/>
      <point x="50" y="750" type="line"/>
      <point x="691" y="750" type="line"/>
      <point x="691" y="359" type="line"/>
      <point x="205" y="359" type="line"/>
      <point x="205" y="464" type="line"/>
      <point x="622" y="464" type="line"/>
      <point x="622" y="700" type="line"/>
      <point x="162" y="700" type="line"/>
      <point x="162" y="317" type="line"/>
      <point x="647" y="317" type="line"/>
      <point x="647" y="-1" type="line"/>
      <point x="520" y="-1" type="line"/>
      <point x="520" y="245" type="line"/>
      <point x="164" y="245" type="line"/>
      <point x="164" y="-1" type="line"/>
      <point x="164" y="-1"/>
      <point x="50" y="3"/>
    </contour>
  </outline>
</glyph>
<glyph name="S" format="2">
  <advance width="806"/>
  <unicode hex="0053"/>
  <outline>
    <contour>
      <point x="786" y="321" type="line"/>
      <point x="418" y="682" type="line"/>
      <point x="96" y="280" type="line"/>
      <point x="777" y="274" type="line"/>
      <point x="383" y="-13" type="line"/>
      <point x="20" y="176" type="line"/>
      <point x="378" y="40" type="line"/>
      <point x="641" y="241" type="line"/>
      <point x="20" y="255" type="line"/>
      <point x="412" y="762" type="line"/>
    </contour>
  </outline>
</glyph>
<glyph name="T" format="2">
  <advance width="396.2"/>
  <unicode hex="0054"/>
  <outline>
    <contour>
      <point x="143.2" y="5" type="qcurve"/>
      <point x="143.2" y="5" type="line"/>
      <point x="143.2" y="5"/>
      <point x="157.2" y="5"/>
      <point x="166.2" y="5" type="qcurve" smooth="yes"/>
      <point x="169.2" y="5"/>
      <point x="176.2" y="6"/>
      <point x="180.2" y="6" type="qcurve"/>
      <point x="197.2" y="1"/>
      <point x="231.2" y="-10"/>
      <point x="247.2" y="7" type="qcurve"/>
      <point x="258.2" y="22"/>
      <point x="263.2" y="71"/>
      <point x="259.2" y="128"/>
      <point x="255.2" y="151" type="qcurve" smooth="yes"/>
      <point x="254.2" y="158"/>
      <point x="251.2" y="170"/>
      <point x="252.2" y="177" type="qcurve"/>
      <point x="252.2" y="181"/>
      <point x="252.2" y="188"/>
      <point x="252.2" y="195"/>
      <point x="252.2" y="196" type="qcurve"/>
      <point x="254.2" y="211"/>
      <point x="254.2" y="239"/>
      <point x="254.2" y="267"/>
      <point x="252.2" y="280" type="qcurve"/>
      <point x="252.2" y="288"/>
      <point x="252.2" y="304"/>
      <point x="252.2" y="310" type="qcurve" smooth="yes"/>
      <point x="252.2" y="318"/>
      <point x="252.2" y="334"/>
      <point x="254.2" y="341" type="qcurve"/>
      <point x="254.2" y="345"/>
      <point x="255.2" y="354"/>
      <point x="256.2" y="364"/>
      <point x="256.2" y="374"/>
      <point x="256.2" y="378" type="qcurve"/>
      <point x="258.2" y="387"/>
      <point x="258.2" y="403"/>
      <point x="258.2" y="409" type="qcurve"/>
      <point x="260.2" y="427"/>
      <point x="258.2" y="458"/>
      <point x="255.2" y="476" type="qcurve"/>
      <point x="263.2" y="476"/>
      <point x="281.2" y="473"/>
      <point x="299.2" y="469"/>
      <point x="307.2" y="468" type="qcurve"/>
      <point x="320.2" y="466"/>
      <point x="330.2" y="468" type="qcurve"/>
      <point x="336.2" y="470"/>
      <point x="345.2" y="478"/>
      <point x="350.2" y="484" type="qcurve"/>
      <point x="353.2" y="487"/>
      <point x="354.2" y="503"/>
      <point x="354.2" y="511" type="qcurve"/>
      <point x="357.2" y="522"/>
      <point x="360.2" y="542"/>
      <point x="361.2" y="552" type="qcurve"/>
      <point x="366.2" y="579"/>
      <point x="366.2" y="629"/>
      <point x="363.2" y="656" type="qcurve"/>
      <point x="362.2" y="661"/>
      <point x="361.2" y="671"/>
      <point x="361.2" y="677" type="qcurve" smooth="yes"/>
      <point x="362.2" y="707"/>
      <point x="345.2" y="755"/>
      <point x="328.2" y="764" type="qcurve"/>
      <point x="319.2" y="771"/>
      <point x="300.2" y="768"/>
      <point x="281.2" y="759"/>
      <point x="263.2" y="749"/>
      <point x="254.2" y="749" type="qcurve" smooth="yes"/>
      <point x="251.2" y="749"/>
      <point x="247.2" y="749"/>
      <point x="244.2" y="749" type="qcurve" smooth="yes"/>
      <point x="236.2" y="749"/>
      <point x="221.2" y="747"/>
      <point x="214.2" y="743" type="qcurve"/>
      <point x="213.2" y="743"/>
      <point x="210.2" y="742"/>
      <point x="207.2" y="742" type="qcurve"/>
      <point x="205.2" y="740"/>
      <point x="202.2" y="740"/>
      <point x="199.2" y="740" type="qcurve"/>
      <point x="190.2" y="742"/>
      <point x="173.2" y="743"/>
      <point x="164.2" y="744" type="qcurve"/>
      <point x="160.2" y="744"/>
      <point x="153.2" y="744"/>
      <point x="150.2" y="744" type="qcurve"/>
      <point x="137.2" y="747"/>
      <point x="105.19999999999999" y="753"/>
      <point x="74.19999999999999" y="751"/>
      <point x="47.19999999999999" y="728"/>
      <point x="41.19999999999999" y="700" type="qcurve" smooth="yes"/>
      <point x="39.19999999999999" y="695"/>
      <point x="37.19999999999999" y="687"/>
      <point x="35.19999999999999" y="682" type="qcurve"/>
      <point x="31.19999999999999" y="661"/>
      <point x="29.19999999999999" y="611"/>
      <point x="33.19999999999999" y="587" type="qcurve" smooth="yes"/>
      <point x="34.19999999999999" y="577"/>
      <point x="38.19999999999999" y="559"/>
      <point x="42.19999999999999" y="551" type="qcurve"/>
      <point x="38.19999999999999" y="502"/>
      <point x="66.19999999999999" y="469"/>
      <point x="86.19999999999999" y="468" type="qcurve"/>
      <point x="88.19999999999999" y="466"/>
      <point x="95.19999999999999" y="468"/>
      <point x="99.19999999999999" y="468" type="qcurve" smooth="yes"/>
      <point x="105.19999999999999" y="468"/>
      <point x="108.19999999999999" y="466" type="qcurve"/>
      <point x="115.19999999999999" y="469"/>
      <point x="120.19999999999999" y="457"/>
      <point x="124.19999999999999" y="436"/>
      <point x="129.2" y="411"/>
      <point x="137.2" y="400" type="qcurve"/>
      <point x="137.2" y="395"/>
      <point x="137.2" y="387"/>
      <point x="137.2" y="380" type="qcurve" smooth="yes"/>
      <point x="137.2" y="376"/>
      <point x="137.2" y="368"/>
      <point x="137.2" y="364" type="qcurve"/>
      <point x="140.2" y="347" type="line"/>
      <point x="140.2" y="347"/>
      <point x="137.2" y="326"/>
      <point x="137.2" y="314" type="qcurve"/>
      <point x="136.2" y="305"/>
      <point x="135.2" y="286"/>
      <point x="133.2" y="276" type="qcurve"/>
      <point x="133.2" y="265"/>
      <point x="132.2" y="249"/>
      <point x="131.2" y="240" type="qcurve"/>
      <point x="131.2" y="210"/>
      <point x="133.2" y="146"/>
      <point x="135.2" y="116" type="qcurve"/>
      <point x="136.2" y="102"/>
      <point x="137.2" y="83"/>
      <point x="137.2" y="72" type="qcurve" smooth="yes"/>
      <point x="137.2" y="13" type="line" smooth="yes"/>
      <point x="137.2" y="10"/>
      <point x="141.2" y="5"/>
    </contour>
    <contour>
      <point x="231.2" y="9" type="qcurve"/>
      <point x="231.2" y="9" type="line"/>
      <point x="231.2" y="9"/>
      <point x="225.2" y="7"/>
      <point x="219.2" y="7" type="qcurve"/>
      <point x="210.2" y="2"/>
      <point x="198.2" y="22"/>
      <point x="191.2" y="24" type="qcurve"/>
      <point x="191.2" y="15"/>
      <point x="184.2" y="19"/>
      <point x="174.2" y="26"/>
      <point x="172.2" y="22" type="qcurve"/>
      <point x="170.2" y="30"/>
      <point x="166.2" y="38"/>
      <point x="164.2" y="38" type="qcurve" smooth="yes"/>
      <point x="156.2" y="38"/>
      <point x="156.2" y="22" type="qcurve"/>
      <point x="148.2" y="22" type="line"/>
      <point x="148.2" y="46" type="line"/>
      <point x="150.2" y="48"/>
      <point x="153.2" y="55"/>
      <point x="153.2" y="57" type="qcurve" smooth="yes"/>
      <point x="153.2" y="67"/>
      <point x="148.2" y="72" type="qcurve"/>
      <point x="147.2" y="83"/>
      <point x="148.2" y="99"/>
      <point x="150.2" y="114"/>
      <point x="149.2" y="122" type="qcurve"/>
      <point x="148.2" y="137"/>
      <point x="143.2" y="182"/>
      <point x="143.2" y="196" type="qcurve" smooth="yes"/>
      <point x="143.2" y="219"/>
      <point x="144.2" y="269"/>
      <point x="145.2" y="290" type="qcurve"/>
      <point x="147.2" y="293"/>
      <point x="143.2" y="302"/>
      <point x="144.2" y="308" type="qcurve"/>
      <point x="145.2" y="317"/>
      <point x="149.2" y="335"/>
      <point x="153.2" y="345" type="qcurve"/>
      <point x="153.2" y="349"/>
      <point x="150.2" y="355"/>
      <point x="149.2" y="358" type="qcurve"/>
      <point x="148.2" y="379" type="line"/>
      <point x="148.2" y="387"/>
      <point x="147.2" y="398"/>
      <point x="150.2" y="403" type="qcurve"/>
      <point x="145.2" y="409"/>
      <point x="137.2" y="428"/>
      <point x="133.2" y="450"/>
      <point x="135.2" y="474"/>
      <point x="136.2" y="486" type="qcurve"/>
      <point x="137.2" y="491"/>
      <point x="133.2" y="503"/>
      <point x="131.2" y="505" type="qcurve"/>
      <point x="124.19999999999999" y="505"/>
      <point x="113.19999999999999" y="482"/>
      <point x="105.19999999999999" y="486" type="qcurve"/>
      <point x="104.19999999999999" y="485"/>
      <point x="99.19999999999999" y="484"/>
      <point x="96.19999999999999" y="482" type="qcurve"/>
      <point x="87.19999999999999" y="481"/>
      <point x="64.19999999999999" y="486"/>
      <point x="54.19999999999999" y="495" type="qcurve"/>
      <point x="53.19999999999999" y="495"/>
      <point x="57.19999999999999" y="506"/>
      <point x="55.19999999999999" y="509" type="qcurve"/>
      <point x="49.19999999999999" y="532"/>
      <point x="46.19999999999999" y="583"/>
      <point x="42.19999999999999" y="604" type="qcurve"/>
      <point x="41.19999999999999" y="614"/>
      <point x="42.19999999999999" y="636"/>
      <point x="43.19999999999999" y="645" type="qcurve"/>
      <point x="46.19999999999999" y="652"/>
      <point x="47.19999999999999" y="661"/>
      <point x="49.19999999999999" y="666" type="qcurve"/>
      <point x="51.19999999999999" y="671"/>
      <point x="54.19999999999999" y="679"/>
      <point x="55.19999999999999" y="682" type="qcurve"/>
      <point x="50.19999999999999" y="691"/>
      <point x="51.19999999999999" y="716"/>
      <point x="57.19999999999999" y="723" type="qcurve" smooth="yes"/>
      <point x="64.19999999999999" y="734"/>
      <point x="75.19999999999999" y="707"/>
      <point x="80.19999999999999" y="698" type="qcurve"/>
      <point x="83.19999999999999" y="695"/>
      <point x="88.19999999999999" y="693"/>
      <point x="90.19999999999999" y="693" type="qcurve"/>
      <point x="92.19999999999999" y="697"/>
      <point x="94.19999999999999" y="708"/>
      <point x="95.19999999999999" y="710" type="qcurve"/>
      <point x="104.19999999999999" y="723"/>
      <point x="124.19999999999999" y="700"/>
      <point x="133.2" y="698" type="qcurve"/>
      <point x="136.2" y="697"/>
      <point x="137.2" y="708"/>
      <point x="143.2" y="723"/>
      <point x="148.2" y="724" type="qcurve"/>
      <point x="150.2" y="724"/>
      <point x="154.2" y="722"/>
      <point x="156.2" y="718" type="qcurve"/>
      <point x="158.2" y="716"/>
      <point x="162.2" y="708"/>
      <point x="164.2" y="704" type="qcurve"/>
      <point x="166.2" y="703"/>
      <point x="168.2" y="700"/>
      <point x="170.2" y="703" type="qcurve"/>
      <point x="177.2" y="714"/>
      <point x="186.2" y="727"/>
      <point x="195.2" y="722" type="qcurve"/>
      <point x="197.2" y="722"/>
      <point x="198.2" y="712"/>
      <point x="199.2" y="712" type="qcurve"/>
      <point x="202.2" y="711"/>
      <point x="207.2" y="723"/>
      <point x="210.2" y="724" type="qcurve"/>
      <point x="213.2" y="724"/>
      <point x="219.2" y="726"/>
      <point x="223.2" y="727" type="qcurve"/>
      <point x="223.2" y="719"/>
      <point x="231.2" y="706"/>
      <point x="234.2" y="712" type="qcurve"/>
      <point x="236.2" y="716"/>
      <point x="240.2" y="723"/>
      <point x="242.2" y="724" type="qcurve" smooth="yes"/>
      <point x="244.2" y="727"/>
      <point x="248.2" y="728"/>
      <point x="251.2" y="730" type="qcurve"/>
      <point x="255.2" y="728"/>
      <point x="262.2" y="731"/>
      <point x="264.2" y="724" type="qcurve"/>
      <point x="266.2" y="723"/>
      <point x="264.2" y="710"/>
      <point x="267.2" y="710" type="qcurve"/>
      <point x="267.2" y="716"/>
      <point x="272.2" y="728"/>
      <point x="274.2" y="731" type="qcurve"/>
      <point x="284.2" y="742"/>
      <point x="296.2" y="720"/>
      <point x="304.2" y="710" type="qcurve"/>
      <point x="311.2" y="704"/>
      <point x="326.2" y="719"/>
      <point x="333.2" y="723" type="qcurve"/>
      <point x="340.2" y="726"/>
      <point x="358.2" y="708"/>
      <point x="354.2" y="686" type="qcurve"/>
      <point x="353.2" y="674"/>
      <point x="352.2" y="653"/>
      <point x="350.2" y="641" type="qcurve"/>
      <point x="350.2" y="637"/>
      <point x="350.2" y="628"/>
      <point x="350.2" y="622" type="qcurve" smooth="yes"/>
      <point x="350.2" y="617"/>
      <point x="350.2" y="607"/>
      <point x="350.2" y="601" type="qcurve"/>
      <point x="348.2" y="575"/>
      <point x="352.2" y="514"/>
      <point x="341.2" y="501" type="qcurve"/>
      <point x="340.2" y="495"/>
      <point x="332.2" y="490"/>
      <point x="328.2" y="489" type="qcurve"/>
      <point x="321.2" y="486"/>
      <point x="309.2" y="487" type="qcurve"/>
      <point x="300.2" y="490"/>
      <point x="280.2" y="498"/>
      <point x="270.2" y="499" type="qcurve"/>
      <point x="264.2" y="499"/>
      <point x="255.2" y="498"/>
      <point x="250.2" y="495" type="qcurve"/>
      <point x="243.2" y="491"/>
      <point x="242.2" y="481" type="qcurve"/>
      <point x="240.2" y="476"/>
      <point x="242.2" y="464"/>
      <point x="243.2" y="457" type="qcurve"/>
      <point x="240.2" y="461"/>
      <point x="234.2" y="466"/>
      <point x="229.2" y="466"/>
      <point x="226.2" y="462" type="qcurve"/>
      <point x="223.2" y="457"/>
      <point x="226.2" y="446"/>
      <point x="231.2" y="437"/>
      <point x="234.2" y="433" type="qcurve"/>
      <point x="236.2" y="431"/>
      <point x="243.2" y="436"/>
      <point x="247.2" y="432" type="qcurve"/>
      <point x="250.2" y="431"/>
      <point x="250.2" y="416"/>
      <point x="250.2" y="409" type="qcurve" smooth="yes"/>
      <point x="250.2" y="404"/>
      <point x="247.2" y="388"/>
      <point x="247.2" y="380" type="qcurve"/>
      <point x="243.2" y="386"/>
      <point x="234.2" y="382"/>
      <point x="231.2" y="375" type="qcurve"/>
      <point x="230.2" y="371"/>
      <point x="230.2" y="362"/>
      <point x="233.2" y="357"/>
      <point x="234.2" y="355" type="qcurve"/>
      <point x="236.2" y="355"/>
      <point x="243.2" y="354"/>
      <point x="244.2" y="358" type="qcurve"/>
      <point x="244.2" y="353"/>
      <point x="244.2" y="337"/>
      <point x="243.2" y="330" type="qcurve" smooth="yes"/>
      <point x="242.2" y="325"/>
      <point x="238.2" y="321"/>
      <point x="233.2" y="322" type="qcurve"/>
      <point x="231.2" y="321"/>
      <point x="231.2" y="315"/>
      <point x="234.2" y="310"/>
      <point x="234.2" y="308" type="qcurve"/>
      <point x="240.2" y="306"/>
      <point x="246.2" y="289"/>
      <point x="247.2" y="265"/>
      <point x="247.2" y="252" type="qcurve"/>
      <point x="244.2" y="259"/>
      <point x="238.2" y="253"/>
      <point x="236.2" y="247" type="qcurve"/>
      <point x="236.2" y="241"/>
      <point x="235.2" y="228"/>
      <point x="239.2" y="222" type="qcurve"/>
      <point x="243.2" y="219"/>
      <point x="247.2" y="227" type="qcurve"/>
      <point x="247.2" y="215"/>
      <point x="247.2" y="191"/>
      <point x="244.2" y="181" type="qcurve"/>
      <point x="243.2" y="182"/>
      <point x="236.2" y="185"/>
      <point x="234.2" y="182" type="qcurve"/>
      <point x="234.2" y="181"/>
      <point x="235.2" y="167"/>
      <point x="236.2" y="169" type="qcurve"/>
      <point x="239.2" y="167"/>
      <point x="244.2" y="167"/>
      <point x="247.2" y="165" type="qcurve"/>
      <point x="250.2" y="155"/>
      <point x="252.2" y="126"/>
      <point x="255.2" y="114" type="qcurve"/>
      <point x="254.2" y="120"/>
      <point x="246.2" y="126"/>
      <point x="242.2" y="121" type="qcurve"/>
      <point x="235.2" y="104"/>
      <point x="242.2" y="85" type="qcurve"/>
      <point x="243.2" y="77"/>
      <point x="252.2" y="71"/>
      <point x="255.2" y="81" type="qcurve"/>
      <point x="255.2" y="27"/>
    </contour>
    <contour>
      <point x="195.2" y="363" type="qcurve"/>
      <point x="195.2" y="363" type="line"/>
      <point x="197.2" y="360"/>
      <point x="201.2" y="360"/>
      <point x="202.2" y="364" type="qcurve"/>
      <point x="203.2" y="372"/>
      <point x="201.2" y="390"/>
      <point x="194.2" y="387" type="qcurve"/>
      <point x="189.2" y="383"/>
      <point x="191.2" y="366"/>
    </contour>
    <contour>
      <point x="189.2" y="347" type="qcurve"/>
      <point x="189.2" y="347" type="line"/>
      <point x="188.2" y="353"/>
      <point x="186.2" y="358"/>
      <point x="184.2" y="359" type="qcurve"/>
      <point x="181.2" y="359"/>
      <point x="174.2" y="353"/>
      <point x="176.2" y="347" type="qcurve"/>
      <point x="176.2" y="342"/>
      <point x="181.2" y="335"/>
      <point x="182.2" y="335" type="qcurve" smooth="yes"/>
      <point x="185.2" y="335"/>
      <point x="190.2" y="342"/>
    </contour>
    <contour>
      <point x="170.2" y="372" type="qcurve"/>
      <point x="170.2" y="372" type="line"/>
      <point x="172.2" y="382"/>
      <point x="164.2" y="388" type="qcurve"/>
      <point x="161.2" y="390"/>
      <point x="154.2" y="380"/>
      <point x="156.2" y="375" type="qcurve" smooth="yes"/>
      <point x="158.2" y="366"/>
      <point x="168.2" y="363"/>
    </contour>
    <contour>
      <point x="274.2" y="693" type="qcurve"/>
      <point x="274.2" y="691"/>
      <point x="274.2" y="683"/>
      <point x="274.2" y="678" type="qcurve" smooth="yes"/>
      <point x="274.2" y="669"/>
      <point x="280.2" y="646"/>
      <point x="285.2" y="652" type="qcurve"/>
      <point x="292.2" y="656"/>
      <point x="281.2" y="681"/>
      <point x="279.2" y="690" type="qcurve"/>
      <point x="277.2" y="693"/>
      <point x="276.2" y="698"/>
    </contour>
    <contour>
      <point x="210.2" y="702" type="qcurve"/>
      <point x="210.2" y="702" type="line"/>
      <point x="209.2" y="700"/>
      <point x="209.2" y="691"/>
      <point x="210.2" y="687" type="qcurve"/>
      <point x="213.2" y="683"/>
      <point x="218.2" y="674"/>
      <point x="219.2" y="678" type="qcurve"/>
      <point x="222.2" y="681"/>
      <point x="219.2" y="691" type="qcurve"/>
      <point x="218.2" y="694"/>
      <point x="214.2" y="702"/>
    </contour>
    <contour>
      <point x="214.2" y="55" type="qcurve"/>
      <point x="214.2" y="55" type="line"/>
      <point x="210.2" y="54"/>
      <point x="206.2" y="48"/>
      <point x="205.2" y="46" type="qcurve"/>
      <point x="203.2" y="35"/>
      <point x="209.2" y="23"/>
      <point x="218.2" y="20"/>
      <point x="221.2" y="20" type="qcurve"/>
      <point x="225.2" y="23"/>
      <point x="231.2" y="32"/>
      <point x="231.2" y="42" type="qcurve"/>
      <point x="230.2" y="52"/>
      <point x="219.2" y="55"/>
    </contour>
    <contour>
      <point x="160.2" y="666" type="qcurve"/>
      <point x="160.2" y="666" type="line"/>
      <point x="156.2" y="663"/>
      <point x="150.2" y="653"/>
      <point x="150.2" y="650" type="qcurve"/>
      <point x="154.2" y="648"/>
      <point x="161.2" y="653"/>
      <point x="165.2" y="663"/>
      <point x="164.2" y="669" type="qcurve"/>
      <point x="164.2" y="669"/>
      <point x="161.2" y="666"/>
    </contour>
    <contour>
      <point x="157.2" y="433" type="qcurve"/>
      <point x="156.2" y="432"/>
      <point x="152.2" y="429"/>
      <point x="150.2" y="427"/>
      <point x="149.2" y="425" type="qcurve"/>
      <point x="149.2" y="421"/>
      <point x="150.2" y="416"/>
      <point x="154.2" y="415"/>
      <point x="154.2" y="413" type="qcurve"/>
      <point x="161.2" y="411"/>
      <point x="173.2" y="413"/>
      <point x="174.2" y="427" type="qcurve"/>
      <point x="176.2" y="435"/>
      <point x="169.2" y="437"/>
      <point x="161.2" y="436"/>
    </contour>
    <contour>
      <point x="214.2" y="350" type="qcurve"/>
      <point x="211.2" y="350"/>
      <point x="209.2" y="342"/>
      <point x="210.2" y="339" type="qcurve" smooth="yes"/>
      <point x="213.2" y="334"/>
      <point x="221.2" y="329"/>
      <point x="223.2" y="333" type="qcurve"/>
      <point x="227.2" y="338"/>
      <point x="223.2" y="345"/>
      <point x="217.2" y="349"/>
    </contour>
    <contour>
      <point x="255.2" y="699" type="qcurve"/>
      <point x="255.2" y="699" type="line"/>
      <point x="251.2" y="695"/>
      <point x="246.2" y="681"/>
      <point x="247.2" y="674" type="qcurve"/>
      <point x="250.2" y="670"/>
      <point x="251.2" y="665"/>
      <point x="252.2" y="663" type="qcurve"/>
      <point x="256.2" y="662"/>
      <point x="260.2" y="663" type="qcurve"/>
      <point x="266.2" y="669"/>
      <point x="260.2" y="689"/>
      <point x="260.2" y="695" type="qcurve"/>
      <point x="259.2" y="698"/>
      <point x="258.2" y="700"/>
    </contour>
    <contour>
      <point x="234.2" y="658" type="qcurve"/>
      <point x="234.2" y="658" type="line"/>
      <point x="231.2" y="661"/>
      <point x="230.2" y="654"/>
      <point x="231.2" y="650" type="qcurve"/>
      <point x="234.2" y="644"/>
      <point x="240.2" y="633"/>
      <point x="243.2" y="641" type="qcurve"/>
      <point x="246.2" y="646"/>
      <point x="236.2" y="657"/>
    </contour>
    <contour>
      <point x="140.2" y="632" type="qcurve"/>
      <point x="140.2" y="632" type="line"/>
      <point x="139.2" y="630"/>
      <point x="136.2" y="621"/>
      <point x="137.2" y="614" type="qcurve"/>
      <point x="137.2" y="609"/>
      <point x="141.2" y="605"/>
      <point x="143.2" y="607" type="qcurve"/>
      <point x="144.2" y="609"/>
      <point x="145.2" y="622"/>
      <point x="145.2" y="628" type="qcurve" smooth="yes"/>
      <point x="145.2" y="637"/>
    </contour>
    <contour>
      <point x="161.2" y="99" type="qcurve"/>
      <point x="161.2" y="99" type="line"/>
      <point x="157.2" y="97"/>
      <point x="156.2" y="85"/>
      <point x="157.2" y="83" type="qcurve" smooth="yes"/>
      <point x="158.2" y="80"/>
      <point x="165.2" y="76"/>
      <point x="166.2" y="79" type="qcurve" smooth="yes"/>
      <point x="168.2" y="81"/>
      <point x="170.2" y="88"/>
      <point x="170.2" y="93" type="qcurve"/>
      <point x="168.2" y="104"/>
    </contour>
    <contour>
      <point x="176.2" y="71" type="qcurve"/>
      <point x="176.2" y="71" type="line"/>
      <point x="170.2" y="71"/>
      <point x="173.2" y="55" type="qcurve"/>
      <point x="174.2" y="51"/>
      <point x="177.2" y="38"/>
      <point x="180.2" y="42" type="qcurve"/>
      <point x="185.2" y="47"/>
      <point x="181.2" y="56" type="qcurve"/>
      <point x="180.2" y="61"/>
      <point x="178.2" y="69"/>
    </contour>
    <contour>
      <point x="127.19999999999999" y="656" type="qcurve"/>
      <point x="127.19999999999999" y="656" type="line"/>
      <point x="120.19999999999999" y="652"/>
      <point x="120.19999999999999" y="645" type="qcurve"/>
      <point x="125.19999999999999" y="636"/>
      <point x="131.2" y="641" type="qcurve" smooth="yes"/>
      <point x="136.2" y="646"/>
      <point x="133.2" y="654" type="qcurve"/>
      <point x="132.2" y="657"/>
      <point x="127.19999999999999" y="656"/>
    </contour>
    <contour>
      <point x="296.2" y="599" type="qcurve"/>
      <point x="296.2" y="599" type="line"/>
      <point x="295.2" y="597"/>
      <point x="295.2" y="587"/>
      <point x="296.2" y="581" type="qcurve"/>
      <point x="296.2" y="580"/>
      <point x="300.2" y="571"/>
      <point x="301.2" y="571" type="qcurve"/>
      <point x="308.2" y="570"/>
      <point x="303.2" y="596"/>
    </contour>
    <contour>
      <point x="61.19999999999999" y="712" type="qcurve"/>
      <point x="61.19999999999999" y="711" type="line"/>
      <point x="59.19999999999999" y="712"/>
      <point x="58.19999999999999" y="706"/>
      <point x="59.19999999999999" y="702" type="qcurve"/>
      <point x="62.19999999999999" y="697"/>
      <point x="68.19999999999999" y="682"/>
      <point x="70.19999999999999" y="686" type="qcurve"/>
      <point x="76.19999999999999" y="695"/>
      <point x="63.19999999999999" y="707"/>
    </contour>
    <contour>
      <point x="226.2" y="648" type="qcurve"/>
      <point x="226.2" y="648" type="line"/>
      <point x="226.2" y="648"/>
      <point x="225.2" y="645"/>
      <point x="226.2" y="642" type="qcurve"/>
      <point x="229.2" y="638"/>
      <point x="233.2" y="612"/>
      <point x="236.2" y="622" type="qcurve" smooth="yes"/>
      <point x="239.2" y="629"/>
      <point x="230.2" y="642"/>
    </contour>
    <contour>
      <point x="252.2" y="628" type="qcurve"/>
      <point x="252.2" y="628" type="line"/>
      <point x="251.2" y="626"/>
      <point x="250.2" y="618"/>
      <point x="251.2" y="614" type="qcurve"/>
      <point x="254.2" y="604"/>
      <point x="260.2" y="607" type="qcurve"/>
      <point x="263.2" y="608"/>
      <point x="264.2" y="617"/>
      <point x="263.2" y="622" type="qcurve"/>
      <point x="262.2" y="625"/>
      <point x="256.2" y="629"/>
    </contour>
    <contour>
      <point x="121.19999999999999" y="542" type="qcurve"/>
      <point x="121.19999999999999" y="542" type="line"/>
      <point x="120.19999999999999" y="540"/>
      <point x="117.19999999999999" y="531"/>
      <point x="116.19999999999999" y="528" type="qcurve"/>
      <point x="115.19999999999999" y="525"/>
      <point x="113.19999999999999" y="515"/>
      <point x="115.19999999999999" y="509"/>
      <point x="116.19999999999999" y="503" type="qcurve"/>
      <point x="117.19999999999999" y="509"/>
      <point x="123.19999999999999" y="522"/>
      <point x="125.19999999999999" y="536"/>
      <point x="124.19999999999999" y="543" type="qcurve"/>
      <point x="123.19999999999999" y="543"/>
      <point x="123.19999999999999" y="542"/>
    </contour>
    <contour>
      <point x="321.2" y="629" type="qcurve"/>
      <point x="321.2" y="629" type="line"/>
      <point x="317.2" y="626"/>
      <point x="312.2" y="622"/>
      <point x="311.2" y="620" type="qcurve"/>
      <point x="308.2" y="607"/>
      <point x="315.2" y="609"/>
      <point x="316.2" y="604" type="qcurve"/>
      <point x="321.2" y="603"/>
      <point x="325.2" y="604" type="qcurve" smooth="yes"/>
      <point x="329.2" y="605"/>
      <point x="334.2" y="613"/>
      <point x="336.2" y="618" type="qcurve"/>
      <point x="338.2" y="625"/>
      <point x="340.2" y="634"/>
      <point x="337.2" y="637" type="qcurve"/>
      <point x="334.2" y="638"/>
      <point x="325.2" y="632"/>
    </contour>
    <contour>
      <point x="199.2" y="507" type="qcurve"/>
      <point x="199.2" y="507" type="line"/>
      <point x="198.2" y="509"/>
      <point x="197.2" y="505"/>
      <point x="197.2" y="502" type="qcurve"/>
      <point x="199.2" y="501"/>
      <point x="202.2" y="494"/>
      <point x="203.2" y="494" type="qcurve"/>
      <point x="206.2" y="497"/>
      <point x="206.2" y="507"/>
    </contour>
    <contour>
      <point x="127.19999999999999" y="600" type="qcurve"/>
      <point x="127.19999999999999" y="600" type="line"/>
      <point x="125.19999999999999" y="599"/>
      <point x="124.19999999999999" y="588"/>
      <point x="125.19999999999999" y="581" type="qcurve"/>
      <point x="127.19999999999999" y="577"/>
      <point x="131.2" y="577"/>
      <point x="133.2" y="580" type="qcurve"/>
      <point x="136.2" y="585"/>
      <point x="133.2" y="592" type="qcurve"/>
      <point x="131.2" y="600"/>
    </contour>
    <contour>
      <point x="162.2" y="331" type="qcurve"/>
      <point x="162.2" y="331" type="line"/>
      <point x="158.2" y="330"/>
      <point x="153.2" y="321"/>
      <point x="153.2" y="317" type="qcurve" smooth="yes"/>
      <point x="153.2" y="312"/>
      <point x="160.2" y="308"/>
      <point x="164.2" y="309" type="qcurve"/>
      <point x="166.2" y="310"/>
      <point x="172.2" y="319"/>
      <point x="170.2" y="325" type="qcurve"/>
      <point x="170.2" y="327"/>
      <point x="165.2" y="333"/>
    </contour>
    <contour>
      <point x="202.2" y="261" type="qcurve"/>
      <point x="202.2" y="261" type="line"/>
      <point x="198.2" y="257"/>
      <point x="195.2" y="236"/>
      <point x="197.2" y="226" type="qcurve"/>
      <point x="197.2" y="218"/>
      <point x="205.2" y="210"/>
      <point x="209.2" y="215" type="qcurve"/>
      <point x="214.2" y="220"/>
      <point x="215.2" y="243"/>
      <point x="213.2" y="252" type="qcurve"/>
      <point x="211.2" y="259"/>
      <point x="205.2" y="260"/>
    </contour>
    <contour>
      <point x="162.2" y="177" type="qcurve"/>
      <point x="162.2" y="177" type="line"/>
      <point x="157.2" y="175"/>
      <point x="154.2" y="161"/>
      <point x="156.2" y="154" type="qcurve"/>
      <point x="161.2" y="145"/>
      <point x="172.2" y="143"/>
      <point x="177.2" y="155" type="qcurve"/>
      <point x="181.2" y="161"/>
      <point x="177.2" y="167" type="qcurve"/>
      <point x="176.2" y="169"/>
      <point x="172.2" y="173"/>
      <point x="170.2" y="174" type="qcurve"/>
      <point x="169.2" y="177"/>
      <point x="165.2" y="178"/>
    </contour>
    <contour>
      <point x="185.2" y="142" type="qcurve"/>
      <point x="185.2" y="142" type="line"/>
      <point x="182.2" y="138"/>
      <point x="177.2" y="126"/>
      <point x="177.2" y="121" type="qcurve" smooth="yes"/>
      <point x="177.2" y="117"/>
      <point x="177.2" y="113"/>
      <point x="178.2" y="112"/>
      <point x="180.2" y="113"/>
      <point x="181.2" y="114" type="qcurve" smooth="yes"/>
      <point x="182.2" y="116"/>
      <point x="184.2" y="121"/>
      <point x="186.2" y="128"/>
      <point x="188.2" y="134"/>
      <point x="188.2" y="137" type="qcurve"/>
      <point x="189.2" y="142"/>
      <point x="188.2" y="146"/>
    </contour>
    <contour>
      <point x="217.2" y="161" type="qcurve"/>
      <point x="217.2" y="161" type="line"/>
      <point x="215.2" y="161"/>
      <point x="210.2" y="158"/>
      <point x="210.2" y="157" type="qcurve"/>
      <point x="206.2" y="143"/>
      <point x="207.2" y="141"/>
      <point x="211.2" y="146"/>
      <point x="214.2" y="147"/>
      <point x="213.2" y="141" type="qcurve"/>
      <point x="215.2" y="141"/>
      <point x="221.2" y="141"/>
      <point x="226.2" y="143"/>
      <point x="230.2" y="150"/>
      <point x="229.2" y="157" type="qcurve"/>
      <point x="229.2" y="161"/>
      <point x="226.2" y="162"/>
      <point x="222.2" y="162"/>
      <point x="218.2" y="161"/>
    </contour>
    <contour>
      <point x="185.2" y="699" type="qcurve"/>
      <point x="185.2" y="699" type="line"/>
      <point x="181.2" y="697"/>
      <point x="177.2" y="689"/>
      <point x="177.2" y="686" type="qcurve"/>
      <point x="180.2" y="685"/>
      <point x="186.2" y="686"/>
      <point x="188.2" y="687" type="qcurve"/>
      <point x="190.2" y="689"/>
      <point x="193.2" y="694"/>
      <point x="190.2" y="699" type="qcurve" smooth="yes"/>
      <point x="189.2" y="702"/>
      <point x="186.2" y="700"/>
    </contour>
    <contour>
      <point x="304.2" y="534" type="qcurve"/>
      <point x="304.2" y="534" type="line"/>
      <point x="303.2" y="534"/>
      <point x="300.2" y="527" type="qcurve"/>
      <point x="301.2" y="522"/>
      <point x="301.2" y="511"/>
      <point x="304.2" y="503"/>
      <point x="307.2" y="501" type="qcurve"/>
      <point x="307.2" y="498"/>
      <point x="312.2" y="498"/>
      <point x="313.2" y="499" type="qcurve"/>
      <point x="317.2" y="502"/>
      <point x="320.2" y="509"/>
      <point x="321.2" y="519"/>
      <point x="320.2" y="523" type="qcurve"/>
      <point x="319.2" y="528"/>
      <point x="309.2" y="536"/>
    </contour>
    <contour>
      <point x="88.19999999999999" y="517" type="qcurve"/>
      <point x="88.19999999999999" y="517" type="line"/>
      <point x="75.19999999999999" y="510"/>
      <point x="80.19999999999999" y="495" type="qcurve"/>
      <point x="83.19999999999999" y="494"/>
      <point x="86.19999999999999" y="491"/>
      <point x="87.19999999999999" y="490" type="qcurve"/>
      <point x="90.19999999999999" y="489"/>
      <point x="92.19999999999999" y="490"/>
      <point x="94.19999999999999" y="490" type="qcurve" smooth="yes"/>
      <point x="99.19999999999999" y="490"/>
      <point x="102.19999999999999" y="514"/>
      <point x="96.19999999999999" y="518" type="qcurve"/>
      <point x="91.19999999999999" y="521"/>
    </contour>
    <contour>
      <point x="271.2" y="599" type="qcurve"/>
      <point x="271.2" y="599" type="line"/>
      <point x="268.2" y="597"/>
      <point x="266.2" y="589"/>
      <point x="267.2" y="585" type="qcurve"/>
      <point x="270.2" y="580"/>
      <point x="272.2" y="576"/>
      <point x="275.2" y="576" type="qcurve"/>
      <point x="283.2" y="579"/>
      <point x="280.2" y="589" type="qcurve"/>
      <point x="280.2" y="593"/>
      <point x="275.2" y="601"/>
    </contour>
    <contour>
      <point x="172.2" y="550" type="qcurve"/>
      <point x="172.2" y="550" type="line"/>
      <point x="168.2" y="556"/>
      <point x="165.2" y="555"/>
      <point x="168.2" y="550" type="qcurve"/>
      <point x="173.2" y="544"/>
      <point x="180.2" y="525"/>
      <point x="186.2" y="525" type="qcurve"/>
      <point x="185.2" y="535"/>
      <point x="176.2" y="543"/>
    </contour>
    <contour>
      <point x="227.2" y="548" type="qcurve" smooth="yes"/>
      <point x="225.2" y="543"/>
      <point x="221.2" y="532"/>
      <point x="219.2" y="530" type="qcurve"/>
      <point x="218.2" y="526"/>
      <point x="215.2" y="522"/>
      <point x="214.2" y="518" type="qcurve"/>
      <point x="219.2" y="521"/>
      <point x="227.2" y="531"/>
      <point x="233.2" y="547"/>
      <point x="231.2" y="556" type="qcurve"/>
      <point x="230.2" y="554"/>
      <point x="229.2" y="551"/>
    </contour>
    <contour>
      <point x="199.2" y="171" type="qcurve"/>
      <point x="199.2" y="171" type="line"/>
      <point x="198.2" y="170"/>
      <point x="194.2" y="163"/>
      <point x="195.2" y="161" type="qcurve"/>
      <point x="198.2" y="159"/>
      <point x="202.2" y="161"/>
      <point x="203.2" y="162" type="qcurve" smooth="yes"/>
      <point x="206.2" y="165"/>
      <point x="207.2" y="170"/>
      <point x="206.2" y="171" type="qcurve"/>
      <point x="205.2" y="175"/>
      <point x="202.2" y="174"/>
    </contour>
    <contour>
      <point x="156.2" y="554" type="qcurve"/>
      <point x="156.2" y="554" type="line"/>
      <point x="152.2" y="554"/>
      <point x="149.2" y="548"/>
      <point x="150.2" y="542" type="qcurve"/>
      <point x="153.2" y="540"/>
      <point x="162.2" y="530"/>
      <point x="166.2" y="527" type="qcurve"/>
      <point x="166.2" y="522"/>
      <point x="174.2" y="522"/>
      <point x="174.2" y="528" type="qcurve"/>
      <point x="173.2" y="539"/>
      <point x="162.2" y="550"/>
    </contour>
    <contour>
      <point x="274.2" y="540" type="qcurve"/>
      <point x="274.2" y="540" type="line"/>
      <point x="272.2" y="539"/>
      <point x="270.2" y="531"/>
      <point x="270.2" y="521"/>
      <point x="271.2" y="515" type="qcurve"/>
      <point x="271.2" y="507"/>
      <point x="280.2" y="499"/>
      <point x="283.2" y="509" type="qcurve"/>
      <point x="284.2" y="517"/>
      <point x="283.2" y="530"/>
      <point x="279.2" y="539"/>
    </contour>
    <contour>
      <point x="213.2" y="491" type="qcurve"/>
      <point x="213.2" y="491" type="line"/>
      <point x="209.2" y="489"/>
      <point x="210.2" y="480" type="qcurve"/>
      <point x="209.2" y="476"/>
      <point x="217.2" y="473"/>
      <point x="218.2" y="476" type="qcurve"/>
      <point x="221.2" y="478"/>
      <point x="221.2" y="484"/>
      <point x="221.2" y="486" type="qcurve"/>
      <point x="219.2" y="489"/>
      <point x="215.2" y="491"/>
    </contour>
    <contour>
      <point x="181.2" y="415" type="qcurve"/>
      <point x="181.2" y="415" type="line"/>
      <point x="178.2" y="411"/>
      <point x="174.2" y="404"/>
      <point x="176.2" y="400" type="qcurve"/>
      <point x="177.2" y="395"/>
      <point x="181.2" y="391"/>
      <point x="184.2" y="392" type="qcurve"/>
      <point x="188.2" y="395"/>
      <point x="188.2" y="408" type="qcurve" smooth="yes"/>
      <point x="188.2" y="413"/>
      <point x="184.2" y="417"/>
    </contour>
    <contour>
      <point x="213.2" y="431" type="qcurve"/>
      <point x="213.2" y="431" type="line"/>
      <point x="211.2" y="429"/>
      <point x="209.2" y="424"/>
      <point x="207.2" y="420" type="qcurve" smooth="yes"/>
      <point x="206.2" y="416"/>
      <point x="206.2" y="408"/>
      <point x="206.2" y="405" type="qcurve"/>
      <point x="207.2" y="398"/>
      <point x="214.2" y="391"/>
      <point x="215.2" y="392" type="qcurve"/>
      <point x="219.2" y="394"/>
      <point x="225.2" y="401"/>
      <point x="226.2" y="407" type="qcurve"/>
      <point x="226.2" y="413"/>
      <point x="223.2" y="420"/>
      <point x="221.2" y="424" type="qcurve"/>
      <point x="219.2" y="427"/>
      <point x="215.2" y="431"/>
    </contour>
    <contour>
      <point x="107.19999999999999" y="677" type="qcurve"/>
      <point x="107.19999999999999" y="677" type="line"/>
      <point x="100.19999999999999" y="673"/>
      <point x="105.19999999999999" y="662" type="qcurve"/>
      <point x="108.19999999999999" y="653"/>
      <point x="120.19999999999999" y="661"/>
      <point x="117.19999999999999" y="674" type="qcurve"/>
      <point x="116.19999999999999" y="678"/>
      <point x="109.19999999999999" y="678"/>
    </contour>
    <contour>
      <point x="180.2" y="306" type="qcurve"/>
      <point x="178.2" y="305"/>
      <point x="176.2" y="300"/>
      <point x="174.2" y="297" type="qcurve"/>
      <point x="173.2" y="292"/>
      <point x="176.2" y="272"/>
      <point x="180.2" y="272" type="qcurve" smooth="yes"/>
      <point x="185.2" y="272"/>
      <point x="191.2" y="286"/>
      <point x="191.2" y="294" type="qcurve" smooth="yes"/>
      <point x="191.2" y="305"/>
      <point x="184.2" y="309"/>
    </contour>
    <contour>
      <point x="219.2" y="302" type="qcurve"/>
      <point x="219.2" y="302" type="line"/>
      <point x="217.2" y="301"/>
      <point x="215.2" y="289"/>
      <point x="217.2" y="281" type="qcurve"/>
      <point x="219.2" y="274"/>
      <point x="225.2" y="268"/>
      <point x="226.2" y="269" type="qcurve"/>
      <point x="229.2" y="271"/>
      <point x="230.2" y="274"/>
      <point x="231.2" y="280"/>
      <point x="231.2" y="286"/>
      <point x="230.2" y="289" type="qcurve"/>
      <point x="230.2" y="292"/>
      <point x="227.2" y="297"/>
      <point x="225.2" y="301"/>
      <point x="221.2" y="302"/>
    </contour>
    <contour>
      <point x="156.2" y="261" type="qcurve"/>
      <point x="156.2" y="261" type="line"/>
      <point x="154.2" y="261"/>
      <point x="153.2" y="259"/>
      <point x="152.2" y="256"/>
      <point x="150.2" y="253"/>
      <point x="150.2" y="252" type="qcurve" smooth="yes"/>
      <point x="150.2" y="248"/>
      <point x="150.2" y="241"/>
      <point x="153.2" y="236"/>
      <point x="154.2" y="232"/>
      <point x="156.2" y="231" type="qcurve"/>
      <point x="160.2" y="224"/>
      <point x="170.2" y="227"/>
      <point x="168.2" y="241" type="qcurve"/>
      <point x="166.2" y="252"/>
      <point x="162.2" y="265"/>
    </contour>
    <contour>
      <point x="143.2" y="687" type="qcurve"/>
      <point x="143.2" y="687" type="line"/>
      <point x="139.2" y="683"/>
      <point x="136.2" y="671"/>
      <point x="137.2" y="667" type="qcurve"/>
      <point x="144.2" y="656"/>
      <point x="149.2" y="667"/>
      <point x="150.2" y="670" type="qcurve"/>
      <point x="153.2" y="673"/>
      <point x="153.2" y="681"/>
      <point x="150.2" y="682" type="qcurve"/>
      <point x="149.2" y="686"/>
      <point x="145.2" y="690"/>
    </contour>
    <contour>
      <point x="181.2" y="206" type="qcurve"/>
      <point x="178.2" y="204"/>
      <point x="178.2" y="190"/>
      <point x="180.2" y="183" type="qcurve"/>
      <point x="182.2" y="174"/>
      <point x="193.2" y="174"/>
      <point x="194.2" y="185" type="qcurve"/>
      <point x="194.2" y="192"/>
      <point x="186.2" y="207"/>
    </contour>
    <contour>
      <point x="221.2" y="207" type="qcurve"/>
      <point x="217.2" y="202"/>
      <point x="213.2" y="188"/>
      <point x="214.2" y="185" type="qcurve"/>
      <point x="217.2" y="182"/>
      <point x="222.2" y="182"/>
      <point x="227.2" y="187"/>
      <point x="231.2" y="194"/>
      <point x="231.2" y="199" type="qcurve" smooth="yes"/>
      <point x="231.2" y="203"/>
      <point x="229.2" y="207"/>
      <point x="225.2" y="210"/>
      <point x="222.2" y="208"/>
    </contour>
    <contour>
      <point x="190.2" y="499" type="qcurve"/>
      <point x="190.2" y="499" type="line"/>
      <point x="188.2" y="502"/>
      <point x="188.2" y="494" type="qcurve" smooth="yes"/>
      <point x="188.2" y="491"/>
      <point x="186.2" y="485"/>
      <point x="186.2" y="480" type="qcurve" smooth="yes"/>
      <point x="186.2" y="477"/>
      <point x="189.2" y="468"/>
      <point x="190.2" y="465" type="qcurve"/>
      <point x="193.2" y="464"/>
      <point x="197.2" y="468"/>
      <point x="197.2" y="470" type="qcurve"/>
      <point x="199.2" y="478"/>
      <point x="195.2" y="497"/>
    </contour>
    <contour>
      <point x="95.19999999999999" y="661" type="qcurve"/>
      <point x="95.19999999999999" y="661" type="line"/>
      <point x="91.19999999999999" y="663"/>
      <point x="90.19999999999999" y="659"/>
      <point x="92.19999999999999" y="654" type="qcurve"/>
      <point x="98.19999999999999" y="653"/>
      <point x="105.19999999999999" y="637"/>
      <point x="105.19999999999999" y="650" type="qcurve" smooth="yes"/>
      <point x="105.19999999999999" y="654"/>
      <point x="98.19999999999999" y="658"/>
    </contour>
    <contour>
      <point x="301.2" y="640" type="qcurve"/>
      <point x="301.2" y="640" type="line"/>
      <point x="289.2" y="640"/>
      <point x="293.2" y="632" type="qcurve"/>
      <point x="299.2" y="626"/>
      <point x="311.2" y="633"/>
      <point x="315.2" y="638" type="qcurve"/>
      <point x="311.2" y="641"/>
      <point x="305.2" y="638"/>
    </contour>
    <contour>
      <point x="70.19999999999999" y="652" type="qcurve"/>
      <point x="70.19999999999999" y="652" type="line"/>
      <point x="68.19999999999999" y="650"/>
      <point x="64.19999999999999" y="648"/>
      <point x="62.19999999999999" y="644" type="qcurve"/>
      <point x="61.19999999999999" y="641"/>
      <point x="59.19999999999999" y="634"/>
      <point x="57.19999999999999" y="630" type="qcurve"/>
      <point x="57.19999999999999" y="625"/>
      <point x="55.19999999999999" y="616"/>
      <point x="55.19999999999999" y="612" type="qcurve"/>
      <point x="57.19999999999999" y="607"/>
      <point x="58.19999999999999" y="601"/>
      <point x="59.19999999999999" y="599" type="qcurve"/>
      <point x="67.19999999999999" y="592"/>
      <point x="83.19999999999999" y="603"/>
      <point x="90.19999999999999" y="612" type="qcurve"/>
      <point x="92.19999999999999" y="614"/>
      <point x="92.19999999999999" y="628" type="qcurve" smooth="yes"/>
      <point x="92.19999999999999" y="637"/>
      <point x="90.19999999999999" y="640" type="qcurve"/>
      <point x="84.19999999999999" y="646"/>
      <point x="75.19999999999999" y="654"/>
    </contour>
    <contour>
      <point x="168.2" y="656" type="qcurve"/>
      <point x="168.2" y="656" type="line"/>
      <point x="165.2" y="653"/>
      <point x="162.2" y="646"/>
      <point x="160.2" y="642" type="qcurve"/>
      <point x="158.2" y="638"/>
      <point x="157.2" y="629"/>
      <point x="157.2" y="625" type="qcurve" smooth="yes"/>
      <point x="157.2" y="621"/>
      <point x="158.2" y="614"/>
      <point x="161.2" y="613" type="qcurve"/>
      <point x="165.2" y="612"/>
      <point x="173.2" y="617"/>
      <point x="176.2" y="624" type="qcurve"/>
      <point x="178.2" y="629"/>
      <point x="184.2" y="644"/>
      <point x="182.2" y="652" type="qcurve"/>
      <point x="182.2" y="659"/>
      <point x="173.2" y="661"/>
    </contour>
    <contour>
      <point x="100.19999999999999" y="603" type="qcurve"/>
      <point x="100.19999999999999" y="603" type="line"/>
      <point x="99.19999999999999" y="601"/>
      <point x="96.19999999999999" y="595"/>
      <point x="94.19999999999999" y="592" type="qcurve"/>
      <point x="91.19999999999999" y="591"/>
      <point x="88.19999999999999" y="581"/>
      <point x="90.19999999999999" y="576" type="qcurve"/>
      <point x="92.19999999999999" y="570"/>
      <point x="100.19999999999999" y="572"/>
      <point x="103.19999999999999" y="576" type="qcurve"/>
      <point x="108.19999999999999" y="579"/>
      <point x="108.19999999999999" y="597"/>
      <point x="105.19999999999999" y="603" type="qcurve"/>
      <point x="104.19999999999999" y="603"/>
      <point x="103.19999999999999" y="603"/>
    </contour>
    <contour>
      <point x="148.2" y="599" type="qcurve"/>
      <point x="147.2" y="596"/>
      <point x="145.2" y="587"/>
      <point x="145.2" y="583" type="qcurve"/>
      <point x="147.2" y="577"/>
      <point x="152.2" y="572"/>
      <point x="153.2" y="575" type="qcurve"/>
      <point x="156.2" y="579"/>
      <point x="154.2" y="587"/>
      <point x="149.2" y="595"/>
    </contour>
    <contour>
      <point x="244.2" y="604" type="qcurve"/>
      <point x="244.2" y="604" type="line"/>
      <point x="243.2" y="603"/>
      <point x="243.2" y="592"/>
      <point x="243.2" y="587" type="qcurve"/>
      <point x="242.2" y="584"/>
      <point x="246.2" y="577"/>
      <point x="247.2" y="579" type="qcurve"/>
      <point x="250.2" y="580"/>
      <point x="248.2" y="601"/>
    </contour>
    <contour>
      <point x="206.2" y="605" type="qcurve"/>
      <point x="203.2" y="604"/>
      <point x="198.2" y="597"/>
      <point x="195.2" y="593" type="qcurve"/>
      <point x="190.2" y="584"/>
      <point x="184.2" y="562"/>
      <point x="186.2" y="548" type="qcurve"/>
      <point x="189.2" y="539"/>
      <point x="201.2" y="530"/>
      <point x="206.2" y="531" type="qcurve"/>
      <point x="214.2" y="538"/>
      <point x="226.2" y="562"/>
      <point x="227.2" y="579" type="qcurve" smooth="yes"/>
      <point x="229.2" y="589"/>
      <point x="221.2" y="609"/>
      <point x="214.2" y="612" type="qcurve"/>
      <point x="213.2" y="612"/>
      <point x="209.2" y="608"/>
    </contour>
    <contour>
      <point x="346.2" y="698" type="qcurve"/>
      <point x="342.2" y="694"/>
      <point x="340.2" y="686"/>
      <point x="337.2" y="681" type="qcurve"/>
      <point x="337.2" y="679"/>
      <point x="336.2" y="669"/>
      <point x="334.2" y="666" type="qcurve"/>
      <point x="341.2" y="665"/>
      <point x="352.2" y="686"/>
      <point x="350.2" y="699" type="qcurve"/>
      <point x="350.2" y="703"/>
      <point x="346.2" y="699"/>
    </contour>
    <contour>
      <point x="271.2" y="653" type="qcurve"/>
      <point x="271.2" y="653" type="line"/>
      <point x="270.2" y="653"/>
      <point x="267.2" y="646"/>
      <point x="268.2" y="642" type="qcurve"/>
      <point x="271.2" y="638"/>
      <point x="277.2" y="632"/>
      <point x="279.2" y="637" type="qcurve" smooth="yes"/>
      <point x="280.2" y="644"/>
      <point x="274.2" y="652"/>
    </contour>
    <contour>
      <point x="234.2" y="528" type="qcurve"/>
      <point x="234.2" y="528" type="line"/>
      <point x="230.2" y="523"/>
      <point x="226.2" y="507"/>
      <point x="226.2" y="505" type="qcurve"/>
      <point x="227.2" y="503"/>
      <point x="230.2" y="501"/>
      <point x="233.2" y="499"/>
      <point x="234.2" y="499" type="qcurve"/>
      <point x="238.2" y="501"/>
      <point x="244.2" y="510"/>
      <point x="247.2" y="525"/>
      <point x="243.2" y="531" type="qcurve"/>
      <point x="240.2" y="536"/>
      <point x="236.2" y="528"/>
    </contour>
    <contour>
      <point x="63.19999999999999" y="552" type="qcurve"/>
      <point x="63.19999999999999" y="552" type="line"/>
      <point x="53.19999999999999" y="548"/>
      <point x="55.19999999999999" y="538" type="qcurve" smooth="yes"/>
      <point x="57.19999999999999" y="532"/>
      <point x="62.19999999999999" y="525"/>
      <point x="67.19999999999999" y="526" type="qcurve"/>
      <point x="70.19999999999999" y="526"/>
      <point x="76.19999999999999" y="535"/>
      <point x="75.19999999999999" y="544" type="qcurve" smooth="yes"/>
      <point x="74.19999999999999" y="556"/>
    </contour>
    <contour>
      <point x="258.2" y="575" type="qcurve"/>
      <point x="256.2" y="575"/>
      <point x="251.2" y="567"/>
      <point x="252.2" y="562" type="qcurve"/>
      <point x="252.2" y="550"/>
      <point x="264.2" y="546"/>
      <point x="266.2" y="555" type="qcurve"/>
      <point x="267.2" y="562"/>
      <point x="263.2" y="572"/>
    </contour>
    <contour>
      <point x="284.2" y="626" type="qcurve"/>
      <point x="284.2" y="625"/>
      <point x="283.2" y="620"/>
      <point x="284.2" y="613" type="qcurve"/>
      <point x="284.2" y="609"/>
      <point x="285.2" y="604"/>
      <point x="287.2" y="604" type="qcurve"/>
      <point x="291.2" y="607"/>
      <point x="291.2" y="616" type="qcurve" smooth="yes"/>
      <point x="291.2" y="625"/>
    </contour>
    <contour>
      <point x="188.2" y="114" type="qcurve" smooth="yes"/>
      <point x="186.2" y="112"/>
      <point x="185.2" y="104"/>
      <point x="184.2" y="100" type="qcurve"/>
      <point x="182.2" y="97"/>
      <point x="182.2" y="85"/>
      <point x="184.2" y="81" type="qcurve"/>
      <point x="184.2" y="79"/>
      <point x="188.2" y="73"/>
      <point x="190.2" y="77" type="qcurve"/>
      <point x="193.2" y="80"/>
      <point x="197.2" y="92"/>
      <point x="197.2" y="97" type="qcurve" smooth="yes"/>
      <point x="197.2" y="101"/>
      <point x="197.2" y="108"/>
      <point x="197.2" y="113"/>
      <point x="195.2" y="118"/>
      <point x="194.2" y="121" type="qcurve"/>
      <point x="194.2" y="121"/>
      <point x="193.2" y="121"/>
      <point x="190.2" y="120"/>
      <point x="189.2" y="117"/>
    </contour>
    <contour>
      <point x="199.2" y="685" type="qcurve"/>
      <point x="199.2" y="685" type="line"/>
      <point x="197.2" y="685"/>
      <point x="191.2" y="678"/>
      <point x="193.2" y="675" type="qcurve"/>
      <point x="197.2" y="675"/>
      <point x="202.2" y="666"/>
      <point x="209.2" y="663"/>
      <point x="210.2" y="669" type="qcurve"/>
      <point x="213.2" y="674"/>
      <point x="202.2" y="685"/>
    </contour>
    <contour>
      <point x="137.2" y="575" type="qcurve"/>
      <point x="136.2" y="572"/>
      <point x="133.2" y="566"/>
      <point x="135.2" y="563" type="qcurve"/>
      <point x="136.2" y="559"/>
      <point x="140.2" y="558"/>
      <point x="140.2" y="559" type="qcurve"/>
      <point x="147.2" y="563"/>
      <point x="144.2" y="570" type="qcurve"/>
      <point x="144.2" y="576"/>
      <point x="140.2" y="576"/>
    </contour>
    <contour>
      <point x="201.2" y="464" type="qcurve"/>
      <point x="201.2" y="464" type="line"/>
      <point x="199.2" y="461"/>
      <point x="199.2" y="454"/>
      <point x="197.2" y="452" type="qcurve"/>
      <point x="197.2" y="446"/>
      <point x="195.2" y="440"/>
      <point x="194.2" y="437" type="qcurve"/>
      <point x="194.2" y="432"/>
      <point x="198.2" y="431"/>
      <point x="201.2" y="435" type="qcurve"/>
      <point x="202.2" y="437"/>
      <point x="203.2" y="444"/>
      <point x="205.2" y="446" type="qcurve"/>
      <point x="206.2" y="450"/>
      <point x="206.2" y="457"/>
      <point x="206.2" y="458" type="qcurve" smooth="yes"/>
      <point x="206.2" y="465"/>
      <point x="203.2" y="468"/>
    </contour>
    <contour>
      <point x="199.2" y="331" type="qcurve"/>
      <point x="195.2" y="330"/>
      <point x="193.2" y="325"/>
      <point x="194.2" y="321" type="qcurve" smooth="yes"/>
      <point x="195.2" y="317"/>
      <point x="203.2" y="312"/>
      <point x="209.2" y="314"/>
      <point x="207.2" y="322" type="qcurve"/>
      <point x="207.2" y="327"/>
      <point x="202.2" y="333"/>
    </contour>
    <contour>
      <point x="324.2" y="554" type="qcurve"/>
      <point x="324.2" y="554" type="line"/>
      <point x="317.2" y="554"/>
      <point x="322.2" y="542" type="qcurve"/>
      <point x="325.2" y="539"/>
      <point x="330.2" y="531"/>
      <point x="337.2" y="527"/>
      <point x="341.2" y="531" type="qcurve"/>
      <point x="341.2" y="532"/>
      <point x="341.2" y="539"/>
      <point x="341.2" y="542" type="qcurve"/>
      <point x="340.2" y="547"/>
      <point x="334.2" y="552"/>
      <point x="328.2" y="555"/>
    </contour>
    <contour>
      <point x="113.19999999999999" y="636" type="qcurve"/>
      <point x="113.19999999999999" y="636" type="line"/>
      <point x="108.19999999999999" y="630"/>
      <point x="111.19999999999999" y="618" type="qcurve" smooth="yes"/>
      <point x="112.19999999999999" y="613"/>
      <point x="115.19999999999999" y="609"/>
      <point x="116.19999999999999" y="611" type="qcurve"/>
      <point x="121.19999999999999" y="613"/>
      <point x="117.19999999999999" y="626" type="qcurve" smooth="yes"/>
      <point x="115.19999999999999" y="637"/>
    </contour>
    <contour>
      <point x="116.19999999999999" y="567" type="qcurve"/>
      <point x="116.19999999999999" y="567" type="line"/>
      <point x="107.19999999999999" y="558"/>
      <point x="109.19999999999999" y="544" type="qcurve"/>
      <point x="112.19999999999999" y="535"/>
      <point x="119.19999999999999" y="552"/>
      <point x="120.19999999999999" y="556" type="qcurve"/>
      <point x="120.19999999999999" y="567" type="line"/>
      <point x="119.19999999999999" y="570"/>
      <point x="116.19999999999999" y="570"/>
    </contour>
    <contour>
      <point x="285.2" y="570" type="qcurve" smooth="yes"/>
      <point x="281.2" y="566"/>
      <point x="284.2" y="555" type="qcurve"/>
      <point x="285.2" y="552"/>
      <point x="289.2" y="547"/>
      <point x="291.2" y="548" type="qcurve"/>
      <point x="297.2" y="554"/>
      <point x="289.2" y="573"/>
    </contour>
  </outline>
</glyph>
<glyph name="U" format="2">
  <advance width="542.1413574415368"/>
  <unicode hex="0055"/>
  <outline>
    <contour>
      <point x="127.22729941146618" y="774" type="curve"/>
      <point x="181.22729941146616" y="771"/>
      <point x="443.22729941146616" y="769"/>
      <point x="482.22729941146616" y="771" type="curve" smooth="yes"/>
      <point x="572.2272994114662" y="778"/>
      <point x="496.22729941146616" y="748"/>
      <point x="482.22729941146616" y="599" type="curve" smooth="yes"/>
      <point x="468.22729941146616" y="448"/>
      <point x="468.22729941146616" y="80"/>
      <point x="404.22729941146616" y="32" type="curve" smooth="yes"/>
      <point x="338.22729941146616" y="-19"/>
      <point x="277.22729941146616" y="-7"/>
      <point x="226.22729941146616" y="-3" type="curve" smooth="yes"/>
      <point x="158.22729941146616" y="4"/>
      <point x="112.22729941146618" y="22"/>
      <point x="82.22729941146618" y="64" type="curve" smooth="yes"/>
      <point x="47.22729941146618" y="111"/>
      <point x="10.227299411466177" y="631"/>
      <point x="42.22729941146618" y="616" type="curve" smooth="yes"/>
      <point x="57.22729941146618" y="609"/>
      <point x="75.22729941146618" y="597"/>
      <point x="133.22729941146616" y="597" type="curve" smooth="yes"/>
      <point x="191.22729941146616" y="597"/>
      <point x="180.22729941146616" y="604"/>
      <point x="139.22729941146616" y="559" type="curve" smooth="yes"/>
      <point x="120.22729941146618" y="539"/>
      <point x="44.22729941146618" y="559"/>
      <point x="80.22729941146618" y="260" type="curve" smooth="yes"/>
      <point x="89.22729941146618" y="188"/>
      <point x="98.22729941146618" y="190"/>
      <point x="114.22729941146618" y="112" type="curve" smooth="yes"/>
      <point x="122.22729941146618" y="69"/>
      <point x="191.22729941146616" y="38"/>
      <point x="220.22729941146616" y="34" type="curve" smooth="yes"/>
      <point x="241.22729941146616" y="32" type="line" smooth="yes"/>
      <point x="456.22729941146616" y="7"/>
      <point x="438.22729941146616" y="238"/>
      <point x="429.22729941146616" y="543" type="curve" smooth="yes"/>
      <point x="426.22729941146616" y="667"/>
      <point x="375.22729941146616" y="645"/>
      <point x="277.22729941146616" y="697" type="curve" smooth="yes"/>
      <point x="241.22729941146616" y="716"/>
      <point x="158.22729941146616" y="748"/>
    </contour>
  </outline>
</glyph>
<glyph name="V" format="2">
  <advance width="761"/>
  <unicode hex="0056"/>
  <outline>
    <contour>
      <point x="20" y="755" type="line"/>
      <point x="70" y="566" type="line"/>
      <point x="173" y="566" type="line"/>
      <point x="123" y="755" type="line"/>
    </contour>
    <contour>
      <point x="95" y="566" type="line"/>
      <point x="145" y="379" type="line"/>
      <point x="248" y="379" type="line"/>
      <point x="198" y="566" type="line"/>
    </contour>
    <contour>
      <point x="169" y="379" type="line"/>
      <point x="221" y="189" type="line"/>
      <point x="322" y="189" type="line"/>
      <point x="273" y="379" type="line"/>
    </contour>
    <contour>
      <point x="246" y="189" type="line"/>
      <point x="295" y="1" type="line"/>
      <point x="397" y="1" type="line"/>
      <point x="347" y="189" type="line"/>
    </contour>
    <contour>
      <point x="741" y="755" type="line"/>
      <point x="639" y="755" type="line"/>
      <point x="589" y="566" type="line"/>
      <point x="691" y="566" type="line"/>
    </contour>
    <contour>
      <point x="667" y="566" type="line"/>
      <point x="564" y="566" type="line"/>
      <point x="514" y="379" type="line"/>
      <point x="617" y="379" type="line"/>
    </contour>
    <contour>
      <point x="592" y="379" type="line"/>
      <point x="489" y="379" type="line"/>
      <point x="439" y="189" type="line"/>
      <point x="541" y="189" type="line"/>
    </contour>
    <contour>
      <point x="517" y="189" type="line"/>
      <point x="414" y="189" type="line"/>
      <point x="365" y="1" type="line"/>
      <point x="466" y="1" type="line"/>
    </contour>
  </outline>
</glyph>
<glyph name="W" format="2">
  <advance width="894"/>
  <unicode hex="0057"/>
  <outline>
    <contour>
      <point x="20" y="749" type="line"/>
      <point x="223" y="0" type="line"/>
      <point x="269" y="123" type="line"/>
      <point x="279" y="153" type="line"/>
      <point x="283" y="170" type="line"/>
      <point x="128" y="749" type="line"/>
    </contour>
    <contour>
      <point x="20" y="749" type="line"/>
      <point x="223" y="0" type="line"/>
      <point x="269" y="123" type="line"/>
      <point x="279" y="153" type="line"/>
      <point x="283" y="170" type="line"/>
      <point x="128" y="749" type="line"/>
    </contour>
    <contour>
      <point x="874" y="748" type="line"/>
      <point x="636" y="122" type="line"/>
      <point x="638" y="124" type="line"/>
      <point x="622" y="169" type="line"/>
      <point x="770" y="748" type="line"/>
    </contour>
    <contour>
      <point x="874" y="748" type="line"/>
      <point x="682" y="0" type="line"/>
      <point x="638" y="124" type="line"/>
      <point x="635" y="132" type="line"/>
      <point x="622" y="169" type="line"/>
      <point x="770" y="748" type="line"/>
    </contour>
    <contour>
      <point x="491" y="490" type="line"/>
      <point x="341" y="62" type="line"/>
      <point x="304" y="135" type="line"/>
      <point x="295" y="152" type="line"/>
      <point x="283" y="170" type="line"/>
      <point x="407" y="490" type="line"/>
    </contour>
    <contour>
      <point x="491" y="490" type="line"/>
      <point x="341" y="62" type="line"/>
      <point x="304" y="135" type="line"/>
      <point x="295" y="152" type="line"/>
      <point x="283" y="170" type="line"/>
      <point x="408" y="490" type="line"/>
    </contour>
    <contour>
      <point x="406" y="490" type="line"/>
      <point x="567" y="55" type="line"/>
      <point x="604" y="132" type="line"/>
      <point x="612" y="146" type="line"/>
      <point x="622" y="169" type="line"/>
      <point x="491" y="490" type="line"/>
    </contour>
    <contour>
      <point x="406" y="489" type="line"/>
      <point x="567" y="55" type="line"/>
      <point x="588" y="100" type="line"/>
      <point x="612" y="146" type="line"/>
      <point x="622" y="169" type="line"/>
      <point x="491" y="490" type="line"/>
    </contour>
    <contour>
      <point x="283" y="170" type="line"/>
      <point x="223" y="0" type="line"/>
      <point x="315" y="-1" type="line"/>
      <point x="344" y="73" type="line"/>
    </contour>
    <contour>
      <point x="567" y="55" type="line"/>
      <point x="588" y="0" type="line"/>
      <point x="682" y="0" type="line"/>
      <point x="622" y="169" type="line"/>
    </contour>
    <contour>
      <point x="406" y="489" type="line"/>
      <point x="361" y="364" type="line"/>
      <point x="538" y="364" type="line"/>
      <point x="491" y="490" type="line"/>
    </contour>
  </outline>
</glyph>
<glyph name="X" format="2">
  <advance width="630"/>
  <unicode hex="0058"/>
  <outline>
    <contour>
      <point x="59" y="76" type="line"/>
      <point x="30" y="2" type="line"/>
      <point x="106" y="40" type="line"/>
      <point x="332" y="305" type="line"/>
      <point x="517" y="14" type="line"/>
      <point x="575" y="-24" type="line"/>
      <point x="566" y="55" type="line"/>
      <point x="361" y="338" type="line"/>
      <point x="570" y="530" type="line"/>
      <point x="600" y="606" type="line"/>
      <point x="520" y="567" type="line"/>
      <point x="350" y="388" type="line"/>
      <point x="221" y="702" type="line"/>
      <point x="150" y="753" type="line"/>
      <point x="153" y="677" type="line"/>
      <point x="319" y="343" type="line"/>
    </contour>
  </outline>
</glyph>
<glyph name="Y" format="2">
  <advance width="422"/>
  <unicode hex="0059"/>
  <outline>
    <contour>
      <point x="51" y="750" type="line"/>
      <point x="180" y="396" type="line"/>
      <point x="239" y="396" type="line"/>
      <point x="110" y="750" type="line"/>
    </contour>
    <contour>
      <point x="367" y="750" type="line"/>
      <point x="309" y="750" type="line"/>
      <point x="180" y="396" type="line"/>
      <point x="239" y="396" type="line"/>
    </contour>
    <contour>
      <point x="180" y="396" type="line"/>
      <point x="180" y="1" type="line"/>
      <point x="239" y="1" type="line"/>
      <point x="239" y="396" type="line"/>
    </contour>
    <contour>
      <point x="30" y="750" type="line"/>
      <point x="30" y="691" type="line"/>
      <point x="170" y="691" type="line"/>
      <point x="170" y="750" type="line"/>
    </contour>
    <contour>
      <point x="252" y="750" type="line"/>
      <point x="252" y="691" type="line"/>
      <point x="392" y="691" type="line"/>
      <point x="392" y="750" type="line"/>
    </contour>
    <contour>
      <point x="136" y="60" type="line"/>
      <point x="136" y="1" type="line"/>
      <point x="276" y="1" type="line"/>
      <point x="276" y="60" type="line"/>
    </contour>
  </outline>
</glyph>
